<svg xmlns="http://www.w3.org/2000/svg" id="Capa_2" data-name="Capa 2" viewBox="0 0 158.76 99.44"><defs><style>      .cls-1 {        fill: #4d4d4d;        stroke: #4d4d4d;        stroke-miterlimit: 10;        stroke-width: .5px;      }    </style></defs><g id="Capa_1-2" data-name="Capa 1"><g><path class="cls-1" d="M52.26,35.81s.04-.06.05-.1c.32-.09.5.07.58.35.06.22.15.34.39.19-.1-.15-.42-.26-.13-.51.08,0,.16-.01.24-.02.33.06.58.27.86.41,1.02.38,2.09.53,3.14.76.72.16,1.48.21,2.15.51.32.14.64-.13.91.13.23.08.48.05.71.09.33-.02.66-.07.97.09.17.12.36.14.55.13h-.01c.14.01.28.13.41-.02.12-.15.23-.01.35,0,.22.01.27.16.29.34,0,.32.26.36.48.43h0c.14.02.37.05.27.23-.24.42.15.24.27.32.08,0,.15,0,.23,0,.29.07.59.07.89.04.26.02.52.15.77-.02.05-.02.1-.02.15-.02.15.01.28.09.43.12.18,0,.24-.16.35-.26.75-.07,1.48.14,2.21.25.95.14,1.89.16,2.84.12.95-.04,1.9-.06,2.98-.1-.74-.77-1.71-.11-2.39-.61.71.1,1.42-.32,2.13.05.14.07.31.12.36.24.14.35.41.32.69.31.16-.03.27.02.31.19-.01.1-.09.15-.17.21-.11.08-.43,0-.28.28.13.24.32.08.47-.04.07-.04.14-.06.22-.03.14.27.38.23.63.24.39.02.83-.03,1.05.42-.43.34-.97.38-1.47.5-.11,0-.11-.07-.1-.15.07-.11.18-.13.28-.17-.02-.03-.03,0-.04,0-.33.16-.72,0-1.03.23-.05.02-.1.04-.15.04-.15.03-.33-.17-.44.07-.02.05-.05.07-.1.09-.54-.21-1.1-.21-1.67-.16-.22,0-.44.07-.66.05-.83.04-1.65,0-2.47-.06-.18-.07-.36.13-.53,0-1.14-.16-2.28-.33-3.44-.43-.47-.04-1-.09-1.41-.03-.61.08-1.29,0-1.81.28-.45.24-.75-.04-1.11-.04-.64,0-1.29-.05-1.93,0-.31.02-.57-.27-.87-.06-.21.02-.37-.11-.57-.13-.16-.05-.31-.16-.48-.18-.05.03-.13-.04-.17.05.04,0,.07-.02.11-.03.17,0,.3.1.42.2.03.04.05.08.08.12.06.14.28.22.18.44-.32.15-.37.36-.11.61.09.09.19.17.21.3.02.24-.11.29-.31.24-.48-.26-.8-.73-1.25-1.03-.31-.21-.61-.43-.96-.57-.31-.13-.63-.25-.87-.51-.09-.1-.22-.18-.35-.16-.57.08-1.07-.33-1.69-.19-.36.08-.78-.2-1.18-.3-.39-.1-.56-.05-.55.39.02.64-.2,1.26-.17,1.9.02.41.29.78.16,1.21.05.25.06.5.28.68.11.12.21.24.16.42-.07.09-.17.11-.27.15-.08.03-.15.04-.23.03-.32-.05-.34-.38-.37-.55-.1-.48-.34-.9-.49-1.36h0c.07-.14.1-.28-.03-.41h0c-.07-.37.13-.74.03-1.12.04-.49.08-.97.12-1.46.04-.39-.31-.29-.5-.39-.16.03-.23-.26-.43-.11-.05.08-.11.16-.22.18-.08-.08-.17-.15-.25-.23,0-.15-.07-.2-.2-.12-.29-.02-.57-.05-.86-.07-.02-.14.09-.19.19-.24-.15.05-.31.09-.47.07-.17,0-.26-.24-.46-.15-.41.14-.76-.08-1.13-.18-.05-.13-.06-.32-.27-.28-.41.09-.76,0-1.1-.23-.53.04-.96-.36-1.49-.36-.42-.04-.82-.22-1.25-.2-.05-.03-.06-.07-.04-.12,0-.16-.09-.2-.23-.17-.16.04-.32.18-.49.02-.39,0-.76-.11-1.13-.21-.11-.03-.15-.03-.2.06h0c-.17.02-.34.02-.47-.12-.11-.13-.3-.06-.42-.17-.54,0-1.01-.27-1.59-.23-.5.04-1.03-.35-1.55-.55-.71-.22-1.43-.36-2.16-.47-.09-.01-.19-.04-.27-.04-.08,0,.02-.28-.11-.06-.12.21-.27.14-.43.06-.38-.19-.76-.13-1.13,0-.05,0-.1,0-.15-.03-.1-.25-.26-.09-.4-.06-.19-.11-.39-.13-.6-.05-.38-.15-.78.16-1.16-.05-.53-.02-1.02-.13-1.48-.41-.13-.08-.29,0-.43.06-.02.02-.04.04-.05.06-.74.16-1.45-.04-2.17-.15-.08,0-.16,0-.24,0-.23-.28-.53-.23-.82-.14h0c-.64-.08-1.28-.29-1.94-.2-.12.02-.21-.19-.35-.04-.3.15-.51-.26-.8-.12-.13-.04-.18.3-.29.11-.22-.4-.58-.22-.87-.29-.15.06-.34,0-.46.14-.22-.2-.5-.23-.76-.19-.84.12-1.68.05-2.49-.1-.82-.15-1.65-.31-2.47-.5-1.38-.32-2.77-.55-4.2-.55-.18-.15-.36.05-.54,0-.35-.3-.84.01-1.19-.29-.35-.11-.38-.4-.39-.7.14-.34.42-.32.71-.25.14.08.21.28.41.27.31.01.61.09.92.06,1.14.12,2.28.08,3.42.24.2.03.41.04.61.11.05.06.02-.04.05.03.1.3.34.42.61.48.16.08.34.05.51.07.19.05.38.03.57.07.17.08.35.12.54.17.09.02.19.04.28.06.05.01.09.03.14.05.27.09.5-.07.76-.08.67-.06,1.38.16,2.02-.24.14-.09.29-.11.45-.11.1.01.21,0,.31.01.07,0,.14.04.2,0-.05.02-.1,0-.15,0-.2-.03-.39-.04-.58-.04-.2,0-.39.1-.59.11-.17.02-.32,0-.46-.1-.15-.12-.27-.26-.3-.47,0-.07.04-.13.11-.15.04,0,.12-.01,0-.05-.03-.01-.07-.02-.1-.05-.2-.42.08-.5.39-.51.41,0,.82.02,1.23.03-.84-.29-1.78,0-2.6-.42-.33.03-.67,0-.96.21-.12,0-.2-.13-.31-.11-.9.21-1.79.04-2.68-.1-.21-.02-.4-.1-.62-.07-.62.15-1.22-.09-1.83-.12-1.06-.06-2.12-.2-3.18-.23-.15,0-.3-.04-.43-.11-.18-.1-.37-.12-.58-.1-.43-.04-.85.11-1.27.06-.29-.05-.57-.16-.87-.13-.21.16-.42.04-.63.01-.12,0-.21.04-.31.11-.3.2-.58.16-.76-.15-.11-.18-.29-.22-.43-.33-.13-.59.09-.86.72-.92.17-.13.36-.12.56-.1.08,0,.17.01.25.02.19-.33.44-.14.68-.08.1,0,.18-.04.28-.06.29.26.61.03.91.04.17-.02.34,0,.51.02.11,0,.23.01.29-.11.03-.04.06-.07.11-.08.52-.02,1.03.06,1.53.22.43.07.88.01,1.28.23.19-.01.41.29.56-.08.03-.08.15-.09.19-.04.41.46.93.14,1.39.19.5.06,1.01.16,1.53.17.56.01,1.18.04,1.76.16.36.08.71-.02,1.04-.09.21-.04.34.02.51.05.27-.03.29.36.56.33.1,0,.19,0,.29-.02.24,0,.29-.23.43-.35.21-.04.42-.04.61.08.16.57.81.32,1.1.66.77.61,1.71.48,2.58.51,1.88.06,3.75.23,5.62.37,1.08.08,2.16.4,3.25.13.15-.04.33-.04.31-.24-.02-.17-.17-.16-.31-.1-.18.06-.23,0-.15-.17.63-.25,1.26-.35,1.95-.34,1,.02,1.92-.44,2.86-.71.09.02.14.12.09.16-.4.33-.31.9-.61,1.27q0,.29.5.19c.15,0,.31-.02.45.05.18.2.43.2.67.22.21.03.38.16.57.23.3.12.64.31.87-.14.07-.15.23-.17.34-.12.37.17.85-.03,1.14.37.08.1.21.08.3,0,.31-.27.61-.19.92,0,.21.13.45.09.65,0,.22-.08.37-.2.58.04.21.24.36-.23.59-.12.28.06.55-.17.83-.07.38.2.82.04,1.22.25.21.11.29-.23.45-.35.22-.06.38.13.58.14.33-.13.66.13.99-.03.08-.03.17-.04.27-.06-.34-.05-.65-.21-.99-.27-.3-.09-.62-.15-.81-.44-.08-.26.07-.32.29-.3.14.01.28.07.42.06.71,0,1.33.37,1.98.6.98.34,1.89.24,2.79-.2.23-.11.44.05.65.03.18,0,.35-.07.54-.07.25.04.51.2.75-.03.57-.36,1.24-.33,1.86-.48.39-.11.82-.07,1.18-.3,1.31-.45,2.59-.98,3.92-1.36,1.58-.45,2.97-1.36,4.56-1.78.53-.14.92-.58,1.42-.81.26-.12.5-.26.79-.28.42.24.4.52.07.83-.07.01-.17,0-.21.05-.65.68-1.59.89-2.36,1.37-.66.4-1.4.8-2.22.91-.17.15-.39.19-.6.23-.58.34-1.18.66-1.87.73-.14.09-.27.2-.45.17-.31.14-.63.28-.94.43-.17.02-.35,0-.49.11-.56.52-1.37.48-1.98.89-.09.06-.22-.05-.33.02-.72.2-1.43.43-2.17.58-.67.13-1.38.36-2.04.46-.79.11-1.56.3-2.35.41-.45.06-.91,0-1.36.09-.28.06-.58.09-.9,0-.39-.12-.85.23-1.21.02-.27-.16-.39-.06-.58.04-.33.12-.67.02-1,.1-.08,0-.15-.02-.22-.05-.24-.1-.48.03-.71,0-.12.01-.23.05-.34.09-.24.07-.48.13-.73.1-.2-.13-.39-.3-.65-.29-.05,0-.1,0-.15,0-.84.06-1.66.02-2.46-.27-.25-.09-.51-.21-.77-.01-.21.11-.45.03-.67.08-.07.01-.15.01-.23.01-.19-.02-.39-.05-.59-.04-.17,0-.34,0-.51.02-.17.04-.33-.05-.49-.01-.05.03-.1.07-.16.1-.06.04-.08-.05-.04,0,.06.09.11-.03.17-.03.1-.04.2-.05.3-.02.3.05.37.25.33.52-.05.06-.12.09-.2.1-.24-.05-.4.19-.62.19-.13-.01-.24-.09-.42-.08.22.04.39.12.57.06.44.18.89.1,1.33,0,.28.08.59.06.87.15.07.02.14.05.2.1.19.18.42.25.67.25.05,0,.1.02.15.03.21.07.41.17.64.17.18,0,.28-.15.43-.22.05,0,.1.01.14.04.11.11.12.32.34.31.31-.12.68.17.97-.13-.09-.12-.24-.21-.19-.39.02-.11.07-.21.15-.29.07-.06.14-.09.23-.09.11.01.21.06.29.13.11.17.26.27.44.35.25.46.58.83,1.08,1.01.36.22.76.28,1.17.22.31.07.63.07.95.09.5.29,1.1.28,1.62.51.07.02.13.04.23.06-.11-.04-.19-.05-.27-.09-.48-.18-.92-.46-1.45-.52-.41-.38-.95-.5-1.45-.68-.23-.08-.46-.14-.64-.32-.41-.48-.09-.83.2-1.2.21-.14.4.07.61.04.31.11.68.05.94.3.18.34.49.24.79.25.66.03,1.17.48,1.75.71.2.08.37.34.64.06.09-.1.22.07.32.14.43.33.88.63,1.46.55.29-.04.19.23.32.31.45.19.96.13,1.39.39.25.03.53.1.52-.31Z"></path><path class="cls-1" d="M35.6,30.96c.09-.3.72-.52.06-.9.3-.15.67-.11.64-.52.22-.17.49-.2.75-.27.21.38.25.94.89.87.25.01.48-.08.7-.18.15-.06.3-.04.45-.04.4.04.76-.15,1.14-.19.16-.03.3-.09.34-.28.04-.06.1-.11.16-.12.12,0,.21,0,.11-.16.01-.01.03-.04.04-.04,1.12.21,1.97-.65,3.02-.73.16,0,.28-.09.4-.18.53-.17,1.02-.49,1.55-.59.91-.16,1.7-.67,2.62-.78.32-.04.53-.33.85-.35.41-.02.77-.22,1.1-.41.39-.22.79-.33,1.21-.4.16-.04.31-.13.48-.12.41.03.65-.16.79-.53.46.02.8-.27,1.19-.43.51-.06,1.03-.12,1.46-.44.92-.39,1.88-.68,2.85-.93.54-.14,1.1-.2,1.57-.57.27-.22.67-.1,1.02-.22.82-.28,1.61-.57,2.3-1.12.26-.21.63-.22.96-.28.28.04.46-.13.64-.3.64-.29,1.38-.31,2-.64.31-.17.62-.24.96-.18.39.15.66-.1.95-.28.19-.18.34-.4.61-.47.33-.33.8-.48,1.05-.89.04-.06.11-.12.18-.12.75-.03,1.19-.61,1.77-.96.27-.17.64-.18.88-.44.37-.12.61-.42.88-.66.51-.65,1.26-1,1.92-1.44.65-.43,1.17-1.02,1.86-1.37.23,0,.16-.25.27-.35.52-.2,1-.42,1.45-.81.46-.4,1.04-.69,1.57-1.04.34-.23.9-.17,1.31-.43.33-.13.71-.2.84-.62.56-.19,1.03-.58,1.55-.85.35-.18.72-.36,1.08-.55.18-.05.35-.21.51-.17.29.07.15-.19.24-.25.27-.2.54-.42.87-.51.24,0,.3-.2.42-.35.57-.42.91-1.03,1.37-1.54.26-.29.07-.72.36-.98.04-.03.09-.04.15-.04.56.24.17-.34.36-.42.37-.34.77-.66,1.16-.99.1-.08.2-.16.26-.28.58-1.11.17-1.35-.94-1.6-.21-.05-.45.02-.62-.18-.07-.06-.11-.15-.2-.18-.14-.04-.38.06-.35-.22.03-.23.22-.35.42-.39.3-.06.62,0,.93.02.46-.1.84.19,1.27.24.03.1.09.17.17.21.83.39.69,1.12.63,1.81.28.32-.11.49-.22.65-.34.52-.58,1.12-1.09,1.51-.32.16-.47.42-.64.73-.26.48-.39,1.04-.8,1.44-.87,1.21-1.84,2.34-2.45,3.72-.19,0-.26-.12-.32-.28,0-.09,0-.18.04-.27.23-.33.44-.68.64-1.03.11-.14.2-.28.19-.49-.05.4-.55.23-.67.54-.11.2-.26.37-.49.44-.11.04-.22.08-.29.17-.73.88-1.79,1.2-2.76,1.69-.15.1-.29.22-.45.31-.82.2-1.38.92-2.21,1.09-.41-.06-.5.26-.63.53-1.27.77-2.53,1.56-3.68,2.52-.1.09-.2.17-.34.18-.14,0-.27-.1-.42-.01-.04.02-.08.05-.13.07-.21.12-.42.24-.56.45-.11.17-.26.32-.38.49-.26.44-.62.72-1.13.81-.25-.08-.51-.02-.66.16-.22.26-.54.35-.75.59-.23.25-.51.38-.84.49-.47.15-.92.48-1.27.8-.62.56-1.38.75-2.1,1.02-1.07.4-2.15.78-3.24,1.13-.8.26-1.69.41-2.35,1.04-.21.2-.55.27-.83.34-.83.21-1.59.65-2.43.83-.21,0-.39.12-.58.18-.83.08-1.59.4-2.36.68-.38.14-.75.22-1.14.16-.3-.07-.46.13-.62.33-.44.45-1.07.49-1.61.74-1.08.51-2.29.67-3.38,1.16-.08.04-.18.03-.28.04-.18,0-.33.06-.44.2-.44.23-.91.36-1.38.47-.98.23-1.87.76-2.9.81-.45.02-.68.46-1.13.5.59.29,1.21.46,1.84.61.31.07.64.11.8.45-.18.1-.31-.05-.47-.09-.17-.05-.26-.02-.17.18-.16.19-.34.07-.52.04-.68-.13-1.34-.35-2-.53-.49-.14-.99-.2-1.49-.22-.09.09-.2-.36-.3.02-.04.16-.26.17-.41.25-.49.28-1.01.47-1.59.48-.28,0-.55.06-.8.21-.51.17-.97-.19-1.47-.11-.08.01-.15.02-.23.02-.27,0-.55-.13-.82.02-.26-.02-.58.38-.79-.1Z"></path><path class="cls-1" d="M113.36,20.28c.59-.24,1.23-.4,1.76-.73.75-.45,1.53-.83,2.31-1.2.67-.32,1.32-.7,2.03-.97.85-.32,1.67-.76,2.53-1.04.76-.24,1.49-.54,2.17-.94.92-.54,1.98-.73,2.94-1.2.8-.39,1.69-.61,2.54-.92,1.1-.4,2.29-.52,3.41-.91.53-.18,1.18-.19,1.77-.32,1.45-.32,2.92-.32,4.38-.33,1.12,0,2.25,0,3.37.06,2.04.1,4.06.49,6.11.53,1.26.02,2.52.28,3.78.19,1.26-.09,2.53-.13,3.79-.14.14,0,.22.05.21.2-.2.22-.48.2-.74.21-1.47.06-2.94.32-4.4.26-2.22-.08-4.44-.08-6.65-.42-1.12-.17-2.29-.13-3.44-.05-.79.05-1.58.03-2.37.05-1.74.04-3.47.22-5.15.64-1.7.41-3.4.84-5.04,1.44-2.11.78-4.23,1.56-6.24,2.6-.45.24-.96.34-1.43.53-1.82.73-3.59,1.56-5.31,2.5-1.03.57-2.16.89-3.23,1.35-1.07.46-2.09,1.05-3.18,1.48-.32.13-.6.36-.91.54-.78.44-1.63.66-2.47.94-.18.03-.36.09-.52.19-1.92.86-3.83,1.75-5.72,2.7-.32.16-.64.21-.96.28-1.26.31-2.36.97-3.51,1.53-.86.42-1.71.88-2.56,1.31-.54.28-1.02.64-1.36,1.16-.3.47-.76.79-1.16,1.15-.85.78-1.53,1.7-2.39,2.47-.34.3-.66.62-1.03.88-.17.12-.35.24-.57.14-.15-.12-.18-.23-.01-.36,1.37-.9,2.16-2.32,3.24-3.49.63-.68,1.17-1.46,1.82-2.12.38-.38.9-.64,1.38-.91.88-.49,1.84-.82,2.68-1.4.62-.43,1.36-.62,2.07-.87.83-.3,1.7-.53,2.51-.89,1.02-.45,1.97-1.06,2.99-1.51,1.09-.48,2.18-.95,3.33-1.28.72-.21,1.41-.56,2.08-.91,1.47-.79,2.96-1.51,4.52-2.1.07-.03.12-.08.18-.13.12-.13.28-.16.45-.18Z"></path><path class="cls-1" d="M67.3,66.84c-.71-.11-.89-.84-1.38-1.2-.03-.07.05-.17.01-.21-.29-.37-.53-.8-.96-1.04-.19-.04-.26-.18-.29-.35-.28-.21-.46-.51-.63-.79-.24-.39-.61-.53-1.01-.67-.11-.14-.38-.15-.31-.42.02-.02.02-.05.02-.08-.16-.28-.4-.46-.7-.56-.07-.12-.12-.28-.31-.22h-.01c-.3.09-.16-.41-.44-.33-.69-.54-1.26-1.18-1.7-1.95-.08-.14-.26-.34-.42-.43-.8-.44-1.24-1.2-1.71-1.92-.83-1.27-1.56-2.61-2.43-3.85-.38-.55-.79-1.12-1.09-1.68-.39-.73-.92-1.5-.8-2.45.04-.37-.18-.75-.06-1.13,0-.11-.05-.21-.04-.33,0-.18-.17-.42.13-.52.26-.09.35.14.47.3.23.34.29.71.28,1.12,0,.62.11,1.23.44,1.78.37.61.66,1.27,1.07,1.85.58.81,1.03,1.7,1.61,2.5.81,1.12,1.61,2.27,2.72,3.15.16.13.26.32.38.49.1.27.37.33.56.49.16.02.02.31.24.27.07-.01.19,0,.2.04.04.36.3.31.54.31.37,0,.37.38.57.55.18.2.3.48.64.45.46.07.58.57.95.77.09.05.16.15.25.22.26.23.4.58.75.71.15.12.2.29.24.46.04.17.13.09.22.04.14-.05.24-.02.28.14-.05.19-.07.37.18.45.24.12.43.27.6.48.48.59,1,1.16,1.48,1.74.36.43.74.92.9,1.51.15.52.54.81,1,1.03.03.04.05.09.05.14-.01.32.13.54.4.68.04.03.07.07.1.11.16.16-.04.52.33.56.1,0,.2.01.27.09.09.15.06.34.13.49.02.04.04.09.06.13.06.13.13.25.2.37.03.04.05.08.07.12.06.1.15.18.25.24.04.03.08.06.11.1.05.19.22.26.36.35.31.3.41.78.94.9.24.06.31.43.31.73,0,.33.37.28.5.47.65.88,1.28,1.77,1.92,2.65.08.26.2.5.38.71.06.08.11.17.1.28-.16.25.08.24.2.3.57.55,1,1.19,1.24,1.95.1.31.48.5.38.9-.09.56-.08.53-.63.34-.22-.08-.46-.08-.56-.35-.36-.59-.53-1.3-1.07-1.78-.04,0-.1-.02-.09-.03.14-.19-.06-.3-.1-.45-.39-.55-.79-1.12-1.21-1.63-.46-.57-.73-1.31-1.42-1.71-.27-.16-.4-.58-.59-.88-.04-.12-.24-.1-.22-.27-.22-.07-.33-.23-.45-.44-.1-.18-.07-.64-.52-.45-.02,0-.1-.07-.1-.1-.01-.7-.83-.84-1-1.44-.02-.06-.23.04-.24-.14.18-.32-.22-.26-.28-.43-.27-.23-.28-.74-.78-.71-.1-.63-.78-.95-.87-1.59-.09-.15-.16-.34-.39-.19h0c-.13-.02-.15-.11-.1-.2.15-.22.06-.38-.12-.53Z"></path><path class="cls-1" d="M99.01,43.76c-1.06.06-2.04-.35-3.06-.55-.31-.06-.68.05-.93-.25-.33-.07-.77.12-.89-.41,0-.03-.01.01-.01.02-.18.34-.39-.05-.58.02-.48,0-.94-.18-1.37-.31-.96-.28-1.9-.64-2.88-.89-.61-.15-1.22-.38-1.8-.69-.76-.41-1.65-.5-2.4-.95-.04-.1-.11-.21.03-.3.36-.1.71.01,1.06.07,1.59.24,3.09.77,4.61,1.24,1.92.6,3.87,1.11,5.83,1.6,1.31.33,2.65.32,3.97.45.78.07,1.61-.05,2.41-.11.58-.04,1.17-.06,1.75-.02,1.21.06,2.41-.11,3.61-.08.61.02,1.21-.23,1.83-.24,1.34-.03,2.66-.27,3.99-.35.65-.04,1.29-.27,1.95-.33.23-.03.46.23.68-.01.52-.25,1.1-.26,1.65-.34,3.11-.43,6.03-1.44,8.78-2.94,1.09-.6,2.25-1.04,3.39-1.55.57-.25,1.11-.56,1.64-.88,1.44-.86,2.91-1.67,4.41-2.4,1.81-.88,3.29-2.17,4.85-3.38.99-.77,2.08-1.42,3.02-2.28.67-.61,1.38-1.17,2.1-1.72.14-.11.26-.3.49-.16.09.16.02.27-.11.37-.95.96-2.01,1.8-3.06,2.64-1.69,1.34-3.35,2.71-5.09,3.98-.91.66-1.95,1.16-2.94,1.69-.91.49-1.81,1.01-2.7,1.52-1.13.65-2.28,1.24-3.48,1.77-1.23.54-2.43,1.16-3.61,1.8-1.12.61-2.33,1.09-3.58,1.43-.86.23-1.71.5-2.55.78-.52.18-1.07.18-1.6.26-1.42.2-2.85.38-4.26.64-.76.14-1.54.25-2.33.29-.56.03-1.16.2-1.71.21-.74,0-1.45.15-2.17.23-1.45.16-2.91.14-4.36.14-1.14,0-2.27-.05-3.41.09-.16.02-.35-.17-.56-.06-.21.21-.39-.1-.6-.04Z"></path><path class="cls-1" d="M59.3,42.01c-.14-.22-.56-.22-.4-.7.09-.27.21-.18.34-.21.19-.07.36,0,.53.08.04.03.07.08.09.13.05.06-.16.27.13.21.33-.06.64-.03.84.3.04.06.13.11.2.1.49-.12.84.24,1.25.36.77.25,1.55.48,2.29.83.04,0,.07,0,.11.01.49.55,1.13.84,1.8,1.1.31.12.53.51.94.32.16.28.49.12.7.28.07.24.21.39.48.35.2.24.48.3.77.33.18.02.38.01.47.22.06.18.2.17.35.17.09.05.19.07.23.18.04.53.66.52.85.91.04.13.16.17.26.17.41-.02.6.24.74.56.07.11,0,.31.15.34.58.11.75.6,1.01,1.02.12.19.35.18.52.29.43.27.59.75.87,1.13.09.08.16.18.21.29.2.22.54.25.72.5.05.06.08.13.12.19.75.09,1.02.92,1.7,1.12.05.01.05.19.07.29.09.18.33.04.44.19,0,.04-.02.07-.04.1.11.4.16.82.75.85.16,0,.36.25.52.41.7.57,1.34,1.22,2.05,1.75.78.59,1.4,1.39,2.38,1.77.34.13.7.59.97.97.22.3.54.51.69.85.09.15.08.35.25.46.45.28.65.78.97,1.16.44.47.68,1.09,1.2,1.5.16.12.04.34.12.51.32.66.82,1.23.96,1.98.03.18.17.34.05.53.07.12.11.24-.02.34-.12.1-.24.04-.35-.05-.13-.1-.21-.25-.35-.34-.32-.3-.5-.67-.57-1.1.02-.21.11-.45-.23-.48-.33-.28-.54-.64-.76-1.02-.61-1.1-1.31-2.15-2.28-2.99-.69-.6-1.25-1.36-2.01-1.88-.72-.49-1.33-1.16-2.16-1.49-.17-.07-.3-.23-.42-.37-.83-.97-1.87-1.7-2.86-2.5-.36-.29-.71-.62-1.02-.97-.59-.7-1.24-1.34-2-1.86-.58-.25-1.08-.51-1.5-1.08-.38-.52-.93-1.01-1.51-1.39-.2-.19-.38-.4-.64-.51-.23-.18-.52-.29-.67-.56-.19-.21-.34-.47-.63-.56-.04-.03-.07-.07-.11-.11-.54-.44-1.1-.86-1.86-.8-.42.02-.66-.29-.97-.49-.5-.32-1.05-.55-1.59-.8-.08-.37-.34-.45-.67-.42-.47-.26-1.03-.4-1.33-.91-.09-.16-.22-.29-.35-.44.05.1.14.18.07.3-.53.23-.84-.26-1.26-.38-.07-.04-.13-.09-.17-.16-.06-.07.15-.22-.07-.24-.19-.02-.37-.08-.49-.24-.19-.37-.59-.26-.89-.37Z"></path><path class="cls-1" d="M157.88,12.41c.21-.02.48-.25.6.14.08.29.05.47-.32.57-.21.06-.35.36-.52.55-.17.09-.15.33-.33.41-.15.1-.28.23-.44.32-1.48.71-3.07,1.14-4.6,1.71-1.79.67-3.41,1.67-5.1,2.54-1.04.53-2.09,1.03-3.11,1.62-1.2.7-2.36,1.47-3.59,2.12-1.78.94-3.56,1.88-5.33,2.84-1.21.66-2.45,1.24-3.76,1.65-1.72.53-3.21,1.57-4.86,2.24-1.94.79-3.9,1.51-6,1.76-.59.07-1.12.31-1.68.46-4.1,1.14-8.24,2.11-12.31,3.39-.56.17-1.14.24-1.7.42-.16.05-.34.05-.49-.05-.09-.09-.09-.2-.04-.31.1-.16.25-.22.42-.26,2.45-.53,4.79-1.46,7.22-2.08,1.19-.31,2.36-.66,3.55-.94,1.38-.32,2.72-.76,4.05-1.23.65-.23,1.33-.26,1.99-.43,2.32-.62,4.55-1.46,6.68-2.57,1.56-.81,3.19-1.43,4.83-2.05.98-.37,1.91-.89,2.82-1.43.95-.58,1.94-1.07,2.95-1.55,1.2-.56,2.32-1.25,3.45-1.93,1.47-.88,2.96-1.72,4.52-2.44.68-.32,1.34-.7,1.99-1.08,1.64-.96,3.4-1.61,5.19-2.22.8-.28,1.56-.65,2.38-.89.43-.13.73-.46,1.04-.75.17-.11.31-.24.4-.42.03-.04.07-.07.11-.08Z"></path><path class="cls-1" d="M91.72,90.7c.13.93-.17,1.78-.35,2.67-.23,1.09-.66,2.13-.7,3.28-.02.73-.19,1.46-.17,2.21,0,.27-.33.31-.52.33-.12.02-.39-.21-.39-.32.03-.7-.62-.96-.93-1.41-.5-.73-.86-1.52-1.24-2.31-.26-.54-.44-1.13-.83-1.6-.8-.98-1.18-2.16-1.56-3.33-.33-1.01-.93-1.81-1.74-2.45-.22-.18-.32-.4-.46-.6-.43-.59-1.12-.9-1.5-1.53.12-.59.18-.62.68-.37.33.14.56.39.72.7.07.04-.03.03.02.05.05.02.08.06.07-.02-.03-.16-.15-.28-.21-.42.03-.18-.2-.28-.15-.46.04-.2-.02-.37-.15-.52-.5-1.11-.92-2.25-1.31-3.4.3-.44.31-.44.74-.02.56.61.65,1.43.92,2.16.27.7.47,1.41.87,2.06.35.56.6,1.17.85,1.77.35.85.99,1.45,1.52,2.14.09.12.2.22.29.35.18.29.41.52.76.59.83.33,1.55.89,2.43,1.13.44.12.8.42.82.95-.11.24-.31.28-.54.27-.09-.02-.17-.05-.25-.09-.28-.23-.59-.37-.93-.49-.86-.32-1.61-.85-2.36-1.35-.09-.01-.05-.26-.22-.13.39,1.26,1.2,2.29,1.92,3.36.34.5.45,1.07.66,1.61.25.63.67,1.11,1.11,1.69.32-1.66.66-3.22,1.18-4.74.14-.4-.14-.86.14-1.26.1-.2.09-.44.2-.64.12-.23.31-.36.57-.37.3.17-.08.36,0,.53Z"></path><path class="cls-1" d="M88.3,65.73c.16.06.24.21.34.34.27.32.29.06.32-.16.13.03.23.06.25.24.04.3.12.59.19.88-.1.05-.2.09-.06.21.3.55.13,1.16.2,1.74.12,1.08-.36,2.12-.29,3.19.04.65-.12,1.28.07,1.96.18.66.2,1.4.25,2.11.06.85.26,1.65.5,2.45.16.53.09,1.09.24,1.64.26.97.2,2,.49,2.97.02.06-.05.14-.08.21-.08.2.07.55-.3.55-.35,0-.37-.29-.41-.55-.02-.15-.03-.29-.08-.43-.23-.62-.38-1.24-.35-1.92.02-.4-.16-.81-.22-1.22-.22-1.49-.66-2.93-.88-4.42-.03-.19-.09-.37-.01-.56.2-.28,0-.48-.14-.69-.12-.8-.07-1.62.01-2.41.11-1.1.11-2.21.21-3.31.06-.63-.14-1.26-.25-1.89-.05-.3-.2-.61,0-.92Z"></path><path class="cls-1" d="M90.99.55c-.26.07-.52.11-.81.08-.18-.02-.4.13-.48.45.32-.27.44-.02.6.14-.07.22-.25.19-.41.18-.49-.05-.98-.12-1.47-.23-.15-.04-.29-.06-.44-.06-.64.1-1.29.12-1.94.15-.36.02-.69.31-1.08.13-.24-.1-.48-.11-.72,0-1.02.3-2.09.39-3.08.87-.7.34-1.3.82-1.96,1.21-.66.39-1.28.86-2,1.16-.17.07-.33.09-.43-.1-.11-.23.02-.38.19-.52.33-.46.91-.54,1.31-.88.17-.05.18-.26.3-.35.5-.16.94-.41,1.35-.74.12-.05.15-.19.26-.25,1-.56,2.03-.97,3.19-1.09.77-.08,1.53-.28,2.31-.35,1.11-.1,2.22-.19,3.33-.03.41.06.85.12,1.25.06.3-.05.49.14.74.16Z"></path><path class="cls-1" d="M40.84,29.23c.13.29-.21.11-.24.25-.14.18-.34.1-.52.11-.13,0-.26-.01-.39-.04-.2-.06-.4-.03-.6-.04-.32-.02-.02.18-.1.24-.02.05-.05.09-.09.11-.1.03-.19.06-.27.12-.21.14-.46.2-.68.3-.68-.02-.88-.24-.89-1,.29-.26.65-.41,1-.58.18-.09.71.23.54-.4-.02-.07.37,0,.56-.02.49.11.82-.21,1.19-.43.09-.12.1-.29.25-.36.24-.07.56.06.62-.37.03-.23.36-.11.53-.21.28.01.28-.29.44-.41.04-.01.07,0,.11.01.19-.02.11-.28.29-.31.34,0,.51-.3.79-.41.38-.24.53-.66.77-1.01h0c.43.21.52.45.23.77-.2.22-.22.4-.06.63.02.48-.37.74-.67.96-.54.4-1.09.8-1.56,1.28-.19.19-.43.3-.67.4-.22.09-.49.12-.56.41Z"></path><path class="cls-1" d="M76.93,39.91c-.05.03-.11.05-.16.08-.19-.1-.11-.29-.14-.44,0-.17-.12-.22-.24-.28.04-.04.12-.08.12-.12-.06-.83.69-.81,1.14-1.07.38-.22.82-.31,1.2-.54.44-.26,1.22.04,1.31.5.16.88.82,1.16,1.53.66.09-.01.11.04.12.11.02.12.11.08.19.08.15,0,.29,0,.43.08.04.03.07.07.1.11-.14.16.19.27.04.43-.42.04-.83.12-1.27-.03-.39-.13-.76.12-1.12.25-.08.03-.16.01-.23-.02-.66-.22-1.34-.01-2-.03-.35-.01-.72-.04-1.01.24Z"></path><path class="cls-1" d="M8.57,31.62c.16.21.11.51.34.69-.4.23-.79,0-1.17-.06-.95-.16-1.92-.21-2.87-.36-.39-.06-.87-.23-1.07-.82-.14-.4-.5-.77-.67-1.21.25-.1.41,0,.53.22.18.36.42.4.65.06.14-.21.26.02.37-.04.21.82.4.88,1.29,1.03.87.15,1.81,0,2.62.5Z"></path><path class="cls-1" d="M90.05,82.97c.03.16.08.31.1.47.03.19-.09.45.19.51.35.07.2-.33.37-.45.26,1.61.51,3.22.99,4.78.05.15,0,.33-.01.5.12.22-.02.48.1.7,0,.11,0,.23,0,.34,0,.13.14.29-.07.38-.1.19-.41.15-.45.41-.24-.14-.17-.41-.14-.59.05-.35-.02-.66-.11-.98-.44-1.78-.99-3.53-1.15-5.37-.02-.25-.11-.53.19-.7Z"></path><path class="cls-1" d="M67.1,26.78c.21-.29.18-.56-.1-.79,0-.26.23-.32.4-.42,1.3-.8,2.64-1.51,3.97-2.24.3-.17.55-.48.97-.37.46.34.08.48-.15.66-.96.81-2.18,1.19-3.17,1.96-.59.46-1.27.81-1.9,1.21Z"></path><path class="cls-1" d="M76.84,79.8c.25.29.78.01.92.51.22-.18,0-.41.17-.54.4.41.63.91.78,1.45.12.43.32.78.65,1.08.24.22.53.43.47.83-.25.06-.31.27-.39.47-.77-.36-1.16-1.08-1.54-1.76-.22-.38-.61-.73-.56-1.25,0-.05-.16-.11-.25-.17-.08-.17-.25-.3-.26-.51,0-.04,0-.07.02-.11Z"></path><path class="cls-1" d="M82.43,15.79c-.48.42-.98.82-1.53,1.16-.86.54-1.6,1.23-2.27,1.99-.06.07-.16.1-.24.14-.34.02-.34-.19-.28-.44.09-.26.29-.43.49-.6,1.08-.95,2.18-1.87,3.43-2.59.15-.08.3-.16.48-.11.35.21.07.32-.08.45Z"></path><path class="cls-1" d="M78.21,19.29c-.75.86-1.58,1.63-2.48,2.33-.42.33-.87.67-1.43.78-.02-.02-.04-.04-.06-.06-.1-.22,0-.4.11-.57.11-.15.24-.29.41-.38.77-.4,1.43-.96,2.05-1.55.14-.13.29-.23.47-.31.18-.06.26-.24.39-.37.04-.04.09-.07.14-.09.18,0,.47-.22.41.22Z"></path><path class="cls-1" d="M79.44,83.6c-.26-.47-.06-.57.39-.47.55-.02.79.45,1.11.75.35.33.6.75.96,1.07.13.12.27.28.1.48-.39-.48-.47,0-.65.21-.64-.68-1.4-1.24-1.91-2.04Z"></path><path class="cls-1" d="M48.77,20.98c.02-.07.07-.08.13-.06.14,0,.19.1.21.22-.05.23-.19.42-.37.55-.75.56-1.36,1.28-2.16,1.78-.17.05-.33.14-.52.14-.05-.02-.08-.05-.11-.1-.03-.2-.12-.4.1-.55.73-.6,1.47-1.2,2.29-1.68.18-.05.27-.22.43-.3Z"></path><path class="cls-1" d="M53.56,47.13c-.06-.04-.13-.08-.16-.14-.05-.09-.06-.23-.22-.18-.15.04-.11.15-.09.26.01.16-.02.33-.04.49-.12-.4-.27-.8-.36-1.22-.07-.31-.14-.6-.28-.88.03-.11.01-.21-.09-.29.02-.29-.31-.41-.33-.68.09-.14.35-.12.35-.35.09-.07.18-.04.27,0,.15.02.21.13.25.26.21.57.41,1.15.66,1.71.14.32.27.66.04,1.01Z"></path><path class="cls-1" d="M71.21,7.48s.08-.03.11-.04c.29-.18.66-.2.89-.47.74-.46,1.47-.92,2.21-1.39.08.05-.11.27.16.21.15-.04.25.11.27.27-.05.16-.16.26-.29.33-.95.49-1.81,1.14-2.85,1.45-.13.04-.26.05-.39,0-.13-.09-.27-.17-.13-.35Z"></path><path class="cls-1" d="M51.12,19.64c.99-.74,1.8-1.66,2.61-2.58.09-.11.24-.17.36-.25.16-.03.21.06.23.2-.54.87-1.15,1.7-1.95,2.35-.53.43-1.01.97-1.74,1.08-.19-.21,0-.31.12-.43.12-.13.35-.14.36-.37Z"></path><path class="cls-1" d="M44.23,26.22c-.24-.23-.37-.43,0-.69.38-.26.16-.52-.09-.74.52-.44.79-1.14,1.45-1.43.18,0,.31.07.42.21.05.1.02.19-.04.28-.03.04-.06.08-.09.12-.12.13-.19.29-.28.43-.42.64-.9,1.23-1.37,1.82Z"></path><path class="cls-1" d="M74.86,6.04c-.09-.06-.2-.18-.27-.16-.63.18-.1-.2-.15-.3.84-.52,1.68-1.03,2.52-1.55-.06.17-.22.32-.09.51.11.16.23-.02.34-.02.07.18-.02.31-.17.36-.67.25-1.18.77-1.81,1.09-.11.06-.22.14-.36.06Z"></path><path class="cls-1" d="M81.75,38.86c-.02-.05-.04-.1-.06-.15.74-.63,1.64-1.01,2.46-1.51.65-.39,1.25-.86,1.97-1.13-.04.12-.05.23.08.3.04.23-.16.28-.29.36-1.25.73-2.51,1.45-3.81,2.12-.12,0-.24.15-.37.01Z"></path><path class="cls-1" d="M62.18,11.03c.92-.35,1.83-.7,2.75-1.05.14.03.3.02.34.21-.09.26-.31.39-.53.46-1.09.35-2.11.85-3.19,1.23-.11.04-.22.06-.33.05-.12-.03-.22-.08-.25-.21.23-.26.58-.3.86-.46.15-.03.24-.14.35-.22Z"></path><path class="cls-1" d="M82.43,15.79c.03-.13.3-.25.02-.4,0-.19.12-.33.25-.41.97-.59,1.81-1.36,2.77-1.97.17,0,.38-.04.32.25-.24.22-.47.44-.71.66-.22-.02-.24.22-.39.3-.73.57-1.42,1.18-2.27,1.57Z"></path><path class="cls-1" d="M66.27,9.61c.15-.24.41-.23.64-.28.24.02.43-.1.62-.22.63-.21,1.2-.58,1.86-.71.16.04.31-.22.47-.06.14.14.02.27-.08.39-1.04.72-2.23,1.03-3.45,1.24-.12-.11-.19-.22-.05-.37Z"></path><path class="cls-1" d="M152.54,20.8c-1.03,1.23-2.09,2.42-3.26,3.53-.16-.07-.12-.2-.1-.32.07-.22.21-.4.37-.56.86-.87,1.65-1.79,2.48-2.67.14-.15.26-.39.55-.3.12.13.06.23-.04.32Z"></path><path class="cls-1" d="M32.69,35.1c.33-.33.79-.37,1.11-.19.35.2.47.14.6-.17.23.05-.02.34.11.28.39-.19.7.11,1.03.15.43.05.96.07,1.31.44-.71,0-1.41-.04-2.07-.35-.11-.05-.21.05-.29.13-.31.04-.61-.11-.92-.02-.22,0-.28-.29-.51-.26-.12.09-.22.32-.41.08h.02c-.04-.06-.03-.09.03-.1Z"></path><path class="cls-1" d="M152.54,20.8c.04-.11.06-.22-.02-.32,0-.29.21-.47.37-.67.62-.79,1.31-1.53,1.91-2.35.13-.18.29-.34.52-.41.11,0,.19.03.23.13-.92,1.27-1.9,2.49-3.01,3.61Z"></path><path class="cls-1" d="M54.24,17.03c0-.11-.06-.18-.15-.23.35-.29.68-.6,1.06-.85.48-.32.93-.66,1.28-1.12.09-.12.19-.17.33-.16.11.06.18.15.18.28-.58.8-1.37,1.38-2.11,2.01-.15.13-.36.21-.58.08Z"></path><path class="cls-1" d="M60.97,11.72c.1.05.2.1.3.15.03.16-.08.25-.19.31-.71.38-1.44.71-2.07,1.21-.1.08-.24.09-.38.09-.38-.1-.2-.27-.06-.44.75-.52,1.5-1.06,2.4-1.32Z"></path><path class="cls-1" d="M72.18,23.62c.05-.2.57-.34.07-.6.26-.31,1.5-1.03,1.83-1.06.19.08.09.3.21.42v.03c-.6.57-1.33.95-2.11,1.22Z"></path><path class="cls-1" d="M87.58,10.6c.09.09.19.18.28.27-.11.17-.13.4-.36.48-.05-.05-.01-.12-.04-.18-.04.08-.04.16-.02.24-.33.64-.74,1.22-1.35,1.63-.1-.03-.43.03-.24-.14.19-.17.11-.36.22-.5.38-.6.9-1.1,1.28-1.69.05-.08.12-.15.23-.1Z"></path><path class="cls-1" d="M69.65,8.71c.03-.1.23-.18.14-.26-.08-.07-.26-.04-.4-.05.58-.36,1.2-.65,1.82-.92,0,.19.16.25.28.33-.27.48-1.35,1.01-1.85.9Z"></path><path class="cls-1" d="M149.29,24.03c0,.1,0,.2,0,.3-.53.76-1.31,1.26-1.99,1.87-.08.07-.12.2-.26.19.04-.12.14-.23.04-.37-.04-.12,0-.23.09-.31.62-.51,1.21-1.06,1.81-1.6.08-.07.19-.12.31-.09Z"></path><path class="cls-1" d="M67.38,44.56c-.3.48-.56.04-.75-.09-.13-.09-.17-.21-.34-.11-.04.03-.15.04-.16.03-.25-.69-1.32-.46-1.45-1.29.29-.15.32.18.45.28.37.29.72.52,1.22.42.3-.06.18.42.47.36.21.1.36.29.56.4Z"></path><path class="cls-1" d="M62.2,42.29c-.41-.04-.76-.35-1.2-.22-.03,0-.07-.04-.1-.04-.32.04-.19-.54-.58-.42-.27.08-.55.03-.83-.06-.01-.24.42-.01.32-.31.09-.06.2-.05.29-.07.39.28.81.5,1.31.53.35.02.5.43.85.48.02.06,0,.1-.06.12Z"></path><path class="cls-1" d="M51.12,19.64c.16.14.13.27-.06.33-.23.07-.39.21-.47.44-.43.37-.89.71-1.47.79-.07-.09-.14-.17-.21-.26.64-.6,1.49-.84,2.22-1.29Z"></path><path class="cls-1" d="M55.65,31.68c.6-.15,1.03-.73,1.74-.65.12.01.36-.22.54-.35.18-.12.33-.16.51-.03-.31.09-.54.33-.8.5-.5.33-1.2.16-1.65.64-.03.04-.22-.07-.34-.11Z"></path><path class="cls-1" d="M90.31,7.14c.32-.33.15-.86.6-1.2.27-.19.34-.71.59-1.04.04-.04,0-.17.11-.1.06.03.09.11.14.17-.34.36-.52.75-.62,1.26-.06.28-.41.73-.83.91Z"></path><path class="cls-1" d="M79.31,54.42c-.34,0-.54-.33-.95-.31-.27.01-.42-.54-.31-.94.14.3.33.53.71.47.06-.01.19-.06.17.04-.07.36.32.47.39.75Z"></path><path class="cls-1" d="M28.55,34.57c.15-.32.35-.32.62-.13.19.14.43.21.64.33.17.1.26.07.42-.08.28-.28.15.09.2.17.03.06.01.08-.05.08-.57.2-1.05-.17-1.57-.28-.09-.02-.17-.07-.26-.1Z"></path><path class="cls-1" d="M58.56,13.03c-.01.13-.23.32.1.34-.22.49-.57.84-1.09,1.01-.11-.1-.14-.22-.14-.36.29-.43.68-.73,1.12-.99Z"></path><path class="cls-1" d="M53.16,35.75c-.12.44.24.34.53.41-.3.17-.53.31-.78.46-.15-.35-.04-.86-.59-.9.29-.15.57-.24.85.04Z"></path><path class="cls-1" d="M157.22,13.99c.22,0,.21-.3.42-.31-.4.78-.63,1.65-1.23,2.32-.08-.07-.12-.16-.12-.27.11-.5.35-.94.64-1.35.12-.12.18-.28.3-.39Z"></path><path class="cls-1" d="M93.07,2.81c-.09-.28.06-.63-.22-.87-.05-.04-.04-.08-.02-.15.14-.34.15-.36-.12-.45-.29-.09-.42-.28-.45-.57.24.17.48.33.7.52.34.28.38.97.1,1.51Z"></path><path class="cls-1" d="M64.79,39.27c-.16.09-.28-.01-.41-.07-.23-.1-.39-.2-.05-.37.08-.04.14-.06.03-.13-.04-.03-.09-.06-.14-.09.41,0,.82.01,1.23.11.14.02.22.11.27.23-.12.33-.35.13-.55.11-.11-.01-.22-.03-.32-.02-.1.06-.05.15-.06.23Z"></path><path class="cls-1" d="M40.48,27.9c-.42.19-.72.84-1.32.37.25,0,.22-.48.56-.35.13-.05.15-.19.25-.26.05-.01.1-.03.15-.04.19,0,.29.12.36.27Z"></path><path class="cls-1" d="M20.19,30.09c-.2.02-.42-.38-.63.06-.04.09-.29-.24-.41-.4-.06-.08-.04-.21-.06-.31.33-.12.6-.16.71.3.03.14.26.24.4.36Z"></path><path class="cls-1" d="M66.27,9.61c-.02.13.01.24.09.34-.34.28-.69.51-1.15.33,0-.18-.17-.21-.28-.3.21-.06.41-.13.62-.19.19.06.35.02.47-.14.09-.02.17-.03.26-.05Z"></path><path class="cls-1" d="M82.56,39.51c.03-.14-.32-.23-.06-.4.19-.12.38-.14.59-.05.13.09.27.12.41.19.08.07.17.13.07.25-.34.06-.67.17-1.01.01Z"></path><path class="cls-1" d="M51.27,42.4c.42.48.49,1.12.72,1.68.05.13.11.11.19.13,0,.16-.05.27-.23.15-.32-.62-.53-1.28-.68-1.96Z"></path><path class="cls-1" d="M51.8,36.22c-.46-.21-1.01-.18-1.44-.48.1-.05.09-.35.3-.16.33.29,1.13.46,1.54.3.16.45-.19.32-.4.35Z"></path><path class="cls-1" d="M62.2,42.29s.04-.08.06-.12c.77.3,1.61.44,2.31.93-.81-.22-1.59-.51-2.37-.82Z"></path><path class="cls-1" d="M57.44,14.02c.14.07.17.19.12.33-.02.43-.32.51-.66.54-.09-.05-.16-.12-.15-.24.2-.24.42-.47.69-.64Z"></path><path class="cls-1" d="M156.34,15.81c.02.06.04.13.06.19-.13.23-.21.49-.45.64-.23.12-.19.43-.4.56h0c-.06-.04-.13-.07-.19-.1.12-.59.38-1.07.98-1.29Z"></path><path class="cls-1" d="M65.04,64.32s.03-.03.04-.03c.41.11.9.91.83,1.35-.06-.44-.64-.51-.69-.95-.02-.14-.25-.18-.18-.36Z"></path><path class="cls-1" d="M1.82,29.18c.19-.31.37-.62.56-.93.16-.25.38-.16.59-.09.03.05.1.09.08.16-.37.01-.62.19-.76.53-.09.22-.23.38-.43.5-.09-.04-.14-.08-.04-.16Z"></path><path class="cls-1" d="M44.22,37.3c.55-.08,1.01.15,1.49.36-.01.04-.03.07-.06.09-.13.13-.28.02-.42.02-.26-.32-.73-.18-1.01-.47Z"></path><path class="cls-1" d="M67.38,44.56c-.3.03-.43-.19-.56-.4.25-.33.25.38.48.11.21.27.64.21.82.53-.28.02-.56.02-.74-.25Z"></path><path class="cls-1" d="M50.25,39.09c.05-.09.1-.18.16-.27.21-.08.33.21.54.12q.59.14.44.48c-.32-.32-.71-.38-1.14-.33Z"></path><path class="cls-1" d="M40.87,36.68c.03-.07-.18-.31.1-.2.4.16.85.12,1.23.34-.46.12-.89-.02-1.33-.15Z"></path><path class="cls-1" d="M67.57,39.01c.02.26-.03.46-.35.43-.08-.16-.25-.19-.38-.28-.07-.07-.15-.13-.14-.24.29.03.58.06.88.08Z"></path><path class="cls-1" d="M93.53,42.58c.58-.21.97.34,1.48.37-.56.13-1.03-.1-1.48-.37Z"></path><path class="cls-1" d="M5.59,28.39c.42-.06.82.07,1.23.09.02.05.01.11-.01.16-.1.13-.25.1-.38.13-.25-.09-.55.07-.78-.15-.05-.07-.08-.15-.06-.23Z"></path><path class="cls-1" d="M77.11,40.9l.06.14c-.35.18-.74.18-1.12.21-.02-.05-.03-.1-.01-.16.03-.08.09-.13.17-.16h-.01c.3-.09.6-.26.92-.04Z"></path><path class="cls-1" d="M33.57,35.37c.32-.37.62-.05.92.02-.31.2-.62.18-.92-.02Z"></path><path class="cls-1" d="M156.41,12.57c-.05-.07-.11-.14-.16-.21.34-.03.68-.09,1.02,0,.04.09.2.12.16.26-.35.15-.68.16-1.01-.05Z"></path><path class="cls-1" d="M85.09,39.5c0,.08,0,.17,0,.25-.3-.08-.6-.15-.9-.23-.07-.07-.24-.1-.13-.26.38-.09.76-.13,1.04.24Z"></path><path class="cls-1" d="M86.63,61.39c-.45-.3-.58-.9-1.08-1.15-.01-.07.01-.11.08-.12.49.3.81.74,1,1.28Z"></path><path class="cls-1" d="M66.69,38.93c.06.07.12.14.17.21-.03.07-.11.05-.16.07h.01c-.25.07-.48-.04-.72-.06-.05-.02-.09-.05-.12-.09-.04-.1-.04-.19,0-.29.28-.01.56,0,.82.15Z"></path><path class="cls-1" d="M17.77,29.83c-.46.21-.36-.32-.57-.43.22-.04.44-.11.67-.04.04.07.03.14.02.21-.02.1-.07.18-.11.26Z"></path><path class="cls-1" d="M1.82,29.18l.04.16c-.37.29-.51-.1-.73-.25-.02-.02-.03-.12,0-.15.07-.09.15-.05.24,0,.15.09.22.33.46.23Z"></path><path class="cls-1" d="M75.68,51.37c-.17-.16-.34-.33-.59-.34-.18-.01-.21-.11-.15-.26.23-.24.39.13.6.07.09,0,.08.06.07.12.03.13.29.23.08.41Z"></path><path class="cls-1" d="M44.14,24.78c-.13.44-.27.86-.77,1.01.19-.39.5-.68.77-1.01Z"></path><path class="cls-1" d="M62.03,61.47c.44-.03.59.27.7.61-.23-.04-.27-.46-.6-.31-.1.04-.16,0-.2-.09,0-.08,0-.17,0-.25.04-.02.07-.02.09,0,.02.02.03.04.03.05Z"></path><path class="cls-1" d="M63.65,38.23c-.09-.12,0-.32-.2-.39.6-.19.44.46.71.63-.25.08-.42,0-.51-.24Z"></path><path class="cls-1" d="M31.74,35s-.07-.05-.1-.07c.22-.15.41-.08.6.06.13-.07.26-.31.38,0,.02.03.05.06.07.09-.01.03-.02.06-.03.09-.37.26-.59-.23-.92-.18Z"></path><path class="cls-1" d="M86.2,12.41c-.1.14-.06.33-.25.47-.18.13.09.09.13.15-.12.04-.08.28-.28.22-.03-.21-.21-.12-.32-.16.09-.38.29-.65.72-.68Z"></path><path class="cls-1" d="M67.3,66.84c.14.08.29.16.45.25.03.2-.39.21-.24.48-.22-.04-.26-.07-.2-.15.16-.21-.02-.39-.01-.58Z"></path><path class="cls-1" d="M72.22,6.97c-.26.23-.43.62-.89.47.24-.27.58-.35.89-.47Z"></path><path class="cls-1" d="M4.97,28.51c-.15,0-.29,0-.44-.01-.14-.09-.31.09-.45-.06-.01-.07-.08-.12-.07-.19.3-.07.59.03.88.08.04.05.1.1.07.18Z"></path><path class="cls-1" d="M18.47,29.35c.05.35-.1.5-.45.46-.06-.04-.09-.1-.09-.18.02-.12.12-.19.19-.27.11-.09.23-.08.34-.01Z"></path><path class="cls-1" d="M46.01,23.56c-.19.03-.32-.05-.42-.21.15-.13.24-.34.46-.39-.01.2-.03.4-.04.6Z"></path><path class="cls-1" d="M48.2,38.45c.04-.08.04-.15-.03-.22.35-.31.32.2.5.24.03.05.02.1-.03.14-.19.07-.32-.03-.45-.15Z"></path><path class="cls-1" d="M51.27,40.87c.17.38.08.75-.03,1.12-.25-.38.08-.74.03-1.12Z"></path><path class="cls-1" d="M75.53,50.84c-.24.27-.38-.22-.6-.07-.04-.1-.08-.2-.11-.29.4-.19.47.26.72.36Z"></path><path class="cls-1" d="M59.23,40.82c.12-.13.26-.14.4-.02.11.18.3.27.48.36-.07.14-.18.12-.29.07h0c-.18-.15-.51-.1-.58-.42Z"></path><path class="cls-1" d="M84,39.3c.06.07.13.14.19.21-.21.02-.41.05-.61-.02,0-.11-.09-.16-.16-.21.2-.24.4-.15.59.02Z"></path><path class="cls-1" d="M63.65,38.23c.19.04.3.25.51.24.02.05.04.09.06.14-.25-.04-.68.2-.58-.37Z"></path><path class="cls-1" d="M51.8,36.22c.15-.09.44-.03.4-.35l.02-.05.05-.02c.11.07.26.18.13.3-.15.15-.35.32-.59.11Z"></path><path class="cls-1" d="M72.51,38.74c-.28.13-.47.13-.78,0,.3-.14.5-.21.78,0Z"></path><path class="cls-1" d="M78.21,19.29c-.06-.35-.31-.06-.46-.14,0-.35.15-.54.51-.54-.09.2-.13.38.13.48-.06.07-.12.13-.18.2Z"></path><path class="cls-1" d="M42.62,37.4c-.26.04-.52.09-.78.13-.06-.04-.09-.1-.07-.18.21-.08.43-.07.64-.06.1-.02.17.01.21.11Z"></path><path class="cls-1" d="M41.77,37.35c.02.06.05.12.07.18-.01.01-.03.03-.04.03-.2,0-.4.39-.49.18-.12-.27.25-.31.46-.39Z"></path><path class="cls-1" d="M78.86,40.46c.14-.25.35-.38.64-.33-.12.28-.34.4-.64.33Z"></path><path class="cls-1" d="M4.97,28.51c-.02-.06-.05-.12-.07-.18.24-.03.47-.02.7.06.02.05.04.1.07.16-.02.02-.03.04-.05.06-.08.04-.15.04-.21-.02-.12-.14-.29-.01-.42-.08Z"></path><path class="cls-1" d="M6.77,28.61s.04-.08.05-.12c.21-.07.41,0,.6.09v.02c-.09.14-.18.25-.37.2-.13-.01-.23-.06-.28-.19Z"></path><path class="cls-1" d="M91.8,89.48c-.31-.19-.11-.46-.1-.7.38.18-.01.48.1.7Z"></path><path class="cls-1" d="M54.27,36.14c-.35,0-.58-.26-.86-.41.35,0,.6.22.86.41Z"></path><path class="cls-1" d="M91.72,90.19c.02-.13.05-.25.07-.38.35.32-.05.59-.07.88-.14-.17.1-.33,0-.5Z"></path><path class="cls-1" d="M48.65,38.6s.02-.09.03-.14c.16-.12.36-.18.47-.02.09.11-.12.17-.21.24-.12.06-.2-.02-.29-.08Z"></path><path class="cls-1" d="M61.26,60.97c.35-.16.36.13.44.33-.05.03-.09.05-.14.08-.04.02-.07.02-.09,0-.02-.02-.03-.04-.02-.05-.07-.12-.13-.24-.2-.36Z"></path><path class="cls-1" d="M79.52,40.05c.07-.23.29-.3.47-.42.06.03.12.06.18.09-.2.15-.32.44-.65.33Z"></path><path class="cls-1" d="M61.18,37.64c-.25.04-.5.16-.71-.09.27-.23.48.02.71.09Z"></path><path class="cls-1" d="M39.99,36.39c.14.13.37-.29.46.09.04.09,0,.15-.08.2-.15-.06-.33-.08-.38-.28Z"></path><path class="cls-1" d="M157.45,12.59c-.08-.06-.18-.11-.17-.23.2.02.4.04.61.05-.01.03-.03.06-.05.09,0,.2-.16.13-.26.16-.05,0-.09-.03-.12-.07Z"></path><path class="cls-1" d="M65.88,38.78c.06.08.08.17.04.26-.11.04-.19.02-.23-.1l-.23-.22c.16-.11.29.03.43.06Z"></path><path class="cls-1" d="M.29,29.72c.14-.1.28-.2.41-.3.19.16.03.27-.08.34-.1.06-.25.21-.33-.04Z"></path><path class="cls-1" d="M4.02,28.25c.02.06.04.13.07.19-.2-.03-.4-.05-.6-.08-.04-.05-.09-.08-.07-.16.21-.09.4.05.61.04Z"></path><path class="cls-1" d="M42.62,37.4l-.21-.11c.14-.1.28-.21.42-.31.07-.02.11.01.12.08v.04c-.1.1-.21.2-.33.3Z"></path><path class="cls-1" d="M18.13,29.36c.09.17-.06.2-.15.26-.1.04-.17.03-.2-.09.03-.06.06-.12.09-.18.09,0,.18,0,.26,0Z"></path><path class="cls-1" d="M75.68,51.37c.1-.16-.19-.25-.08-.41.21.11.46.18.27.5-.07-.03-.13-.06-.2-.1Z"></path><path class="cls-1" d="M85.63,60.11s-.05.08-.08.12c-.2-.11-.15-.29-.14-.47.14.07.45.04.22.34Z"></path><path class="cls-1" d="M59.39,30.23c.17-.02.24-.27.45-.17-.03.39-.19.4-.45.17Z"></path><path class="cls-1" d="M75.58,77.54c.21.1.25.27.19.48q-.25,0-.19-.48Z"></path><path class="cls-1" d="M51.95,44.36c.12,0,.18-.06.23-.15.05-.02.1-.03.15-.05.22.45-.17.29-.35.35-.01-.05-.03-.1-.04-.15Z"></path><path class="cls-1" d="M67.53,9.11c-.14.25-.35.33-.62.22.23,0,.35-.32.62-.22Z"></path><path class="cls-1" d="M87.43,11.41c-.27-.24,0-.32.21-.51-.07.21-.11.33-.15.45,0,.04-.02.06-.07.06Z"></path><path class="cls-1" d="M76.11,41.08c-.02.05-.04.11-.06.16-.17.05-.31-.04-.45-.11l.02-.05.03-.05c.18-.24.32-.07.47.04Z"></path><path class="cls-1" d="M49.8,38.74c.07-.16.15-.29.41-.27-.08.14-.14.26-.21.38-.07-.04-.13-.08-.2-.12Z"></path><path class="cls-1" d="M69.54,70.06c.15.11.58.03.28.43-.16-.1-.24-.25-.28-.43Z"></path><path class="cls-1" d="M42.19,26.5c-.06.23-.08.51-.44.41.28,0,.12-.46.44-.41Z"></path><path class="cls-1" d="M73.26,41.02c.22-.07.43-.2.66-.05-.21.11-.43.17-.66.05Z"></path><path class="cls-1" d="M3.41,28.2l.07.16c-.15.04-.3.01-.44-.04l-.08-.16c.15.02.3.03.44.05Z"></path><path class="cls-1" d="M89.34,67.23c-.12-.08-.34-.05-.34-.31.14.04.27.07.4.1-.02.07-.04.14-.06.21Z"></path><path class="cls-1" d="M20.54,33.94c.01-.51.3-.12.46-.14-.08.29-.32.07-.46.14Z"></path><path class="cls-1" d="M70.26,40.95c.18-.03.36-.17.53,0-.18.03-.36.3-.53,0Z"></path><path class="cls-1" d="M51.24,41.99c.37.11.14.27.03.42-.22-.12-.09-.27-.03-.42Z"></path><path class="cls-1" d="M76.83,79.91c.06.18.34.25.26.51-.18-.12-.38-.23-.26-.51Z"></path><path class="cls-1" d="M52.32,45.19c.12-.08.16,0,.19.1.03.1.04.18-.1.19-.25-.03-.16-.16-.09-.29Z"></path><path class="cls-1" d="M67.5,67.57c.35-.39.33-.02.39.19-.13-.06-.26-.12-.39-.19Z"></path><path class="cls-1" d="M155.55,17.2c.11-.21.13-.47.4-.56-.1.21-.17.45-.4.56Z"></path><path class="cls-1" d="M40.38,36.67c.03-.07.05-.13.08-.2.09.18.29.11.42.21-.17.19-.34.12-.5-.01Z"></path><path class="cls-1" d="M10.09,32.6c.18-.02.36-.24.54,0-.18-.03-.36.17-.54,0Z"></path><path class="cls-1" d="M42.95,37.06s-.08-.05-.12-.08c-.05-.05-.09-.11-.14-.16.13-.1.26-.09.39-.03-.05.09-.09.18-.14.27Z"></path><path class="cls-1" d="M4.39,28.83c-.19.03-.37.07-.56.1.16-.19.32-.34.56-.1Z"></path><path class="cls-1" d="M99.01,43.76c.21-.17.39.13.6.04-.22.37-.4-.05-.6-.04Z"></path><path class="cls-1" d="M63.11,37.83c-.11.51-.27.05-.41.02.14,0,.28-.01.41-.02Z"></path><path class="cls-1" d="M42.59,26.2c-.05.12-.08.25-.14.36-.11.2-.14.09-.15-.05.1-.1.07-.33.29-.31Z"></path><path class="cls-1" d="M62.7,37.85c-.21.07-.42.15-.55-.13.18.04.37.09.55.13Z"></path><path class="cls-1" d="M80.17,1.81c.03.21-.06.29-.26.25-.05-.23.02-.33.26-.25Z"></path><path class="cls-1" d="M113.36,20.28c-.15.06-.3.12-.45.18.07-.26.25-.25.45-.18Z"></path><path class="cls-1" d="M78.56,2.8c-.01.19-.04.37-.3.35.1-.12.14-.29.3-.35Z"></path><path class="cls-1" d="M48.77,20.98c-.09.18-.21.31-.43.3.07-.2.27-.23.43-.3Z"></path><path class="cls-1" d="M84.7,14.21c.1-.14.11-.39.39-.3-.14.08-.18.31-.39.3Z"></path><path class="cls-1" d="M62.03,61.47s-.08-.03-.11-.05c-.07-.04-.14-.08-.2-.12.31-.33.26.02.32.17Z"></path><path class="cls-1" d="M66.02,9.65c-.1.26-.26.28-.47.14.16-.05.31-.09.47-.14Z"></path><path class="cls-1" d="M62.18,11.03c-.07.15-.13.31-.35.22.09-.12.18-.24.35-.22Z"></path><path class="cls-1" d="M61.03,46.18c-.47-1.43-1.07-2.79-1.94-4.02.17.08.22,0,.21-.15.36-.3.67.16,1.02.08,0,0-.08.14-.14.2-.01.02-.02.04-.03.05-.04.12.03.21.08.31.7.92,1,2.01,1.37,3.08.07.19.14.41-.11.55-.17.04-.3-.1-.47-.1Z"></path><path class="cls-1" d="M41.2,33.94c-.05.1-.1.2-.15.31-.15.14-.31.1-.47.01-.17-.09-.34-.16-.53-.11-.24.05-.46.02-.69-.06-.26-.02-.51,0-.77-.05-.21,0-.41-.03-.58-.15-.13-.13-.27-.08-.41-.03-.08,0-.15-.01-.22-.04-.1-.06-.2-.11-.33-.07-.07.02-.14.04-.22.05-.31-.04-.25-.21-.1-.37.11-.12.28-.16.43-.23.07-.03.15-.06.22-.07.25-.04.5-.02.75-.03.12,0,.24.03.37.03.07,0,.15,0,.22.01.17.03.33.11.5.04.65-.03,1.27.07,1.85.39.11.1.09.24.12.37Z"></path><path class="cls-1" d="M38.74,31.25c.5.04.97.47,1.52.06.09-.07.37.08.55.16.59.23,1.19.1,1.79.12.11-.06.22-.08.34-.03.17.06.46-.06.44.29-.07-.02-.16-.07-.2.01-.3.51-.49.32-.62-.11-.29.3-.83.33-1.15.08-.19-.15-.39-.12-.59.01-.24.16-.48.48-.69-.08-.11-.3-.5.04-.76-.17-.24-.2-.32.02-.48.26-.16.23-.69.17-1-.05-.18-.13-.36-.18-.55-.24-.06-.56.37-.26.58-.34.29-.15.55.06.83.05Z"></path><path class="cls-1" d="M14.6,32.16c.89-.02,1.76.1,2.63.23.64.09,1.19-.11,1.76-.35.1.14.2.28.3.42-.17.3-.48.32-.77.39-.17.04-.38-.06-.52.12-.27.04-.51.46-.81.07.01-.03.02-.06,0-.09-.03.01-.05.03-.07.06-.1,0-.2-.02-.3-.03-.06-.25-.35-.11-.47-.26-.19-.08-.39.1-.58-.04-.16-.09-.35,0-.52-.06-.3.23-.46-.37-.73-.08-.17-.22.43-.14.07-.38Z"></path><path class="cls-1" d="M37.24,33.27c-.16.09-.34.15-.47.27-.14.12-.04.18.1.18.05.11.01.18-.1.21-.44.21-.89.35-1.33-.01-.07.02-.11,0-.12-.08.24.05.21-.63.58-.21.05.05.1.12.18.08.06-.03,0-.09,0-.14-.08-.17-.09-.39-.35-.42-.07-.13-.28-.08-.33-.25.21-.12.4.09.6.03.12.08.26.08.4.08.23.03.46-.05.68.08.07.04.13.1.14.19Z"></path><path class="cls-1" d="M24.02,32.74c0-.09-.02-.19-.02-.24.65-.06,1.05.54,1.65.63-.11.36-.58.16-.72.47-.2-.18-.41-.35-.58-.56-.08-.1-.16-.14-.28-.15-.11-.02-.12-.07-.05-.15Z"></path><path class="cls-1" d="M22.96,32.59c.05,0,.14,0,.16-.03.35-.46.52-.24.65.17.05.15-.18.16-.14.31-.34.09-.65.08-.92-.18.04-.12.11-.22.25-.26Z"></path><path class="cls-1" d="M45.78,31.52s.06.05.09.08c.01.26-.12.53-.36.45-.44-.16-.94-.03-1.35-.3-.05-.07-.03-.1.05-.09.35-.02.7-.09,1.03.07.11.05.17-.02.21-.11.08-.11.21-.07.31-.09Z"></path><path class="cls-1" d="M43.44,34.51c-.56-.21-.45-.59-.26-1-.01-.12-.1-.2-.12-.32.25.02.52-.1.77.04-.03.12-.13.1-.21.13-.13.37-.56.7-.18,1.15Z"></path><path class="cls-1" d="M59.97,39.09c-.39.16-.72.15-1.05.06-.18-.05-.35-.12-.28-.33.09-.25.22.01.33.02.32.03.66-.04.99.25Z"></path><path class="cls-1" d="M62.52,39.72s-.1.07-.14.06c-.28-.11-.55.02-.83-.01-.16-.02-.27-.08-.22-.24.05-.16.19-.08.28-.03.24.13.48-.03.72.02.11.02.23.04.19.21Z"></path><path class="cls-1" d="M22.62,32.8c-.3-.23-.61.31-.91,0q.51-.45.99-.2c.03.09,0,.16-.08.21Z"></path><path class="cls-1" d="M65.68,38.94c.08.03.16.07.23.1l-.02.03c.07.08.12.16,0,.25-.33.08-.65.07-.95-.09,0-.03-.01-.05-.02-.08.02-.18.2-.15.29-.24.16-.09.29.28.46.03Z"></path><path class="cls-1" d="M51.36,37.63c-.14.13-.31-.09-.41.01-.19.18-.21,0-.26-.11-.04-.09-.18-.2-.06-.29.07-.06.22-.06.32-.04.14.03.27.11.41.17.07.08-.02.17,0,.25Z"></path><path class="cls-1" d="M72.4,40.47c-.39-.08-.79-.15-1.19-.23,0-.05.01-.1.02-.15.43-.1.84.22,1.27.17.03.1,0,.17-.1.2Z"></path><path class="cls-1" d="M35.6,30.96c.26.32.51-.1.76-.02.07.13.16.26-.07.33-.12-.03-.2,0-.28.1-.15.17-.32.03-.44-.04-.21-.12.03-.24.03-.37Z"></path><path class="cls-1" d="M37.94,31.32c-.16.2-.56-.3-.61.22-.27.04-.52.03-.65-.26.02-.05.06-.08.11-.1.23-.03.44-.16.68-.18.2.04.39.11.47.32Z"></path><path class="cls-1" d="M47.25,31.59c.07.04.14.08.21.12-.06.09-.16.27-.22.21-.26-.28-.58-.02-.85-.12.19-.46.58-.11.86-.21Z"></path><path class="cls-1" d="M54.03,38.14c-.45.06-.68-.09-.75-.48.36-.04.5.23.75.48Z"></path><path class="cls-1" d="M34.05,33.35c-.32.29-.68.18-1.04.07.3-.09.6-.18.89-.26.01.09.14.1.15.19Z"></path><path class="cls-1" d="M65.9,39.32c0-.08,0-.16,0-.25.29-.06.57-.03.82.14-.22.42-.53.15-.81.11Z"></path><path class="cls-1" d="M40.21,34.48c.32.02.6.51.95.06.09-.06.17.03.25,0-.05.43-.45.34-.63.29-.23-.07-.43.02-.63-.02-.06-.13-.08-.25.06-.34Z"></path><path class="cls-1" d="M36.29,31.27c.02-.11.05-.22.07-.33.3-.29.57-.01.85.04-.05.29-.34.14-.49.26-.02,0-.04.02-.05.03-.13,0-.25,0-.38,0Z"></path><path class="cls-1" d="M54.77,37.81c.43.05.6.35.86.47-.38.09-.62-.09-.86-.47Z"></path><path class="cls-1" d="M35.32,33.82s.08.05.12.08c-.31.04-.64.14-.95-.18.33-.09.59-.15.83.1Z"></path><path class="cls-1" d="M41.41,34.55c-.09.07-.17.02-.25,0-.4-.13-.7-.46-1.13-.53.4-.2.64.33,1.02.23.03.21.31.12.36.31Z"></path><path class="cls-1" d="M57.7,38.59c.26.02.52.05.82.08-.25.47-.52.15-.76.09-.11-.03-.14-.08-.05-.17Z"></path><path class="cls-1" d="M52.76,30.89c.16.16.39,0,.56.14-.25.44-.5.17-.76,0,0-.15.12-.12.2-.15Z"></path><path class="cls-1" d="M76.11,41.08c-.16-.01-.31-.03-.47-.04-.12-.11-.26-.24.02-.28.19-.03.41-.04.54.17-.03.05-.06.1-.09.15Z"></path><path class="cls-1" d="M62.44,38.16c-.13.12-.25.23-.39.36q0-.45.39-.36Z"></path><path class="cls-1" d="M59.23,40.82c.11.25.51.11.58.42-.21.03-.39-.04-.57-.14,0-.21-.31-.19-.3-.41.1.04.19.09.29.13Z"></path><path class="cls-1" d="M38.05,32.92s-.07-.03-.1-.05c.27-.45.61-.06.91-.07-.1.04-.21.07-.31.11-.17.08-.33.13-.5.01Z"></path><path class="cls-1" d="M52.26,37.46c.35,0,.53.07.68.32-.29.05-.45-.05-.68-.32Z"></path><path class="cls-1" d="M52.11,43.06c.12.24.38.42.32.74-.35-.14-.29-.46-.32-.74Z"></path><path class="cls-1" d="M20.88,32.47c.18,0,.36,0,.58.01-.18.4-.48.05-.67.17-.03-.09,0-.15.09-.18Z"></path><path class="cls-1" d="M9.77,31.46c-.08.09-.16.17-.24.26-.28.1-.23-.11-.25-.26.16-.1.32-.08.49,0Z"></path><path class="cls-1" d="M51.36,37.63c0-.08,0-.17,0-.25.15-.03.37-.16.39.1.02.3-.27.05-.38.16Z"></path><path class="cls-1" d="M38.57,34.42c.08-.14.18-.19.29-.04.12.16.32.18.47.28-.3.08-.54-.07-.76-.24Z"></path><path class="cls-1" d="M16.39,32.69c.1.16.61-.29.42.29-.15-.12-.43.09-.5-.21-.03-.08,0-.1.08-.08Z"></path><path class="cls-1" d="M23.62,33.04c-.11-.18.08-.21.14-.31.09-.06.17-.04.26,0,.02.05.03.1.05.15-.02.03-.03.07-.05.1-.03.06-.1.04-.15.05-.08-.03-.17-.06-.25,0Z"></path><path class="cls-1" d="M72.4,40.47c.03-.07.07-.14.1-.2l.46.22c-.25.22-.4.03-.56-.02Z"></path><path class="cls-1" d="M27.13,32.31c.18-.12.31-.22.48-.13.03.02.04.09.05.14-.15,0-.3.13-.53-.01Z"></path><path class="cls-1" d="M6.53,28.87c-.02-.06-.04-.12-.06-.18.1-.03.2-.06.3-.09.1.06.2.11.3.17.03.05.02.08-.04.08-.17,0-.33.01-.5.02Z"></path><path class="cls-1" d="M57.7,38.59c.02.06.04.11.05.17-.02.11.03.27-.17.28-.05,0-.1-.02-.15-.04.08-.14.05-.35.26-.41Z"></path><path class="cls-1" d="M31.56,31.78s.04.1.07.15c-.18.04-.37.18-.6-.03.17-.15.35-.13.53-.12Z"></path><path class="cls-1" d="M34.41,33.14c.12-.09.25-.11.39-.06.02,0,.03.15,0,.21-.1.17-.22.04-.33.01-.06-.04-.04-.1-.05-.16Z"></path><path class="cls-1" d="M34.41,33.14c.02.05.03.1.05.16-.12.11-.26.12-.4.05-.08-.04-.15-.09-.15-.19.17.05.34.06.5-.01Z"></path><path class="cls-1" d="M63.81,39.71c-.2.18-.35.15-.53.09.14-.15.29-.15.53-.09Z"></path><path class="cls-1" d="M15.26,32.62c.17-.15.34-.1.52,0,.03.06.01.1-.06.11-.15-.06-.36.19-.46-.1Z"></path><path class="cls-1" d="M20.88,32.47l-.09.18c-.09,0-.17,0-.26,0-.02-.15-.15-.16-.25-.23.2.01.4.03.59.04Z"></path><path class="cls-1" d="M32.62,35c-.12-.15-.22-.12-.31.04,0,0-.04,0-.05,0-.01,0-.02-.03-.02-.05.08-.13.11-.34.33-.27.12.04.09.18.06.28Z"></path><path class="cls-1" d="M72.49,39.75l-.18.15c-.13-.01-.3.08-.39-.11.19-.13.38-.09.57-.04Z"></path><path class="cls-1" d="M36.53,32.92c-.07.06-.14.11-.21.17-.16.05-.28.03-.3-.17.17-.07.34-.09.51,0Z"></path><path class="cls-1" d="M37.81,34.18c.16.05.29.21.48.13.09.04.19.08.28.11-.31.1-.59.1-.77-.24Z"></path><path class="cls-1" d="M43.62,33.36c.07-.04.14-.09.21-.13.06.02.13.04.19.06.05.07.1.14.16.21-.22.08-.38-.06-.56-.14Z"></path><path class="cls-1" d="M18.89,29.8s-.1.07-.13.01c-.04-.05-.09-.14-.08-.19.03-.1.12-.06.18-.02.07.05.08.12.03.19Z"></path><path class="cls-1" d="M17.12,33c-.05-.15-.05-.26.16-.2.08.02.22-.03.19.11-.03.14-.2.06-.29.12-.02-.01-.04-.02-.06-.03Z"></path><path class="cls-1" d="M50.96,38.94c-.21.09-.36-.08-.54-.12.03-.07-.05-.26.15-.14.13.08.26.17.4.26Z"></path><path class="cls-1" d="M15.72,32.72l.06-.11c.2.11.43-.09.62.07-.02.03-.05.06-.08.08-.2.03-.41.09-.6-.04Z"></path><path class="cls-1" d="M22.62,32.8c.03-.07.05-.14.08-.21.09-.16.17-.11.26,0-.05.12-.09.25-.25.26-.03-.02-.06-.04-.09-.06Z"></path><path class="cls-1" d="M60.72,39.25c-.16.12-.29.1-.43-.04.18-.15.3-.08.43.04Z"></path><path class="cls-1" d="M70.6,40.27c-.08-.02-.14-.08-.09-.15.03-.04.13-.04.19-.04.08,0,.15.03.12.12-.04.11-.15.06-.23.07Z"></path><path class="cls-1" d="M7.03,28.85s.03-.05.04-.08c.11-.06.23-.12.34-.18.06.37-.13.36-.38.26Z"></path><path class="cls-1" d="M64.79,39.27c-.12-.09-.27-.19-.17-.35.08-.12.13.02.18.09.06.04.08.11.08.18.02.02.04.03.06.04-.05.01-.11.03-.16.04Z"></path><path class="cls-1" d="M41.1,33.63s.05-.04.07-.06c.1.09.2.18.23.32-.06.02-.13.03-.19.05-.13-.07-.16-.17-.1-.31Z"></path><path class="cls-1" d="M35.52,33.17c-.17.15-.37.18-.38-.09,0-.22.12-.04.18,0,.09-.03.16,0,.2.08Z"></path><path class="cls-1" d="M56.52,38.19c.02-.06.1-.02.16,0,.05.02.11.09.1.12-.02.08-.09.12-.17.09-.08-.03-.13-.07-.09-.22Z"></path><path class="cls-1" d="M35.52,33.17c-.07-.03-.13-.06-.2-.08.03-.06.07-.13.1-.19.13.05.28.08.33.25-.08-.04-.16-.04-.23.03Z"></path><path class="cls-1" d="M37.04,33.16l.1-.19c.05-.01.1-.03.15-.04.02.08.05.15.07.23-.04.04-.08.07-.12.11-.07-.04-.14-.07-.2-.11Z"></path><path class="cls-1" d="M58.63,40.3s-.02.07-.05.09c-.19.3-.23-.05-.34-.11l.39.02Z"></path><path class="cls-1" d="M8,30.21c-.23.22-.42.04-.61-.08.21-.06.41.04.61.08Z"></path><path class="cls-1" d="M53.74,36.48c.01-.06.05-.1.1-.07.07.05.13.12.19.18-.04.02-.08.05-.13.05-.11,0-.16-.06-.16-.16Z"></path><path class="cls-1" d="M48.25,36.46c-.06.04-.13.12-.22.04-.03-.03-.05-.11-.04-.14.06-.1.15-.06.23-.03.06.02.07.07.02.13Z"></path><path class="cls-1" d="M17.78,29.53c.07.03.13.06.2.09.02.06.03.12.05.18-.08,0-.17.01-.25.02-.07-.1-.04-.2,0-.29Z"></path><path class="cls-1" d="M66.71,39.21c.05-.02.11-.05.16-.07.16.06.37.05.35.31-.17-.08-.34-.16-.51-.24Z"></path><path class="cls-1" d="M21.23,31.33c.07,0,.13,0,.16.02.03.03.03.09.05.14-.05,0-.11.03-.14.01-.04-.03-.04-.09-.07-.17Z"></path><path class="cls-1" d="M41.65,34.04c.12.1.35.07.37.3-.15-.06-.4,0-.37-.3Z"></path><path class="cls-1" d="M23.88,33.04s.1-.04.15-.05c.06.09.17.21.02.27-.17.06-.08-.16-.17-.21Z"></path><path class="cls-1" d="M74.3,17.97c-.57.14-.89.76-1.51.8.3-.55,1.07-.96,1.51-.8Z"></path><path class="cls-1" d="M67.87,19.98c.17-.27.43-.36.73-.39.13-.02.24,0,.3.13-.33.13-.55.71-1.03.27Z"></path><path class="cls-1" d="M87.7,9.32s-.05,0-.07-.03c.06-.16.16-.33.34-.3.23.04.3-.03.32-.24,0-.12.06-.24.2-.17.07.04.27.13.05.27-.12.08.13.36-.17.38-.14.05-.25.15-.4.19-.11.02-.17-.1-.27-.1Z"></path><path class="cls-1" d="M51.7,25.84c.05-.11.06-.31.22-.27.48.11.74-.21,1.04-.48.07.5-.28.62-.64.61-.23,0-.41.08-.61.14Z"></path><path class="cls-1" d="M54.11,24.75c0-.39.31-.08.47-.19.3-.19.69-.24,1.04-.35-.38.53-.98.45-1.52.54Z"></path><path class="cls-1" d="M86.11,8.75c.13-.37.35-.57.77-.48-.08.44-.52.31-.77.48Z"></path><path class="cls-1" d="M64.31,21.15c.07-.4.31-.48.66-.32-.17.21-.31.48-.66.32Z"></path><path class="cls-1" d="M82.64,10.71c.19-.31.55-.39.8-.62-.05.48-.4.59-.8.62Z"></path><path class="cls-1" d="M81.55,12.96c-.29.12-.44.39-.66.58-.02-.47.16-.71.66-.58Z"></path><path class="cls-1" d="M73.4,16.8c.31-.18.42-.64.88-.62-.26.24-.46.59-.88.62Z"></path><path class="cls-1" d="M76.42,16.26c-.14.2-.24.44-.51.49-.05.03-.11.02-.16,0,.08-.36.3-.53.67-.49Z"></path><path class="cls-1" d="M55.69,25.39c-.1.34-.37.34-.66.32.16-.22.3-.49.66-.32Z"></path><path class="cls-1" d="M42,30.07c-.21.23-.42.48-.79.26.3.04.4-.54.79-.26Z"></path><path class="cls-1" d="M84.12,11.55c.19.55-.18.34-.41.31.14-.1.28-.2.41-.31Z"></path><path class="cls-1" d="M78.06,13.39c0-.08.27-.06.08-.21-.05-.04-.17-.05-.08-.14.04-.04.13-.03.2-.04.08.21.26.47-.2.39Z"></path><path class="cls-1" d="M90.09,4.51c-.03.12-.06.24-.08.36-.03-.02-.06-.04-.09-.06-.02-.11-.05-.21-.06-.32,0-.08.02-.16.1-.17.13,0,.14.09.14.19Z"></path><path class="cls-1" d="M87.72,7.76c.1-.15.23-.26.41-.29-.05.22-.1.44-.41.29Z"></path><path class="cls-1" d="M43.97,28.47c.08-.14.2-.21.36-.17-.08.15-.16.29-.36.17Z"></path><path class="cls-1" d="M49.79,27.67c-.15.06-.3.12-.45.18.09-.19.23-.28.45-.18Z"></path><path class="cls-1" d="M76.81,16.18c-.12.08-.25.1-.39.08.07-.32.22-.24.39-.08Z"></path><path class="cls-1" d="M105.85,24.53c-.12.15-.29.15-.45.17.1-.19.26-.22.45-.17Z"></path><path class="cls-1" d="M68.62,66.56c.41-.12.31.34.5.49.2.15.39.37.59.57-.44-.03-1.04-.61-1.09-1.05Z"></path><path class="cls-1" d="M63.99,61.06c.01-.09-.05-.18.07-.28.23.34.47.68.7,1.03-.4-.1-.62-.38-.77-.74Z"></path><path class="cls-1" d="M62.15,59.65c.38-.07.67,0,.66.47-.45.16-.52-.21-.66-.47Z"></path><path class="cls-1" d="M60.93,58.54c.23-.07.29.14.33.27.07.2.19.3.38.33-.24.16-.48-.15-.68,0-.3-.08.48-.35-.11-.36-.07-.11-.02-.18.08-.24Z"></path><path class="cls-1" d="M69.69,67.73c.08.31.4.46.51.75-.45-.06-.6-.32-.51-.75Z"></path><path class="cls-1" d="M60.07,58c.16.19.61-.08.6.38,0,.05,0,.08-.06.1-.15-.19-.58-.07-.54-.48Z"></path><path class="cls-1" d="M75.59,75.76c.26.16.62.27.43.7-.22-.18-.3-.46-.43-.7Z"></path><path class="cls-1" d="M70.2,68.48c.07.15.44.13.2.45-.14.18.14.15.21.23-.69.1-.27-.45-.4-.68Z"></path><path class="cls-1" d="M73.24,72.59c.16.18.42.27.52.52-.18-.08-.36-.17-.54-.24-.39-.13.01-.19.02-.28Z"></path><path class="cls-1" d="M71.58,70.53c.05-.02.1-.03.16-.05.14,0,.12.12.16.2-.04.13.2.16.11.31-.32,0-.44-.16-.43-.46Z"></path><path class="cls-1" d="M65.48,62.4c.05.15.11.3.16.45-.27-.08-.56-.15-.16-.45Z"></path><path class="cls-1" d="M76.16,76.66c.05.13.28.16.21.36-.12-.15-.26.18-.35,0-.08-.14,0-.28.14-.37Z"></path><path class="cls-1" d="M70.97,69.73c.13.15.35.24.28.5-.15-.13-.32-.26-.28-.5Z"></path><path class="cls-1" d="M71.25,70.23c.2,0,.22.2.33.31-.29.09-.3-.12-.33-.31Z"></path><path class="cls-1" d="M70.84,69.2c.12.16.15.34.13.54-.25-.13-.17-.34-.13-.54Z"></path><path class="cls-1" d="M64.94,62.24c.09.11.2.12.32.05-.02.11-.04.24-.19.21-.11-.03-.18-.12-.14-.26Z"></path><path class="cls-1" d="M60.61,58.48s.04-.07.06-.1c.09.05.18.11.27.16-.03.08-.05.16-.08.24-.22.02-.1-.25-.25-.3Z"></path><path class="cls-1" d="M116.17,41.78c.22-.15.45-.25.69-.03-.21.51-.46-.08-.69.03Z"></path><path class="cls-1" d="M76.02,52.95c-.47.16-.6-.35-.76-.53-.36-.39-.83-.64-1.19-1.02-.1-.11-.19-.17-.09-.31.61.14.8.79,1.32,1.04.33.17.47.54.71.82Z"></path><path class="cls-1" d="M68.97,46.98c-.66-.28-1.21-.79-1.93-.93.8-.02,1.46.27,1.93.93Z"></path><path class="cls-1" d="M64.5,44.79c-.33.01-.52-.19-.69-.43.32,0,.69-.08.69.43Z"></path><path class="cls-1" d="M69.68,47.58c-.41,0-.56-.29-.71-.6.34.07.58.28.71.6Z"></path><path class="cls-1" d="M62.58,43.52c-.12-.11-.28-.1-.43-.13-.01-.21-.33-.19-.32-.5.35.12.59.32.75.63Z"></path><path class="cls-1" d="M60.19,42.3c.16.1.32.19.51.21.41.03.15.21.08.35-.15-.04-.28-.11-.4-.2h0c-.01-.15-.36-.09-.22-.34h.03Z"></path><path class="cls-1" d="M87.76,64.73c-.08-.17-.17-.34-.25-.51.55-.06.34.26.25.51Z"></path><path class="cls-1" d="M69.8,45.77c.11.05.22.11.33.16-.05.11-.13.19-.25.13-.11-.06-.12-.17-.08-.29Z"></path><path class="cls-1" d="M104.41,35.08c-.37.08-.72.23-1.1.22-.15-.02-.15-.09-.08-.2.36-.22.78-.19,1.16-.3-.04.1-.04.2.03.29Z"></path><path class="cls-1" d="M157.49,12.99c0-.13.15-.24.04-.37.1-.04.2-.08.3-.11.09.31-.21.33-.34.49Z"></path><path class="cls-1" d="M157.04,14.39c-.06-.03-.13-.06-.19-.08.14-.09.18-.29.37-.32-.06.13-.12.27-.18.4Z"></path><path class="cls-1" d="M78.85,75.48c.5,1.5,1.32,2.84,2.04,4.23.27.52.66.99.82,1.56-.2.02-.35-.66-.6-.05-.02-.05-.04-.09-.07-.14-.01-.14-.14-.23-.18-.36-.52-.93-1.14-1.81-1.53-2.79-.36-.9-1.02-1.71-1.02-2.76,0-.15-.14-.29-.22-.44.01-.2-.01-.44.32-.37.06.03.09.07.06.13-.1.21-.03.36.17.46h0c-.1.23.1.35.21.51Z"></path><path class="cls-1" d="M91.06,91.27c-.03-.75-.01-1.5.08-2.24.27.51.06,1.05.13,1.57-.07.22-.14.45-.21.67Z"></path><path class="cls-1" d="M90.17,92.34c.24.32-.07.47-.23.62-.26.25-.41-.09-.61-.17.04-.18.31-.11.35-.3.18,0,.34-.05.49-.16Z"></path><path class="cls-1" d="M83.22,86.8c.16.06.39-.07.45.16.02.08-.06.13-.14.15-.24.05-.24-.16-.31-.31Z"></path><path class="cls-1" d="M86.13,89.75c.31.11.6.26.73.59-.32-.1-.59-.26-.73-.59Z"></path><path class="cls-1" d="M89.68,92.49c.02.25-.2.24-.35.3-.07-.05-.21-.11-.2-.15.02-.12.13-.1.22-.06.24.1.19-.06.18-.19.05.04.1.07.15.11Z"></path><path class="cls-1" d="M86.16,90.5c-.12,0-.22-.16-.35-.05-.07-.1-.2-.22-.09-.32.17-.16.16.08.24.14.08.07.19.1.2.23Z"></path><path class="cls-1" d="M82.59,85.13c-.12-.17-.22-.35-.13-.56.19.16.24.34.13.56Z"></path><path class="cls-1" d="M88.56,74.95c-.04-.24-.08-.48-.12-.72.22.21.5.41.12.72Z"></path><path class="cls-1" d="M84.98,1.28c-.25.03-.5.17-.76.01.25-.16.5-.18.76-.01Z"></path><path class="cls-1" d="M88.44,1.06c-.17.12-.33.15-.44-.07.15,0,.31-.03.44.07Z"></path><path class="cls-1" d="M39.74,29.45c-.27.11-.54.23-.8.34-.02-.16-.27-.22-.16-.43.16-.3.22.14.38.04.18-.11.39-.06.58.05Z"></path><path class="cls-1" d="M85.95,38.54c-.89.45-1.88.42-2.83.6-.2-.01-.4-.03-.61-.04-.04-.03-.08-.05-.12-.08,1.2-.21,2.41-.41,3.61-.62.02.06,0,.1-.05.13Z"></path><path class="cls-1" d="M78.91,38.49c-.05.1-.1.19-.14.29-.14.07-.28.06-.42-.05.2-.08.38-.16.57-.24Z"></path><path class="cls-1" d="M74.09,22.02c.12-.07.24-.14.36-.21-.08.18-.17.36-.15.56-.16-.06-.14-.23-.21-.35Z"></path><path class="cls-1" d="M77.39,19.6c.1-.17.13-.4.36-.45-.11.16-.1.42-.36.45Z"></path><path class="cls-1" d="M46.48,23.43c-.16.21-.35.39-.61.48.04-.12.09-.23.13-.35.17-.01.28-.21.47-.14Z"></path><path class="cls-1" d="M45.88,23.91c-.18.08-.14.37-.37.41.12-.14.08-.42.37-.41Z"></path><path class="cls-1" d="M64.89,39.19c-.06-.04-.1-.1-.08-.18.14-.03.28-.07.42-.1-.11.09-.22.19-.34.28Z"></path><path class="cls-1" d="M67.78,56.1c1.03,1.51,2.02,3.04,3.16,4.47.77.96,1.52,1.94,2.11,3.04.09.16.31.3.17.54-.03.23.28.11.3.29.02.06.05.11.07.17-.01.18-.04.35-.23.43-.47-.91-1.06-1.75-1.68-2.57-.52-.69-.99-1.42-1.51-2.11-1.06-1.39-2.09-2.8-2.98-4.31.22-.34.4-.15.58.04Z"></path><path class="cls-1" d="M67.78,56.1c-.19-.09-.37-.22-.58-.04-.38-.74-.75-1.49-1.13-2.23-.58-1.11-1.54-1.92-2.24-2.94-.11-.16-.37-.14-.36-.38,0-.08.02-.17.05-.25.06-.11.16-.16.28-.18.08.02.16.05.19.14h0c.12.06-.23.23.07.23.16,0,.18.16.23.27.3.33.64.64.9,1,.68.92,1.39,1.83,1.92,2.85.25.49.46,1.01.68,1.52Z"></path><path class="cls-1" d="M76.1,69.59c.6.78,1,1.68,1.41,2.57-.19.11-.36-.01-.53-.07-.46-.94-.92-1.88-1.54-2.73-.02-.03.02-.1.04-.16.04-.03.09-.05.14-.04.23.07.41.18.48.43Z"></path><path class="cls-1" d="M76.98,72.09c.2-.13.35.03.53.07.3.74.6,1.48.9,2.22-.21.03-.23.23-.32.37-.37-.89-.74-1.77-1.11-2.66Z"></path><path class="cls-1" d="M63.78,50.12c-.07.05-.13.1-.2.15-.13-.02-.24-.07-.34-.15-.23-.36-.62-.62-.71-1.08-.03-.2-.21-.28-.31-.42h0c.01-.11.04-.23-.09-.29l-.23-.29c.25-.42.41-.02.6.07.4.49.72,1.02.99,1.59.04.18.3.21.29.43Z"></path><path class="cls-1" d="M74.24,65.91c.25.74.61,1.43.97,2.12-.13.12-.28.03-.42.07-.47-.64-.88-1.3-1.01-2.1,0-.11.03-.19.12-.25.15,0,.25.07.34.17Z"></path><path class="cls-1" d="M62.51,48.11c-.21.06-.37-.33-.6-.07-.15-.31-.29-.61-.44-.92,0-.21-.25-.31-.25-.52-.06-.14-.13-.28-.19-.42.2-.15.36.02.53.06.48.54.57,1.27.95,1.86Z"></path><path class="cls-1" d="M74.79,68.1c.12-.12.27-.13.42-.07.24.06.14.34.29.46.05.18.1.35.29.43h0c.01.18-.1.25-.26.26h-.05s-.06,0-.07-.04c-.22-.14-.25-.43-.44-.6-.06-.15-.13-.3-.19-.45Z"></path><path class="cls-1" d="M73.92,65.76c-.05.08-.09.16-.14.24-.02-.03-.04-.06-.07-.09-.09-.09-.13-.21-.19-.33.06-.21-.36-.28-.16-.53.03-.17.05-.34.23-.43.37.13,0,.56.29.72-.02.14.31.26.04.42Z"></path><path class="cls-1" d="M74.98,68.55c.45-.03.22.45.44.6-.29-.1-.37-.34-.44-.6Z"></path><path class="cls-1" d="M61.22,46.6c.08.18.38.25.25.52-.2-.12-.34-.26-.25-.52Z"></path><path class="cls-1" d="M62.22,48.62c.2.07.37.16.31.42-.15-.11-.31-.21-.31-.42Z"></path><path class="cls-1" d="M73.53,65.57c.13.07.2.18.19.33-.27,0-.18-.19-.19-.33Z"></path><path class="cls-1" d="M80.86,80.73c.15.08.28.15.18.36-.25-.02-.21-.19-.18-.36Z"></path><path class="cls-1" d="M63.24,50.12c.14-.02.26.02.34.15-.04.07-.08.15-.12.22-.07-.12-.14-.25-.21-.37Z"></path><path class="cls-1" d="M62.13,48.33c.24,0,.25,0,.09.3l-.09-.3Z"></path><path class="cls-1" d="M87.98,9.39c0,.05,0,.1,0,.15-.17.02-.29-.02-.29-.23.13-.1.19.04.28.08Z"></path><path class="cls-1" d="M10.08,31.6c-.06-.03-.13-.06-.19-.09.12-.22.34-.17.55-.2,0,.28-.3.13-.35.3Z"></path><path class="cls-1" d="M45.78,31.52c-.1.04-.18.14-.31.09-.07-.03-.16-.1-.11-.15.15-.15.29-.04.42.06Z"></path><path class="cls-1" d="M37.95,33.82c-.13.03-.24.15-.4.1v-.04s.02-.04.02-.04c.11-.18.23-.32.42-.08-.02.02-.04.04-.05.06Z"></path><path class="cls-1" d="M37.43,33.76c-.13-.03-.25-.07-.38-.1.2-.26.27.01.38.1Z"></path><path class="cls-1" d="M103.23,35.1c.03.07.06.13.08.2-.63.17-1.25.37-1.9.44-.12,0-.1-.06-.06-.13.6-.25,1.22-.44,1.87-.5Z"></path><path class="cls-1" d="M89.44,38.08c-.56.15-1.13.15-1.7.2-.14-.02-.15-.09-.08-.2.57-.04,1.13-.23,1.72-.15.05.04.07.09.06.15Z"></path><path class="cls-1" d="M99.95,36.12c-.47.22-.95.39-1.47.46-.12,0-.09-.05-.06-.12.49-.17.94-.45,1.48-.45.06.02.07.05.05.11Z"></path><path class="cls-1" d="M87.66,38.08l.08.2c-.34.23-.76.06-1.12.21-.13-.03-.16-.1-.07-.2.35-.16.74-.16,1.11-.2Z"></path><path class="cls-1" d="M97.2,36.95c-.31.27-.71.28-1.09.36-.06-.04-.07-.1-.06-.16.37-.12.73-.35,1.15-.2Z"></path><path class="cls-1" d="M101.36,35.6s.04.09.06.13c-.26.15-.54.2-.83.25-.16,0-.13-.09-.09-.18.28-.11.55-.24.86-.2Z"></path><path class="cls-1" d="M89.44,38.08c-.02-.05-.04-.1-.06-.15l.74-.04c.12.01.12.08.07.17-.25,0-.5.02-.76.03Z"></path><path class="cls-1" d="M90.19,38.06c-.02-.06-.05-.11-.07-.17.21-.1.43-.06.65-.06.16,0,.14.09.08.19-.22.07-.44.07-.66.04Z"></path><path class="cls-1" d="M86.55,38.28c.02.07.05.14.07.2-.22.12-.44.15-.68.06l.05-.13c.17-.09.36-.13.55-.13Z"></path><path class="cls-1" d="M100.5,35.8c.03.06.06.12.09.18-.2.08-.39.22-.63.14-.02-.04-.03-.07-.05-.11.17-.14.37-.2.6-.21Z"></path><path class="cls-1" d="M92.72,37.8c-.18.07-.36.12-.55.08-.06-.06-.16-.08-.16-.19.22-.01.44-.03.67-.04.12.02.13.07.05.16Z"></path><path class="cls-1" d="M90.85,38.02c-.03-.06-.05-.13-.08-.19.19-.02.39-.04.58-.06.05.06.12.09.14.17-.21.03-.43.05-.64.08Z"></path><path class="cls-1" d="M97.93,36.67c-.14.28-.37.32-.64.27.11-.34.39-.27.64-.27Z"></path><path class="cls-1" d="M95.71,37.37c-.19.06-.38.13-.58.08-.1-.02-.11-.06-.04-.14.17-.13.36-.09.56-.09.03.05.09.08.06.15Z"></path><path class="cls-1" d="M92,37.68c.05.06.11.12.16.19-.17,0-.34.01-.51.02-.06-.07-.07-.13-.02-.21.12,0,.24-.08.36,0Z"></path><path class="cls-1" d="M98.42,36.46s.04.08.06.12c-.17.16-.35.2-.57.11.13-.16.27-.29.51-.22Z"></path><path class="cls-1" d="M93.77,37.54c-.16.23-.42.18-.64.21-.06-.05-.09-.11-.07-.18.24-.06.47-.1.72-.02Z"></path><path class="cls-1" d="M94.77,37.55c-.22,0-.45.23-.66-.03.16-.18.38-.13.59-.15.06.04.09.1.08.18Z"></path><path class="cls-1" d="M93.05,37.56c.02.06.05.12.07.18-.13.05-.26.1-.4.05l-.05-.16c.13-.03.26-.05.38-.08Z"></path><path class="cls-1" d="M94.77,37.55c-.03-.06-.05-.12-.08-.18.13-.05.26-.1.4-.06l.04.14c-.1.1-.24.1-.37.1Z"></path><path class="cls-1" d="M95.71,37.37c-.02-.05-.04-.1-.06-.15.13-.02.27-.05.4-.07.02.05.04.11.06.16-.13.02-.26.04-.39.06Z"></path><path class="cls-1" d="M91.65,37.68c0,.07.01.14.02.21-.06.02-.11.03-.17.05-.05-.06-.09-.11-.14-.17.11.02.16-.16.29-.09Z"></path><path class="cls-1" d="M75.52,69.19c.09-.09.17-.18.26-.26.11.22.37.37.32.67-.19-.13-.39-.27-.58-.4Z"></path><path class="cls-1" d="M63.78,50.12c-.15-.11-.29-.22-.29-.43.32.03.44.23.47.52-.06-.03-.13-.06-.19-.09Z"></path><path class="cls-1" d="M64.27,50.72c.03-.24-.66-.05-.29-.49.05.2.44.19.29.49Z"></path><path class="cls-1" d="M73.92,65.76c.09-.15-.08-.28-.04-.42.19.15.24.39.36.58-.11-.05-.22-.1-.32-.15Z"></path><path class="cls-1" d="M78.85,75.48c-.23-.11-.45-.22-.21-.52.07.17.14.34.21.52Z"></path><path class="cls-1" d="M75.79,68.93c-.32,0-.26-.25-.29-.43.13.12.3.22.29.43Z"></path><path class="cls-1" d="M78.64,74.97c-.23-.09-.5-.17-.17-.46-.04.19.13.3.17.46Z"></path><path class="cls-1" d="M73.52,64.44c-.1-.1-.44.06-.3-.29.09.1.27.12.3.29Z"></path></g></g></svg>