<svg xmlns="http://www.w3.org/2000/svg" id="Capa_2" data-name="Capa 2" viewBox="0 0 1099.95 320.91"><defs><style>      .cls-1 {        fill-rule: evenodd;      }      .cls-1, .cls-2 {        fill: #4d4d4d;      }      .cls-3 {        fill: #bcaa9f;      }      .cls-4 {        fill: none;        stroke: #bcaa9f;        stroke-miterlimit: 10;      }    </style></defs><g id="Capa_1-2" data-name="Capa 1"><g><path d="M330.47,267.48h-1.44c-3.84-.16-4.86-.9-5.95-2.59-1.12-1.73-2.11-3.52-3.14-5.5-.7-1.34-1.18-1.73-2.27-1.73h-.48v5.63c0,2.69.19,2.94,2.56,3.46v.51h-9.02v-.51c2.37-.51,2.56-.7,2.56-3.46v-12.89c0-2.69-.19-3.04-2.56-3.42v-.51h8.61c2.62,0,4.22.29,5.54,1.22,1.22.83,1.92,2.14,1.92,3.78,0,3.23-2.46,4.67-4.06,5.34.48.86,2.18,3.81,3.07,5.25,1.22,1.95,1.63,2.59,2.33,3.42.74.86,1.18,1.15,2.43,1.57l-.1.45ZM317.83,256.92c1.54,0,2.66-.13,3.42-.86.9-.83,1.28-1.95,1.28-3.81,0-3.71-1.86-5.06-3.68-5.06-.67,0-1.12.06-1.31.22-.22.16-.35.38-.35,1.02v8.48h.64Z"></path><path d="M346.79,264.08c-1.92,2.72-4.35,3.55-5.5,3.55-4,0-6.37-3.17-6.37-6.66,0-2.3.93-4.26,2.27-5.63,1.44-1.5,3.04-2.02,4.54-2.02,3.04,0,4.99,2.21,5.02,4.74,0,.51-.03.7-.16.74-1.02.19-5.09.48-8.1.61.03,3.94,2.27,5.76,4.48,5.76,1.15,0,2.3-.29,3.52-1.47l.29.38ZM340.84,254.17c-1.18,0-2.11,1.28-2.27,4.32,1.28,0,2.53,0,3.81-.1.48-.03.77-.06.77-.45,0-1.92-.93-3.78-2.3-3.78Z"></path><path d="M365.16,264.21c-1.38,1.89-3.33,3.42-5.28,3.42-4.16,0-6.4-3.26-6.4-6.56,0-2.34,1.12-4.32,3.07-5.79,1.98-1.47,3.9-1.95,5.12-1.95.83,0,1.92.26,2.53.7.38.32.61.54.61.93,0,.74-.8,1.6-1.34,1.6-.13,0-.29-.03-.61-.32-1.22-1.15-2.46-1.57-3.46-1.57-1.22,0-2.43.77-2.43,4.48,0,4.26,2.56,5.98,4.45,5.98,1.34,0,2.34-.29,3.46-1.31l.29.38Z"></path><path d="M383.02,264.08c-1.92,2.72-4.35,3.55-5.5,3.55-4,0-6.37-3.17-6.37-6.66,0-2.3.93-4.26,2.27-5.63,1.44-1.5,3.04-2.02,4.54-2.02,3.04,0,4.99,2.21,5.02,4.74,0,.51-.03.7-.16.74-1.02.19-5.09.48-8.1.61.03,3.94,2.27,5.76,4.48,5.76,1.15,0,2.3-.29,3.52-1.47l.29.38ZM377.06,254.17c-1.18,0-2.11,1.28-2.27,4.32,1.28,0,2.53,0,3.81-.1.48-.03.77-.06.77-.45,0-1.92-.93-3.78-2.3-3.78Z"></path><path d="M389.22,254.45c1.98-.26,3.58-.77,5.34-1.44-.03.8-.06,1.54-.06,2.34.54-.35,1.7-1.06,2.14-1.34.86-.54,1.47-.67,1.95-.67,3.36,0,5.28,3.04,5.28,6.02,0,4.35-3.81,7.42-7.42,8.29-.77,0-1.44-.13-1.95-.32v4.64c0,2.37.22,2.5,2.27,2.91v.51h-7.81v-.51c1.76-.42,1.89-.54,1.89-2.91v-14.18c0-2.3-.19-2.43-1.63-2.91v-.42ZM394.5,265.36c.67.58,1.92.99,2.98.99,2.34,0,2.62-2.56,2.62-5.02,0-4.03-1.73-5.92-3.49-5.92-.86,0-1.44.19-2.11.64v9.31Z"></path><path d="M422.28,264.21c-1.38,1.89-3.33,3.42-5.28,3.42-4.16,0-6.4-3.26-6.4-6.56,0-2.34,1.12-4.32,3.07-5.79,1.98-1.47,3.9-1.95,5.12-1.95.83,0,1.92.26,2.53.7.38.32.61.54.61.93,0,.74-.8,1.6-1.34,1.6-.13,0-.29-.03-.61-.32-1.22-1.15-2.46-1.57-3.46-1.57-1.22,0-2.43.77-2.43,4.48,0,4.26,2.56,5.98,4.45,5.98,1.34,0,2.34-.29,3.46-1.31l.29.38Z"></path><path d="M428.01,267.25v-.51c1.7-.29,1.76-.45,1.76-2.91v-6.46c0-1.86-.1-1.98-1.41-2.43v-.45c1.89-.22,3.62-.61,5.12-1.15-.03.67-.06,2.5-.06,3.74v6.75c0,2.37.16,2.56,1.86,2.91v.51h-7.26ZM431.33,250.58c-1.06,0-1.92-.86-1.92-2.02s.86-2.02,1.95-2.02c1.18,0,2.02.83,2.02,2.02s-.83,2.02-2.05,2.02Z"></path><path d="M456.55,259.38c0,5.73-3.97,8.22-7.71,8.22-4.19,0-7.42-3.07-7.42-7.97,0-5.18,3.39-8.22,7.68-8.22s7.46,3.23,7.46,7.97ZM444.26,259.54c0,3.39,1.95,5.95,4.7,5.95s4.7-2.53,4.7-6.02c0-2.62-1.31-5.95-4.64-5.95s-4.77,3.07-4.77,6.01ZM453.19,245.08l-3.9,4.58h-2.02l2.82-4.58h3.1Z"></path><path d="M464.58,255.96c0-1.6-.03-2.91-.13-4.19h2.5l.16,2.56h.06c.77-1.47,2.56-2.91,5.12-2.91,2.14,0,5.47,1.28,5.47,6.59v9.25h-2.82v-8.93c0-2.5-.93-4.58-3.58-4.58-1.86,0-3.3,1.31-3.78,2.88-.13.35-.19.83-.19,1.31v9.31h-2.82v-11.29Z"></path></g><g><path class="cls-1" d="M105.15,42.93c1.47.32,2.85.97,4.13,1.74.67.4,1.23-.6.6-1.03-1.36-.93-2.79-1.56-4.38-1.99-1.25-.34-2.99-.79-4.16-.1-.23.14-.21.45,0,.59,1.08.68,2.57.51,3.8.79Z"></path><path class="cls-1" d="M99.47,45.77c.81.33,1.75.25,2.61.37,1.04.14,2.08.32,3.11.51.75.14,1.08-.99.32-1.15-1.03-.22-2.05-.44-3.09-.61-.94-.15-2.05-.39-2.96-.05-.47.17-.44.75,0,.93Z"></path><path class="cls-1" d="M125.43,38.88c-.39-.61-.74-1.24-1.02-1.91-.25-.61-.32-1.28-.65-1.85-.15-.26-.59-.29-.73,0-.64,1.36.67,3.25,1.41,4.34.41.61,1.39.05.99-.58Z"></path><path class="cls-1" d="M144.54,43.41c.84-1.02,1.7-2.01,2.63-2.94.57-.57,1.17-1.1,1.82-1.57.47-.34.91-.59,1.21-1.09.14-.24-.05-.51-.3-.53-1.17-.07-2.26,1.07-3.07,1.8-1.16,1.05-2.13,2.29-3.09,3.52-.45.57.33,1.39.81.81Z"></path><path class="cls-1" d="M149.03,45.81c1.86-1.11,3.71-2.28,5.37-3.67.3-.25-.02-.84-.4-.68-2.01.84-3.71,2.21-5.56,3.35-.64.39-.06,1.39.59,1Z"></path><path class="cls-1" d="M156.03,53.22c.85-.04,1.61-.33,2.36-.74.19-.1.3-.32.3-.53,0-.34-.24-.61-.61-.61-.28,0-.58.2-.83.31-.39.18-.79.29-1.22.32-.8.05-.8,1.28,0,1.24Z"></path><path class="cls-1" d="M106.09,157.45c.13.12.26.25.39.38.04.04.09-.02.06-.05-.13-.13-.25-.26-.38-.39-.04-.04-.11.02-.07.07Z"></path><path class="cls-1" d="M156.39,88.21c-5.47-3.62-11.94-5.72-18.59-6.59,0-.07-.03-.14-.05-.2,3.02-3.84,6.57-7.26,9.69-11.02,1.19-1.43,2.45-3.06,3.41-4.83.72-.91,1.35-1.88,1.68-2.9.04-.14-.03-.27-.14-.36.31-.46.66-.91.92-1.4.49,0,.92-.63.49-1.1-5.27-5.62-10.78-10.84-15.34-17.1-.19-.27-.51-.29-.73-.18,0-.02,0-.04-.01-.07-.09-.57-1.07-.44-1.01.14.43,4.16.77,8.38,1.75,12.44-1.17-1.18-2.38-2.34-3.43-3.53-2.08-2.33-4.23-4.85-6.87-6.59.04-.08.09-.16.13-.24.04-.07.04-.14.03-.2.08,0,.16.01.24.01,1.82.08,3.95.25,5.84-.16.05.01.09.05.15.05.33,0,.67-.01,1,0h.02s.05.06.14.13c.44.36,1.23-.12.85-.65-.06-.09-.11-.2-.18-.3.1-.14.07-.31-.04-.42.09-.37-.21-.8-.62-.8-.46,0-.92,0-1.38,0-.21,0-.46.11-.55.31-.05.11-.06.19-.07.28-2.09.04-4.23.3-6.31.22-2.99-.11-5.98-.39-8.97-.39-.31,0-.49.19-.56.42-.08.03-.17.07-.25.14-2.54,2.35-4.51,5.59-6.59,8.33-1.39,1.82-2.77,3.65-4.2,5.44-.36.45-1.32,1.88-1.81,2.27-.33-.01-.66.25-.53.63.04.12.11.22.16.32-.11.1-.17.24-.11.43,1.65,4.88,6.57,9.31,10.06,12.86,2.46,2.5,5.28,5.26,8.38,7.43-3.71-.84-8.38.41-12.59,2.54-5.58-7.27-13.26-13.26-22.88-17.15-22.7-9.19-50.27-2.74-63.2,18.12-.1-.01-.21.01-.29.1-9.69,9.93-11.63,26.33-9.34,39.51,2.68,15.48,11.4,27.97,24.81,36.11,19.08,11.57,44.15,9.41,61.17-3.58,2.23,2,4.66,3.81,7.37,5.34,20.05,11.3,44.2,7.49,57.22-11.67,13.12-19.29,11.44-48.77-8.83-62.18ZM136.37,78.52c-.65.52-1.33,1-2.03,1.46.67-1.45,1.12-3.04,1.51-4.62.7-1.64,1.32-3.34,2.1-4.89.23-.47-.43-.86-.7-.41-.02.03-.04.06-.05.09.82-3.01,1.71-5.97,2.84-8.87.01,0,.02,0,.03,0,.22-.05.32-.18.38-.33,1.32,2.55,2.72,5.06,4.19,7.52-.66.87-1.31,1.73-1.97,2.56-1.54,1.94-3,3.93-4.33,6.01-.74.33-1.36,1-1.98,1.5ZM133.03,79.35c-.16.63-.33,1.26-.5,1.88-.73-.03-1.45-.04-2.18-.04-.27-3.04-.58-6.09-.95-9.11,3.6-2.84,6.17-6.69,8.96-10.3-2.15,4.83-3.49,10.35-4.81,15.55-.21.55-.43,1.1-.6,1.65-.05.16,0,.28.08.37ZM128.26,71.03c0,.15.02.3.02.45-.02.05-.05.1-.06.15-.02-.1-.07-.19-.17-.27-3.66-2.93-6.65-6.48-9.92-9.79,5.56,1.72,12.63,1.38,18.52.36-2.41,3.02-4.55,6.27-7.54,8.77-.29-.29-.89-.21-.86.32ZM129.03,81.21c-.43,0-.86,0-1.3.03-2.62-2.95-4.98-5.68-6.98-9.17-1.62-2.84-3.02-5.79-4.43-8.74,0-.07-.03-.12-.07-.15-.14-.28-.27-.56-.4-.84.34.03.68.04,1.02.08.17.02.29-.03.39-.1,3.13,3.52,6.13,7.44,10.05,10.02.37.24.79-.04.91-.38.02.09.06.17.1.24.13,2.99.12,6.09.71,9.03ZM143.08,73.71c-1.2,1.28-2.42,2.55-3.6,3.83,1.54-2.3,3.2-4.51,4.95-6.69.31-.38.62-.77.95-1.15.06.1.11.19.17.29-.85,1-1.68,2.01-2.53,3.01-.21.25-.12.55.06.72ZM150.08,63.94c-.2.36-.41.72-.61,1.09-.03.05-.04.1-.05.14-.48.65-.94,1.31-1.43,1.91-.52.64-1.05,1.25-1.58,1.88-.06-.1-.11-.19-.16-.29,1.63-1.93,3.29-3.92,4.42-6.12-.16.48-.38.93-.58,1.38ZM150.95,61.7c-.09-.2-.33-.32-.54-.12-1.81,1.7-3.39,3.73-4.94,5.77-1.23-2.16-2.45-4.32-3.7-6.47,3.07.44,6.21.46,9.29.45-.03.13-.09.25-.12.37ZM137.92,43.92c3.75,6.19,9.51,11.11,14.48,16.31-.02.03-.05.05-.07.08-.1-.17-.26-.3-.52-.3-3.57,0-7.09-.11-10.62-.5-.04-.11-.08-.22-.13-.33.32-.02.63-.32.39-.66-.35-.5-.75-.97-1.15-1.44-1.35-4.25-1.77-8.74-2.38-13.15ZM134.14,52.42c1.45,1.63,3.04,3.94,4.88,5.5-.02.1-.01.21.05.32.17.34.35.68.53,1.03-.01.02-.02.05-.04.07-.07,0-.13.04-.19.06-.18-.11-.42-.11-.62.1-.25.27-.49.55-.73.82-6.77,1.02-14.47,1.67-21-.35,1.64-1.85,3.14-3.82,4.62-5.81,1.96-2.63,4.31-5.36,5.99-8.24,2.29,2.06,4.46,4.18,6.52,6.49ZM118.92,44.02c2.91.09,5.81.3,8.72.45-.03.03-.06.06-.09.09-.02-.02-.04-.03-.07-.04-.46-.26-.97.36-.6.74-1.85,1.92-3.33,4.33-4.88,6.46-2.02,2.76-4.11,5.45-6.29,8.08-.09,0-.18.02-.25.06,1-5.31,2.74-10.46,3.46-15.83ZM110.02,55.06c2.52-3.27,4.93-6.63,7.56-9.81-1.03,5.14-2.61,10.16-3.45,15.33,0,.01,0,.03,0,.04,0,.07-.02.13-.04.2-.76,0-1.53.02-2.23.01-1.39-.02-4.62.29-6-.75,1.59-.93,3.61-4.31,4.16-5.03ZM105.77,61.38c.86.4,1.95.49,2.85.59,1.88.19,3.76.19,5.64.26-1.09,2.44-2.1,5.19-2.06,7.74-2.59-2.54-5.09-5.39-6.43-8.59ZM115.31,72.92c-.71-.66-1.46-1.36-2.21-2.07.56-1.53.71-3.24,1.14-4.82.26-.96.57-1.91.91-2.85.21.49.43.98.64,1.47-.24,2.76-.9,5.7-.27,8.36.05.2.35.2.4,0,.55-2.17.54-4.61.48-6.96.14.3.29.59.43.89-.13.02-.24.11-.22.25.16,1.21.15,2.43.15,3.65,0,1.17-.18,2.48.18,3.6-.55-.51-1.09-1.02-1.63-1.51ZM117.29,74.76c.11-.01.21-.07.25-.2.42-1.16.2-2.52.12-3.73-.07-1.02-.24-2.03-.41-3.04.33.7.68,1.39,1.02,2.08-.16.05-.3.16-.31.39-.02.83-.03,1.66-.05,2.48-.02.76-.18,1.61.23,2.29.12.2.42.2.54,0,.36-.59.26-1.26.24-1.93-.02-.67-.03-1.34-.04-2.01.26.5.53.98.79,1.48-.12.08-.21.2-.22.39-.02.9-.03,1.79.03,2.68.03.39.05.9.22,1.31-.82-.72-1.63-1.45-2.41-2.18ZM120.38,77.51c.1,0,.2-.05.26-.16.3-.53,0-1.16-.07-1.72-.07-.53-.09-1.08-.11-1.62.15.26.3.53.46.81-.17.05-.3.2-.3.43.02,1.02.22,2.58,1.03,3.28.16.14.45.1.5-.13.09-.46-.02-.82-.18-1.27-.12-.34-.21-.66-.28-1,.73,1.22,1.58,2.46,2.53,3.54-.24,0-.48.14-.58.37-1.12-.78-2.21-1.64-3.27-2.53ZM95.78,158.37c-.19.11-.38.24-.58.35-.18.11-.37.21-.56.32-12.24,6.92-27.58,8.6-41.71,4.91,0-.09-.05-.18-.15-.24-11.98-6.07-21.31-13.48-28.87-24.72-10.45-15.52-5.67-29.97-2.09-46.64.08-.36-.41-.48-.54-.15-6.07,15.1-7.88,30.49.06,45.1,5.18,9.54,13.89,18.82,23.94,24.06-.96-.4-1.91-.82-2.85-1.28-25.57-12.42-34.13-46.45-20.66-70.43.14.6.99.95,1.34.26,11.13-21.99,34.77-29.63,57.91-23.86,11.17,2.78,21.13,9.29,28.53,18.01-1.03.56-2.03,1.15-2.96,1.78-.13.04-.25.09-.37.13-.24-.35-.57-.66-.88-.97-.35-.35-.83-.11-.97.25-.3-.26-.61-.51-.84-.73-.46-.45-1.09,0-1.06.51-.52-.44-1.03-.9-1.56-1.31-.27-.21-.61-.09-.75.13-.73-.74-1.48-1.45-2.27-2.14-.35-.3-.75.06-.62.42-15.03-12.85-43.57-13.37-57.85.52-12.61,10.41-16.3,24.79-12.87,38.42-.26.03-.51.23-.45.57,3.13,16.6,16.18,33.57,34.27,34.66.24.02.37-.13.44-.3,5.34,1.56,10.97,2.08,16.65,1.38,1.61.91,3.56,1.56,5.29,1.36.21-.03.34-.31.12-.43-.91-.51-1.95-.69-2.95-.94-.26-.06-.5-.17-.75-.25.92-.15,1.85-.34,2.77-.55-.05.17-.02.37.16.46,1.41.74,4.51,1.71,5.51-.18.11-.22-.03-.5-.28-.5-.7,0-1.32.36-2.02.44-.93.1-1.78-.07-2.63-.39.96-.24,1.92-.53,2.89-.84.05.1.13.18.27.23.72.24,1.43.37,2.19.41.88.04,1.46-.2,2.16-.7.17-.12.12-.39-.11-.4-1-.02-2,.05-2.99-.06.43-.18.51-.65.35-.97,1.39-.58,2.72-1.28,4.03-2.04-.64.54-1.28,1.09-1.92,1.62-.36.31.11.91.51.66,4.49-2.9,9.23-6.88,11.87-11.66,5.41-7.35,8.4-16.17,8.91-25.13.08.17.3.27.47.09,1.36-1.43,1.85-3.76,2.49-5.58.19-.54-.64-.75-.85-.24-.67,1.7-1.76,3.51-2.1,5.32.18-3.67-.04-7.36-.7-10.98.08,0,.16-.04.19-.12.48-1.22.55-2.58.75-3.87.05-.3-.41-.43-.46-.13-.21,1.15-.51,2.31-.6,3.49-.35-1.76-.78-3.5-1.33-5.22.48-.86.49-2.14.48-3,0-.04-.01-.06-.02-.09.11-.08.22-.16.33-.24.89,1.86,1.7,3.77,2.46,5.7-.22-.09-.52-.04-.57.23-.28,1.58-1.06,3.35-.74,4.97.04.2.33.22.42.06.74-1.37.91-3.15,1.1-4.69.14.35.26.71.4,1.06-.19-.08-.41-.04-.45.22-.25,1.71-.6,3.41-.8,5.12-.03.24.36.34.45.12.67-1.52.82-3.21,1.03-4.85.26.68.53,1.36.77,2.06.1.28.58.26.55-.07-.36-3.85-1.69-7.42-3.5-10.76,1.58-1.04,3.26-1.88,4.98-2.62,5.53,12.47,3.95,27.38-.15,40.12-1.96,6.1-5.01,11.32-8.83,15.7-.14-.15-.37-.22-.55-.1-1.95,1.27-3.41,3.43-5.07,5.06-1.59,1.56-3.35,2.9-5.22,4.08ZM101.22,91.32c-2.49,2.06-4.75,4.4-6.51,6.98,2.11-3.46,4.63-6.74,7.74-9.04-.46.47-.9.95-1.26,1.41-.18.24-.13.5.02.65ZM40.89,144.56c2.22,2.06,4.67,3.89,7.28,5.47,1.24.84,2.51,1.61,3.81,2.32-4.82-1.97-9.18-4.5-13.29-8.57-3.97-3.93-6.79-8.76-8.88-13.89,2.62,5.29,6.35,10.29,11.07,14.68ZM35.8,88.32c.06.03.13.05.19.06-8.85,11.53-11.42,25.11-5.98,38.91-5.46-12.91-3.82-27.63,5.79-38.97ZM49.72,148.88c-4.77-3.18-9.14-7.42-13.08-12.67-14.47-19.28-8.01-39.94,8.17-55.39.19-.18.21-.38.15-.56,16.23-10.64,42.44-7.14,54.97,6.79.45.5.85,1.03,1.26,1.56-5.61,4.27-9.31,11.84-12.27,17.65-5.14,10.08-5.64,23.97.24,33.84,1.16,3.02,2.68,5.9,4.49,8.6-.29.22-.58.45-.86.68-12.46,8.46-29.6,7.11-43.07-.51ZM98.24,141.95c-.1.07-.18.18-.19.36,0,.64.01,1.55.31,2.24-.07.07-.13.14-.19.2-.07-.4-.17-.8-.24-1.17-.18-1.05-.35-2.11-.49-3.16.24.52.53,1.02.79,1.54ZM106.83,98.67c4.94,13.33,2.71,29.46-4.78,41.17-.46.71-.94,1.39-1.43,2.05-7.18-13.82-3.43-31.31,6.21-43.23ZM116.19,93.27c15.36-6.2,35.32-.88,43.85,13.62,7.99,13.59,4.5,31.87-6.37,42.72-12.4,12.37-33.75,12.54-46.41,1.06,2.99-3.3,5.57-7.04,7.58-11.21,7.65-15.83,7.65-32.4,1.35-46.19ZM166.35,146.02c-11.28,21.61-34.87,25.34-55.86,15.83-3.33-1.51-6.31-3.49-8.98-5.81.33-.26.65-.55.97-.82.17.9.59,1.82,1.43,2.03.22.05.41-.1.42-.32.06-.89-.7-1.63-.93-2.5.16-.14.3-.28.45-.42.35,1.11.9,2.67,1.98,2.74.12,0,.24-.09.27-.21.03-.12.03-.22.02-.32,1,1.19,2.06,2.29,3.37,3.25.15.11.33-.13.2-.25-1.08-.99-2.1-2.09-3.09-3.22.21.19.42.39.66.52.18.1.37,0,.45-.15.02.05.02.11.07.15,1.37,1.22,2.77,2.42,4.22,3.54,1.26.97,2.85,2.42,4.48,2.6.18.02.32-.23.21-.37-.77-1.06-2.14-1.68-3.22-2.41-1.78-1.21-3.52-2.5-5.19-3.86-.21-.18-.46-.05-.56.13-.35-1.36-1.43-2.51-2.18-3.72.08-.08.16-.15.24-.23,1.68,1.61,3.49,3.12,5.51,4.42.39.25.8-.31.49-.63-.25-.26-.49-.51-.75-.77,2.39,1.5,4.95,2.67,7.61,3.5-.16.1-.25.3-.08.46,1.96,1.85,5.13,3.46,7.9,3.1.21-.03.38-.34.12-.46-2.51-1.15-5.25-1.05-7.43-2.96,1.81.54,3.67.91,5.55,1.14.02.02.02.04.04.05,1.88,1.13,4.1,2.45,6.33,2.61.26.02.31-.33.13-.46-1.35-.88-2.93-1.38-4.43-2.01,2.11.15,4.24.08,6.36-.14-.02.13.03.27.18.33,2.02.8,4.52,1.31,6.65.66.17-.05.17-.28,0-.33-1.95-.6-4.02-.24-5.99-.74,4.49-.57,8.92-1.96,13.01-4.13,2.07.34,4.05-.02,5.69-1.41.09-.07,0-.23-.11-.19-1.49.52-2.96,1-4.51,1.01,1.06-.6,2.09-1.27,3.1-1.98,2.46-.64,5.2-1.57,6.93-3.41.11-.11,0-.33-.16-.27-1.57.55-3.06,1.29-4.56,2.01.05-.04.1-.08.15-.11,1.14-.96,2.18-2.01,3.16-3.1,1.57-.94,3.18-2.06,4.16-3.52.11-.16-.11-.37-.27-.27-.74.47-1.41,1.04-2.08,1.6,8.71-11.62,9.31-28.64,1.98-41.11-10-17-38.64-21.16-53.18-7.92-.08,0-.17.02-.25.1-9.19,9.13-13.26,23.13-10.79,35.81-.26-.81-.53-1.61-.75-2.47-3.12-12.44,1.77-24.12,10.15-33.19.34-.36-.18-.87-.54-.54-12.23,11.14-14.22,28.73-7.89,42.96-.3-.15-.8.02-.76.42.1,1.07.15,2.15.29,3.21.1.73.12,1.63.46,2.32-.16.16-.31.33-.47.49-.59.45-1.15.95-1.71,1.4-.16.13-.34.26-.5.39-1.56-2.32-2.93-4.79-4.02-7.41.03-.11.03-.25-.04-.39-.28-.58-.54-1.16-.79-1.74-.06-.16-.12-.31-.18-.47-3.69-10.59-1.95-21.1,2.04-30.96.17.03.34-.03.39-.25.14-.65.32-1.28.52-1.89.65-1.46,1.33-2.91,2.06-4.34,6.05-6.34,12.25-12.23,20.57-15.64,3.24-1.33,6.68-2.1,10.19-2.43.03.01.05.03.08.04,0,.04.04.08.06.13-1.9.23-3.7.62-5.2,1.2-.7.27-.41,1.39.31,1.13,5.86-2.09,11.23-.24,17.12.15.34.02.44-.46.17-.63-1.01-.6-2.2-1.04-3.47-1.37.06-.17.06-.37-.02-.54.12,0,.24-.01.37-.02.26.03.53.04.79.07.13.38.7.62,1.07.28.05-.04.11-.07.16-.11,3.79.53,7.52,1.43,11,2.6,25.48,8.49,29.9,39.04,18.67,60.54Z"></path><path class="cls-1" d="M113.26,156.65c-.47-.33-.9.43-.44.76,2.49,1.81,5.2,4.37,8.24,5.14.14.03.25-.14.14-.25-2.2-2.28-5.36-3.84-7.94-5.65Z"></path><path class="cls-1" d="M132.52,161.18c-1-.24-1.96-.53-2.92-.89-.22-.08-.37.28-.16.38,1.74.74,3.96,2.16,5.9,1.51.15-.05.14-.24,0-.3-.89-.36-1.89-.46-2.82-.69Z"></path><path class="cls-1" d="M139.57,159.54c-.23-.04-.33.29-.1.35,1.42.39,3,.73,4.36-.03.15-.09.08-.31-.09-.31-1.43-.06-2.74.27-4.17,0Z"></path><path class="cls-1" d="M146.61,157.73c-.82.09-1.65.1-2.48.12-.42,0-.42.64,0,.65,1.47.04,3.41.29,4.7-.56.16-.1.08-.31-.09-.33-.71-.09-1.42.04-2.13.11Z"></path><path class="cls-1" d="M158.72,100.67c.1,0,.1-.16,0-.16s-.1.16,0,.16Z"></path><polygon class="cls-1" points="161.02 104.82 161.03 104.82 161.03 104.05 161.02 104.05 161.02 104.82"></polygon><path class="cls-1" d="M160.78,102.66c2.15,3.6,3.36,7.47,4.45,11.48.12.45.89.37.83-.11-.52-4.3-2.32-8.14-4.78-11.66-.21-.3-.69-.03-.5.29Z"></path><path class="cls-1" d="M42.9,149.96c-.34-.42-1.08.14-.76.58,2.73,3.69,6.65,7.37,11.27,8.37.43.1.74-.53.31-.74-4.18-2.13-7.84-4.53-10.83-8.21Z"></path><path class="cls-1" d="M53.36,155.49c-.4-.37-.98.2-.6.6,2.09,2.14,4.6,4.24,7.52,5.03.28.08.56-.32.31-.53-2.33-1.84-5.03-3.04-7.24-5.1Z"></path><path class="cls-1" d="M58.76,156.33c-.47-.3-.86.42-.43.74,2.4,1.73,4.92,4.35,7.87,5.04.37.08.71-.39.39-.67-2.28-2.01-5.27-3.49-7.84-5.11Z"></path><path class="cls-1" d="M66.89,159.03c-.52-.17-.74.64-.23.82,1.23.44,2.39,1.02,3.7,1.21.28.04.48-.32.2-.47-1.17-.66-2.4-1.14-3.67-1.56Z"></path><path class="cls-1" d="M34.98,83.78c4.11-4.43,9.81-8.88,15.82-10.18.07-.02.04-.11-.03-.1-6.49,1.16-12.26,4.72-16.21,9.97-.18.24.21.54.42.32Z"></path><path class="cls-1" d="M87.22,73.95c5.91,2,11.21,4.32,15.92,8.46.21.18.56-.05.4-.31-3.37-5.35-10.38-7.33-16.1-8.95-.52-.15-.72.63-.22.8Z"></path><path class="cls-1" d="M109.81,98.45c.01.69-.03,1.35-.15,2.04-.01.07.08.1.11.03.27-.68.29-1.35.31-2.07,0-.18-.27-.18-.27,0Z"></path><path class="cls-1" d="M110.37,100.2c-.2,1.09-.2,2.18-.33,3.27-.02.15.22.18.26.03.26-1.05.39-2.09.59-3.16.06-.34-.46-.48-.52-.14Z"></path><path class="cls-1" d="M112.55,107.48c-.5,1.75-1.27,3.46-1.56,5.26-.06.37.41.62.63.27.98-1.61,1.27-3.51,1.67-5.33.1-.47-.6-.67-.73-.2Z"></path><path class="cls-1" d="M112.48,117.18c0-.08,0-.15,0-.23,0-.04-.06-.04-.06,0,0,.08,0,.15,0,.23,0,.03.05.03.05,0Z"></path><path class="cls-1" d="M93.29,134.08c-.03-.32-.46-.32-.5,0-.2,1.82-.98,4.56.31,6.11.12.15.36.05.4-.11.26-.85.07-1.75.02-2.62-.06-1.13-.12-2.25-.23-3.38Z"></path><path class="cls-1" d="M94.26,142.81c.06.16.25.16.32,0,.67-1.66.17-3.8-.05-5.53-.05-.42-.71-.43-.66,0,.18,1.77-.27,3.86.4,5.53Z"></path><path class="cls-1" d="M96.83,145.5c.01-1.07-.3-2.12-.46-3.17-.19-1.29-.28-2.61-.21-3.91.02-.5-.7-.47-.76,0-.28,2.27-.53,5.24.75,7.27.19.3.67.18.68-.18Z"></path><path class="cls-1" d="M8.21,119.08c-.24,5.22.55,10.72,2.96,15.41.2.39.76.11.67-.28-1.14-5.06-2.76-9.92-3.17-15.13-.02-.3-.46-.31-.47,0Z"></path><path class="cls-1" d="M7.66,134.19c-.19-.54-1.06-.31-.87.24.65,1.83,1.86,3.07,3.24,4.38.31.29.76-.16.47-.47-1.16-1.23-2.27-2.54-2.85-4.15Z"></path><path class="cls-1" d="M171.96,102.23c.2.43.86.12.74-.31-1.53-5.73-6.09-9.87-9.92-14.12-.27-.3-.69.14-.44.44,3.67,4.42,7.21,8.74,9.62,14Z"></path><path class="cls-1" d="M173.99,94.59c-.23-.55-1.13-.33-.91.25,2.39,6.52,3.64,13.07,4.27,19.98.05.57.86.58.89,0,.39-6.93-1.65-13.88-4.25-20.23Z"></path><path class="cls-1" d="M29.45,70.85c2.26-1.26,4.59-2.79,6.64-4.37.39-.3.19-1.01-.36-.85-2.54.77-4.94,2.66-6.99,4.3-.53.42.15,1.23.7.91Z"></path><path class="cls-1" d="M168.89,153.09c-1.48,3.88-4.12,6.92-6.67,10.12-.39.49.2,1.09.69.69,3.27-2.72,5.44-6.6,6.74-10.6.16-.49-.58-.67-.76-.21Z"></path></g><g><g><path class="cls-2" d="M416.53,17.68c11.14-.4,22.81-.71,33.95-.91l.99-.02-.08,1.02c-1.78,20.23-4.04,40.45-8.41,60.32-1.2,4.61-5.25,25.06-12.67,17.17-3.59-5.06-4.62-11.35-6.11-17.21-1.49-6.64-2.54-13.33-3.53-20.03-1.89-13.4-3.24-26.86-4.14-40.34,2.87,20.02,5.65,40.09,10.2,59.78,1.2,4.8,2.41,9.69,4.59,14.09.44.91,1.41,2.45,2.19,2.62,5.14-3.09,9.14-29.64,10.42-36.54,2.22-13.29,4.01-26.67,5.65-40.04l.91,1c-11.13-.21-22.81-.51-33.95-.91h0Z"></path><path class="cls-2" d="M435.27,95.61c1.11,19.87,1.39,39.9,1.47,59.8-.02.53.06,1.17-.05,1.77-.83,3.97-6.62,3.26-6.49-.77.07-20.24.33-40.59,1.47-60.8,1.12,19.87,1.39,39.9,1.47,59.8v1c0,.36.07.42.33.48.26-.03.34-.15.33-.48v-1c.08-19.9.36-39.92,1.47-59.8h0Z"></path><path class="cls-2" d="M435.27,153.76c3.41-.28,6.84-.26,10.28.07,3.08.45,6.54.66,9.05,2.82,1.22,1.15.85,2.96-.3,3.86-2.58,2.03-5.92,2.52-9.01,3.14-3.45.56-6.91.78-10.37.84-5.21-.01-10.45-.34-15.53-1.65-1.72-.49-3.42-.94-5.12-2.22-.69-.48-1.52-1.77-1.14-2.81.44-1.44,2.04-2.14,3.1-2.55,1.72-.62,3.43-.94,5.15-1.18,3.44-.43,6.87-.51,10.28-.29-4.97.69-10.1,1.28-14.68,3.27-.65.33-1.73.91-1.72,1.33.49.62,1.51.99,2.41,1.29,2.32.76,4.77,1.12,7.22,1.38,3.31.36,6.66.5,10,.46,3.34,0,6.69-.21,9.98-.64,2.71-.46,6.12-.74,8.2-2.5-.48-.89-1.91-1.34-2.95-1.79-4.75-1.66-9.82-2.25-14.85-2.82h0Z"></path><path class="cls-2" d="M420.32,48.82c8.64-2.04,17.72-2.05,26.36,0-8.64,2.05-17.72,2.04-26.36,0h0Z"></path><path class="cls-2" d="M430.98,57.17c-.09,4.23-6.17,4.36-6.33,0,.16-4.38,6.24-4.23,6.33,0h0ZM430.98,57.17c-.08-2.43-3.45-2.39-3.36,0-.11,2.4,3.28,2.43,3.36,0h0Z"></path><path class="cls-2" d="M434.87,65.81c.18,2.09-2.79,2.1-2.85,0,.05-2.11,3.03-2.1,2.85,0h0ZM434.87,65.81c-.01-.48-.72-.42-.68.06,0,.21.22.39.43.36.49-.03.49-.82,0-.85-.2-.02-.42.16-.42.36-.04.48.67.53.68.06h0Z"></path><path class="cls-2" d="M441.62,55.23c.28,1.85-2.4,1.84-2.43,0,.02-1.85,2.72-1.86,2.43,0h0ZM441.62,55.23c-.07-.42-.64-.12-.47.27.06.21.33.37.57.3.57-.11.57-1.04,0-1.14-.24-.06-.51.1-.57.3-.16.39.4.68.47.26h0Z"></path><path class="cls-2" d="M436.34,74.29c.07,2.55-3.55,2.61-3.64,0,.08-2.62,3.72-2.56,3.64,0h0ZM436.34,74.29c.03-.6-.83-.89-1.08-.33-.19.35.32.72.41.33,0-.11-.13-.21-.27-.14-.43.24,0,.93.48.76.26-.07.46-.33.46-.62h0Z"></path><path class="cls-2" d="M443.46,63.96c.05,2.65-3.71,2.71-3.8,0,.08-2.72,3.86-2.66,3.8,0h0ZM443.46,63.96c.03-.64-.86-.97-1.16-.41-.21.32.21.76.33.41-.13-.34-.54.11-.33.42.31.56,1.19.21,1.16-.42h0Z"></path></g><g><path class="cls-2" d="M385.31,0c10.62,3.39,21.71,7.05,32.25,10.62l.94.32-.42.93c-8.51,18.44-17.48,36.7-28.31,53.92-2.69,3.94-13.42,21.81-17.73,11.87-1.67-5.98-.51-12.25.07-18.26.85-6.75,2.12-13.41,3.45-20.04,2.75-13.25,6.03-26.37,9.75-39.36-2.77,13.22-5.42,26.46-7.7,39.75-1.05,7-6.04,33.31-2.19,37.98,5.88-1.17,18.62-24.8,22.16-30.87,6.58-11.75,12.79-23.74,18.85-35.77l.52,1.25c-10.4-3.96-21.3-8.19-31.64-12.34h0Z"></path><path class="cls-2" d="M376.59,79.68c-5.67,19.07-12.19,38.02-18.84,56.77-.2.48-.34,1.13-.65,1.65-.76,1.33-2.49,1.97-3.93,1.43l-.98-.36v-1.04l.98,1.4c-1.73-.56-2.64-2.73-1.92-4.35l.34-.94,1.36-3.75c4.52-12.42,9.28-25.01,14.16-37.27,1.99-4.93,3.97-9.87,6.08-14.76-1.49,5.11-3.1,10.18-4.71,15.25-4.44,13.83-9.25,27.83-14.13,41.52l-.33.94c-.12.33-.08.43.15.56l.98.37v1.03l-.98-1.4c.26.06.37-.02.47-.34l.34-.94c6.81-18.7,13.84-37.46,21.6-55.78h0Z"></path><path class="cls-2" d="M356.93,134.4c3.3.89,6.53,2.07,9.65,3.54,2.75,1.47,5.93,2.83,7.56,5.71.77,1.47-.22,3.1-1.59,3.53-3.11,1.04-6.43.37-9.54-.09-3.43-.64-6.77-1.6-10.04-2.72-3.26-1.17-6.46-2.5-9.55-4.1-3.19-1.84-6.3-3.32-8.58-6.52-.49-.68-.83-2.18-.12-3.03,2.02-2.31,6.48-1.12,9.03-.72,3.38.75,6.64,1.84,9.78,3.2-3.34-.73-6.67-1.43-10.01-1.76-2.22-.17-4.93-.53-6.87.39-.18.15-.13.14-.11.16,0,.03.08.27.26.52,2.02,2.37,5.11,3.84,7.89,5.25,2.99,1.46,6.09,2.73,9.26,3.81,3.15,1.13,6.37,2.07,9.61,2.77,2.73.48,5.97,1.38,8.56.41-.15-1-1.35-1.91-2.17-2.68-3.91-3.17-8.48-5.43-13.02-7.68h0Z"></path><path class="cls-2" d="M377.17,36.5c8.75-1.04,17.71-.03,25.99,2.99-8.75,1.06-17.7.01-25.99-2.99h0Z"></path><path class="cls-2" d="M385.56,42.05c-1.51,3.95-7.28,2.02-5.96-2.14,1.63-4.06,7.31-1.87,5.96,2.14h0ZM385.56,42.05c.75-2.31-2.44-3.41-3.16-1.14-.91,2.22,2.27,3.4,3.16,1.14h0Z"></path><path class="cls-2" d="M386.29,51.49c-.54,2.03-3.34,1.03-2.68-.96.76-1.97,3.56-.95,2.68.96h0ZM386.29,51.49c.15-.46-.54-.64-.66-.17-.06.2.08.44.28.49.47.14.74-.61.28-.8-.18-.09-.45,0-.52.2-.2.44.45.73.62.28h0Z"></path><path class="cls-2" d="M396.22,43.82c-.36,1.83-2.88.91-2.29-.82.65-1.73,3.19-.83,2.29.82h0ZM396.22,43.82c.07-.42-.56-.32-.54.1-.01.22.19.46.44.48.58.09.88-.78.38-1.08-.41-.3-.98.27-.61.59.12.09.29.04.33-.09h0Z"></path><path class="cls-2" d="M384.81,59.97c-.8,2.43-4.23,1.25-3.43-1.23.96-2.44,4.36-1.16,3.43,1.23h0ZM384.81,59.97c.23-.56-.48-1.12-.9-.68-.3.27.05.79.27.45.04-.4-.56-.21-.5.18.05.61.95.62,1.13.05h0Z"></path><path class="cls-2" d="M395,52.66c-.84,2.51-4.41,1.3-3.58-1.29,1-2.53,4.53-1.2,3.58,1.29h0ZM395,52.66c.11-.29,0-.63-.23-.8-.4-.34-1.09.11-.81.52.08.11.23.08.25,0,0-.37-.54-.08-.45.29.1.63,1.05.6,1.23,0h0Z"></path></g><g><g><path class="cls-2" d="M428.65,29.17c2.26-1.34,5.02-.45,6.04,1.98-2.26,1.36-5.01.44-6.04-1.98h0Z"></path><path class="cls-2" d="M432.65,27.14c1.34,2.26.45,5.02-1.98,6.04-1.36-2.26-.44-5.01,1.98-6.04h0Z"></path></g><g><path class="cls-2" d="M448.98,40.25c2.26-1.34,5.02-.45,6.04,1.98-2.26,1.36-5.01.44-6.04-1.98h0Z"></path><path class="cls-2" d="M452.99,38.22c1.34,2.26.45,5.02-1.98,6.04-1.36-2.26-.44-5.01,1.98-6.04h0Z"></path></g><g><path class="cls-2" d="M440.22,24.06c3.23-1.05,6.8.1,8.78,2.87-3.23,1.07-6.79-.11-8.78-2.87h0Z"></path><path class="cls-2" d="M446.05,21.11c1.05,3.23-.1,6.8-2.87,8.78-1.07-3.23.11-6.79,2.87-8.78h0Z"></path></g><g><path class="cls-2" d="M380.61,8.44c2.26-1.34,5.02-.46,6.04,1.98-2.26,1.36-5.01.44-6.04-1.98h0Z"></path><path class="cls-2" d="M384.62,6.41c1.34,2.26.45,5.02-1.98,6.04-1.36-2.26-.44-5.01,1.98-6.04h0Z"></path></g><g><path class="cls-2" d="M393.47,3.16c2.26-1.34,5.02-.45,6.04,1.98-2.26,1.36-5.01.44-6.04-1.98h0Z"></path><path class="cls-2" d="M397.48,1.13c1.34,2.26.45,5.02-1.98,6.04-1.36-2.26-.44-5.01,1.98-6.04h0Z"></path></g><g><path class="cls-2" d="M387.99,15.29c3.23-1.05,6.8.1,8.78,2.87-3.23,1.07-6.79-.11-8.78-2.87h0Z"></path><path class="cls-2" d="M393.81,12.33c1.05,3.23-.1,6.8-2.87,8.78-1.07-3.23.11-6.79,2.87-8.78h0Z"></path></g></g></g><line class="cls-4" x1="96.17" y1="203" x2="388.15" y2="202.84"></line><path class="cls-3" d="M91.88,216.25c-.8-.74-1.58-1.47-2.36-2.2-2.06-1.94-4.12-3.87-6.16-5.82-1.4-1.34-2.68-2.78-3.71-4.43-.79-1.27-1.37-2.62-1.55-4.12-.4-3.24.95-7.25,5.72-8.51,2.11-.55,3.98.02,5.69,1.29.85.64,1.52,1.45,2.19,2.26.05.06.1.12.18.2.14-.16.27-.31.4-.46.69-.86,1.43-1.65,2.35-2.27,1.27-.85,2.64-1.31,4.18-1.21,3.21.21,5.99,2.59,6.71,5.73.52,2.29.09,4.41-1.02,6.43-.93,1.69-2.13,3.17-3.51,4.49-2.95,2.83-5.94,5.63-8.91,8.44-.06.05-.12.1-.2.17Z"></path><path class="cls-3" d="M394.88,216.25c-.8-.74-1.58-1.47-2.36-2.2-2.06-1.94-4.12-3.87-6.16-5.82-1.4-1.34-2.68-2.78-3.71-4.43-.79-1.27-1.37-2.62-1.55-4.12-.4-3.24.95-7.25,5.72-8.51,2.11-.55,3.98.02,5.69,1.29.85.64,1.52,1.45,2.19,2.26.05.06.1.12.18.2.14-.16.27-.31.4-.46.69-.86,1.43-1.65,2.35-2.27,1.27-.85,2.64-1.31,4.18-1.21,3.21.21,5.99,2.59,6.71,5.73.52,2.29.09,4.41-1.02,6.43-.93,1.69-2.13,3.17-3.51,4.49-2.95,2.83-5.94,5.63-8.91,8.44-.06.05-.12.1-.2.17Z"></path><line class="cls-4" x1="397.4" y1="202.36" x2="689.38" y2="202.2"></line><path class="cls-3" d="M696.11,215.61c-.8-.74-1.58-1.47-2.36-2.2-2.06-1.94-4.12-3.87-6.16-5.82-1.4-1.34-2.68-2.78-3.71-4.43-.79-1.27-1.37-2.62-1.55-4.12-.4-3.24.95-7.25,5.72-8.51,2.11-.55,3.98.02,5.69,1.29.85.64,1.52,1.45,2.19,2.26.05.06.1.12.18.2.14-.16.27-.31.4-.46.69-.86,1.43-1.65,2.35-2.27,1.27-.85,2.64-1.31,4.18-1.21,3.21.21,5.99,2.59,6.71,5.73.52,2.29.09,4.41-1.02,6.43-.93,1.69-2.13,3.17-3.51,4.49-2.95,2.83-5.94,5.63-8.91,8.44-.06.05-.12.1-.2.17Z"></path><line class="cls-4" x1="696.12" y1="202.71" x2="988.11" y2="202.55"></line><path class="cls-3" d="M994.84,215.96c-.8-.74-1.58-1.47-2.36-2.2-2.06-1.94-4.12-3.87-6.16-5.82-1.4-1.34-2.68-2.78-3.71-4.43-.79-1.27-1.37-2.62-1.55-4.12-.4-3.24.95-7.25,5.72-8.51,2.11-.55,3.98.02,5.69,1.29.85.64,1.52,1.45,2.19,2.26.05.06.1.12.18.2.14-.16.27-.31.4-.46.69-.86,1.43-1.65,2.35-2.27,1.27-.85,2.64-1.31,4.18-1.21,3.21.21,5.99,2.59,6.71,5.73.52,2.29.09,4.41-1.02,6.43-.93,1.69-2.13,3.17-3.51,4.49-2.95,2.83-5.94,5.63-8.91,8.44-.06.05-.12.1-.2.17Z"></path><g><path d="M676.14,262.49c-.32,1.34-1.09,3.9-1.54,4.86-.8.16-3.3.74-5.44.74-8.29,0-11.81-5.15-11.81-10.78,0-6.33,4.67-10.94,12.19-10.94,2.56,0,4.9.58,5.66.64.06,1.63.29,3.58.45,4.9l-.58.13c-.64-2.27-1.44-3.49-3.23-4.32-.86-.42-1.79-.58-3.1-.58-4.8,0-6.85,4.29-6.85,9.57,0,6.18,2.88,10.59,7.62,10.59,2.98,0,4.7-1.79,6.11-4.99l.51.19Z"></path><path d="M694.79,264.44c-1.92,2.72-4.35,3.55-5.5,3.55-4,0-6.37-3.17-6.37-6.66,0-2.3.93-4.26,2.27-5.63,1.44-1.5,3.04-2.02,4.54-2.02,3.04,0,4.99,2.21,5.02,4.74,0,.51-.03.7-.16.74-1.02.19-5.09.48-8.1.61.03,3.94,2.27,5.76,4.48,5.76,1.15,0,2.3-.29,3.52-1.47l.29.38ZM688.84,254.52c-1.18,0-2.11,1.28-2.27,4.32,1.28,0,2.53,0,3.81-.1.48-.03.77-.06.77-.45,0-1.92-.93-3.78-2.3-3.78Z"></path><path d="M709.35,267.61v-.51c1.54-.22,1.6-.51,1.6-3.2v-5.15c0-2.3-1.02-2.98-2.14-2.98-.8,0-1.63.22-2.43.9v7.81c0,2.24.16,2.27,1.66,2.62v.51h-7.17v-.51c1.66-.38,1.86-.54,1.86-2.94v-6.62c0-1.6-.22-1.79-1.47-2.24v-.42c1.82-.22,3.81-.74,5.18-1.25-.03.77-.06,1.57-.06,2.34.77-.51,1.28-.93,1.89-1.31.99-.67,1.57-.96,2.43-.96,2.69,0,3.9,1.98,3.9,4.9v5.86c0,2.24.13,2.37,1.54,2.66v.51h-6.78Z"></path><path d="M731.97,268c-.8,0-1.38-.22-1.79-.64-.35-.35-.61-.86-.74-1.41-1.02.8-2.66,2.05-3.23,2.05-2.27,0-3.81-1.92-3.81-3.81,0-1.5.7-2.27,2.14-2.78,1.73-.64,4.06-1.22,4.83-1.79v-1.89c0-1.98-1.22-2.91-2.14-2.91-.58,0-.99.26-1.31.7-.22.32-.45.9-.74,2.11-.16.64-.38.86-.83.86-1.02,0-1.66-.83-1.66-1.47,0-.35.29-.74.93-1.15,1.6-1.02,3.62-1.95,4.83-2.18,1.38,0,2.14.42,2.85.9,1.31,1.02,1.63,2.3,1.63,4.16v5.5c0,1.31.48,1.76,1.06,1.76.22,0,.51-.03.74-.13l.16.51-2.91,1.6ZM729.38,260.28c-.48.26-.99.42-1.66.77-1.18.64-1.73,1.22-1.73,2.34,0,1.76.96,2.5,1.89,2.5.45,0,.93-.06,1.47-.51,0-1.86.03-3.23.03-5.09Z"></path></g><g><path d="M962.21,251.47c-.19-.83-.58-1.76-.99-2.46-.58-.99-1.41-1.38-3.49-1.38h-2.24c-.96,0-1.18.16-1.18,1.12v7.62h3.52c2.34,0,2.53-.51,3.07-2.75h.48v6.46h-.51c-.61-2.18-.7-2.75-3.04-2.75h-3.52v5.63c0,3.33.19,3.52,2.91,4v.51h-9.44v-.51c2.34-.42,2.56-.67,2.56-4v-12c0-3.17-.22-3.33-2.56-3.78v-.51h10.05c3.14,0,4.26-.03,4.61-.06.03.58.13,3.1.29,4.8l-.51.06Z"></path><path d="M968.26,267.47v-.51c1.7-.29,1.76-.45,1.76-2.91v-6.46c0-1.86-.1-1.98-1.41-2.43v-.45c1.89-.22,3.62-.61,5.12-1.15-.03.67-.06,2.5-.06,3.74v6.75c0,2.37.16,2.56,1.86,2.91v.51h-7.26ZM971.58,250.8c-1.06,0-1.92-.86-1.92-2.02s.86-2.02,1.95-2.02c1.18,0,2.02.83,2.02,2.02s-.83,2.02-2.05,2.02Z"></path><path d="M993.44,264.3c-1.92,2.72-4.35,3.55-5.5,3.55-4,0-6.37-3.17-6.37-6.66,0-2.3.93-4.26,2.27-5.63,1.44-1.5,3.04-2.02,4.54-2.02,3.04,0,4.99,2.21,5.02,4.74,0,.51-.03.7-.16.74-1.02.19-5.09.48-8.1.61.03,3.94,2.27,5.76,4.48,5.76,1.15,0,2.3-.29,3.52-1.47l.29.38ZM987.49,254.38c-1.18,0-2.11,1.28-2.27,4.32,1.28,0,2.53,0,3.81-.1.48-.03.77-.06.77-.45,0-1.92-.93-3.78-2.3-3.78Z"></path><path d="M1008.38,257.45c-.64-1.82-1.63-3.23-3.39-3.23-.96,0-1.79.67-1.79,1.92,0,1.38.96,1.98,2.27,2.72,2.27,1.25,3.94,2.24,3.94,4.51,0,3.07-2.88,4.48-5.28,4.48-1.63,0-2.91-.45-3.58-.67-.06-.64-.29-2.46-.45-3.71l.42-.1c.7,2.08,2.11,3.81,4.06,3.81,1.15,0,1.82-.8,1.82-1.89,0-.99-.32-1.86-2.4-3.07-1.28-.74-3.65-1.98-3.65-4.45s1.95-4.19,5.02-4.22c1.31,0,2.46.32,3.07.35.06,1.09.26,2.88.38,3.46l-.45.1Z"></path><path d="M1021.76,267.5c-.45.22-.99.35-1.22.35-2.18,0-3.49-1.09-3.49-3.78v-9.15h-1.89l-.06-.19.54-.8h1.41v-2.62c1.09-.58,2.43-1.57,3.39-2.37l.35.03c-.03.96-.13,3.17-.1,4.96h2.85c.13.19.03.77-.13.99h-2.72v8.48c0,2.37.9,2.85,1.66,2.85.32,0,.86-.1,1.22-.26l.16.48-1.98,1.02Z"></path><path d="M1039.01,267.85c-.8,0-1.38-.22-1.79-.64-.35-.35-.61-.86-.74-1.41-1.02.8-2.66,2.05-3.23,2.05-2.27,0-3.81-1.92-3.81-3.81,0-1.5.7-2.27,2.14-2.78,1.73-.64,4.06-1.22,4.83-1.79v-1.89c0-1.98-1.22-2.91-2.14-2.91-.58,0-.99.26-1.31.7-.22.32-.45.9-.74,2.11-.16.64-.38.86-.83.86-1.02,0-1.66-.83-1.66-1.47,0-.35.29-.74.93-1.15,1.6-1.02,3.62-1.95,4.83-2.18,1.38,0,2.14.42,2.85.9,1.31,1.02,1.63,2.3,1.63,4.16v5.5c0,1.31.48,1.76,1.06,1.76.22,0,.51-.03.74-.13l.16.51-2.91,1.6ZM1036.41,260.14c-.48.26-.99.42-1.66.77-1.18.64-1.73,1.22-1.73,2.34,0,1.76.96,2.5,1.89,2.5.45,0,.93-.06,1.47-.51,0-1.86.03-3.23.03-5.09Z"></path></g><g><path class="cls-1" d="M718.95,132.5c2.81-1.31,5.46-2.9,7.82-4.82.45-.36-.12-1.02-.59-.77-.1.05-.19.09-.29.15,14.69-14.57,17.66-40.63,2.16-55.71-14.97-14.57-42.16-17.85-58.11-4.16-.12-.02-.25-.01-.39.05-18.41,8.37-17.76,37.22-8.37,52,11.72,18.44,39.13,24.52,57.76,13.27ZM663.95,74.55c.17.28.57.44.83.14,16.94-18.91,43.17-18.47,62.15-2.2,16.59,14.22,10.77,41.99-3.85,55.14-.82.74-1.67,1.41-2.53,2.05-13.84,6.13-27.54,7.18-42.38.26-22.1-10.31-23.22-35.88-14.22-55.39ZM663.07,74.51c-9.37,17.27-8.33,38.22,6.56,51.51-2.66-2.24-5.05-4.78-7.05-7.6-8.35-11.77-8.84-32.19.48-43.92Z"></path><g><path class="cls-1" d="M677.28,82.42c-1.03,1.27-1.43,2.81-1.45,4.42-1.98,12.7,10.98,23.23,19.08,31.64.14.24.31.48.45.73-.01.01-.02.03-.04.04-.72.8.46,1.99,1.18,1.19.15-.17.32-.36.48-.54.03-.03.06-.06.09-.1,7.83-8.8,21.43-24.99,16.82-37.35-2.99-8.02-14.97-.77-17.51,5.04-.04-.08-.1-.15-.15-.23.04-.1.07-.22.11-.32.15-.41-.3-.63-.62-.48-3.95-5.66-13.61-9.99-18.44-4.03ZM695.78,89.69c.12.25.34.32.56.33-1.57,6.22-3.59,12.18-5.79,18.21-.15.41.47.63.68.28,1.24-2.03,2.17-4.2,2.93-6.43-.79,2.71-1.52,5.43-2.09,8.15-.08.37.47.66.65.27,3.35-7.35,4.89-15.49,7.8-23.03.29-.75-.91-1.07-1.2-.33-1.44,3.67-2.83,7.45-4.07,11.29.79-2.99,1.38-6.04,2.03-9.02,0-.03-.01-.04-.01-.06.25-.17.33-.4.29-.62.3-.4.74-.97,1.42-1.81.9-1.12,1.88-2.16,2.86-3.21,2.39-2.53,8.46-6.28,11.04.62,1.12,2.98-.24,6.79-1.21,9.63-1.06,3.12-2.54,6.19-4.27,9.16,1.08-3.58,2.26-7.13,3.54-10.66.23-.64-.79-.92-1.03-.28-1.67,4.59-3.41,9.19-4.38,13.98-.82,1.26-1.67,2.5-2.56,3.71,2.54-5.67,3.96-11.99,5.53-17.89.2-.75-.97-1.08-1.17-.32-1.92,7.12-4.57,14.02-6.55,21.11-1.37,1.74-2.77,3.42-4.18,5.02-.15-.17-.3-.33-.45-.5-2.33-3.83-5.32-7.31-8.25-10.82.51-.83.94-1.7,1.34-2.61-.27.95-.52,1.9-.74,2.85-.11.46.55.77.79.33,2.95-5.48,4.31-11.83,6.26-17.79.08.15.17.29.24.43ZM685.96,81.68c3.85.77,6.95,3.24,8.96,6.46-1.23,3.14-2.52,6.33-3.68,9.55.77-3.14,1.33-6.36,2.14-9.25.17-.61-.75-.85-.93-.26-1.81,5.68-3.8,11.48-5.4,17.24-.41-.49-.82-.98-1.22-1.48,3.36-5.32,4.22-12.39,5.16-18.48.11-.73-.99-1.06-1.13-.31-1.15,6.15-3.1,11.96-4.68,17.97-.39-.5-.79-1-1.17-1.51,2.71-5.16,3.3-11.69,5-17.14.23-.75-.93-1.07-1.18-.32-1.72,5.23-3.38,10.58-4.95,15.9-.33-.48-.67-.95-.99-1.43,2.39-4.38,3.21-9.9,4.54-14.66.19-.68-.84-.95-1.05-.29-1.42,4.42-3.56,9.14-4.17,13.82-.31-.52-.64-1.03-.93-1.57,1.12-1.37,1.68-3.31,2.18-4.95.86-2.8,1.22-5.69,1.79-8.55.09-.47-.6-.67-.72-.2-.54,2.25-1.18,4.47-1.81,6.69-.54,1.87-1.53,3.65-2.19,5.49-.17-.37-.35-.74-.5-1.12.07-.02.14-.04.19-.12,2.2-2.84,2.74-7.23,3.21-10.69.09-.69-.95-1.01-1.07-.3-.3,1.77-.74,3.5-1.26,5.22-.46,1.55-1.19,3.1-1.53,4.68-.15-.42-.3-.84-.43-1.27.4-.92.54-1.99.81-2.95.46-1.64,1.01-3.25,1.51-4.87.09-.28-.02-.49-.2-.61,1.48-.85,3.46-1.12,5.69-.67ZM677.6,87.46c-.02.05-.03.1-.05.16-.05-1.86.54-3.34,1.57-4.39-.52,1.41-1.06,2.81-1.52,4.23Z"></path><path class="cls-1" d="M697.63,103.95c.41-.8.66-1.67,1.04-2.48.16-.34-.35-.65-.51-.3-.39.82-.6,1.69-.96,2.53-.12.29.28.54.43.25Z"></path><path class="cls-1" d="M696.23,112.51c4.64-8.01,6.24-17.38,9.09-26.09.17-.51-.62-.71-.79-.22-3.1,8.65-5.66,17.45-8.96,26.03-.15.39.46.63.66.28Z"></path><path class="cls-1" d="M704.97,92.69c-2.13,7.87-5.44,15.29-7.79,23.07-.08.26.31.42.44.18,3.66-7.26,6.29-15.14,8.24-23.01.14-.58-.73-.82-.89-.24Z"></path></g><path class="cls-1" d="M714.19,129.68c7.51-3.89,16.26-10.02,17.63-19.08.06-.41-.54-.77-.74-.31-1.78,4.13-3.45,7.63-6.61,10.92-3.07,3.19-6.82,5.67-10.49,8.12-.22.15-.03.47.21.35Z"></path><path class="cls-1" d="M661.75,89.25c2.74-8.29,6.66-14.97,14.16-19.81.32-.21.11-.79-.27-.64-7.5,2.99-14.01,12.31-14.62,20.35-.03.44.6.48.73.1Z"></path><path class="cls-1" d="M733.01,104.97c.74-1.14.91-2.71,1.23-4.02.15-.61-.79-.87-.94-.26-.33,1.3-.93,2.77-.81,4.13.02.28.37.39.53.14Z"></path><path class="cls-1" d="M678.03,67.97c.97-.57,2.29-.99,3.07-1.81.32-.34.07-.81-.36-.86-1.23-.13-2.37.99-3.29,1.67-.58.43-.07,1.39.58,1Z"></path><path class="cls-1" d="M714.12,143.03c1.05,2.28,1.75,5.01,3.26,7.05.3.41.89.17.81-.34-.44-2.55-2.04-4.96-3.45-7.07-.26-.39-.8-.05-.61.36Z"></path><path class="cls-1" d="M735.36,49.66c-11.9-9.66-27.21-14.14-42.38-13.92-20.36.29-34.79,11.32-48.1,25.56-.27.29-.23.63-.06.88-18.64,26.93-12.49,63.39,13.68,83.22,27.15,20.57,67.97,15.59,88.96-11,20.58-26.07,12.58-64.72-12.09-84.74ZM636.93,86.38c-.41,3.76-.4,7.6-.07,11.44-.21.05-.42.1-.62.16-.12.03-.19.11-.26.19-.02-3.92.29-7.87.95-11.79ZM648.44,134.15c-8.32-10.09-12.28-22.55-12.47-35.38.09.14.21.25.41.24.2,0,.39-.03.58-.04.23,2.18.62,4.34,1.07,6.5.58,3.55,1.45,7.05,2.58,10.43-.4-.76-.79-1.52-1.18-2.3-.22-.44-.99-.13-.81.34.69,1.8,1.43,3.64,2.2,5.48-.44.31-.24,1.09.36.9,0,0,.01,0,.02,0,2.04,4.72,4.5,9.38,7.71,13.31-.25.07-.45.28-.47.53ZM661.4,145.55c-4.62-2.94-8.55-6.35-11.87-10.11,1.5,1.38,3.03,2.79,4.59,4.17.06.27.3.5.58.52,2.72,2.39,5.57,4.67,8.6,6.57-.64-.38-1.28-.75-1.91-1.15ZM744.92,135.13c-18.65,23.58-52.52,26.52-77.99,13.55.58.13.96-.6.43-.99-.27-.2-.54-.4-.81-.61,2.06,1.19,4.19,2.25,6.37,3.16.07.4.51.61.83.34,21.1,8.49,46.79,4.41,63.66-10.76.39.31.8.59,1.27.78.3.12.67-.25.55-.55-.18-.44-.44-.85-.74-1.24,3.01-2.86,5.76-6.05,8.08-9.65,1.38-2.15,2.51-4.43,3.45-6.81.38.08.75.14,1.13.12.28-.01.43-.34.23-.55-.26-.28-.56-.52-.89-.74,4.43-12.15,3.72-26.57,2.07-38.8-2.06-15.25-9.75-26.28-22.9-34.11-3.03-1.8-6.27-3.37-9.64-4.69-.11-.31-.5-.48-.82-.32-24.89-9.38-56.84-5.15-69.14,20.97-.23.48.44.89.72.42,1.37-2.2,2.83-4.22,4.37-6.11.68.57,1.36,1.15,2.02,1.74.85.76,1.66,1.7,2.68,2.23.43.22.87-.22.65-.65-.53-1.01-1.47-1.84-2.3-2.61-.7-.64-1.43-1.19-2.2-1.71,4.89-5.7,10.57-9.91,16.76-12.75,1.09,2.7,2.02,6.16,4.22,8.1.14.12.36,0,.31-.18-.67-2.8-2.01-5.81-3.4-8.4,6.47-2.77,13.46-4.07,20.64-4.1-.13,1.36-.12,2.72-.12,4.09,0,1.63-.11,3.32.39,4.88.1.32.55.32.65,0,.43-1.37.39-2.8.39-4.22,0-1.59.02-3.18-.13-4.76,7.46.11,15.11,1.61,22.58,4.29-1.51,2.36-2.77,5.24-3.51,7.84-.1.36.35.6.61.35,2.04-1.94,3.01-5.1,4.18-7.73,2.45.93,4.89,1.98,7.29,3.16,4.3,2.12,8,4.8,11.17,7.91-.84.54-1.54,1.35-2.27,2.04-1.12,1.05-2.86,2.15-3.57,3.54-.11.21.02.55.3.52,1.45-.16,2.81-1.65,3.81-2.58.87-.8,1.93-1.64,2.59-2.65,4.06,4.22,7.16,9.18,9.41,14.58-.32-.6-.64-1.19-.99-1.78-.09-.16-.38-.05-.31.13.87,2.19,1.58,4.45,2.23,6.73-2.77.53-5.6,1.79-8.18,2.84-.47.19-.3.91.22.78,2.69-.68,5.83-1.17,8.21-2.72.56,2.04,1.08,4.09,1.6,6.11.1.4.64.38.79.06.86,4.68,1.22,9.5,1.14,14.32-1.39-.14-2.86.1-4.24.24-1.33.13-2.61.34-3.84.86-.43.18-.22.94.24.89,1.38-.16,2.76-.34,4.15-.45,1.22-.1,2.5-.09,3.68-.46-.23,7.37-1.5,14.71-3.66,21.48-.78-.37-1.6-.68-2.33-1.03-1.75-.84-3.52-1.6-5.3-2.37-.49-.21-.91.45-.43.73,1.67.97,3.29,1.99,5.01,2.87.8.41,1.67.9,2.57,1.27-2.31,6.67-5.96,12.18-10.53,16.62-.78-.94-1.78-1.75-2.64-2.54-1.41-1.28-2.96-2.4-4.57-3.41-.67-.42-1.21.59-.6,1.03,1.6,1.17,3.05,2.49,4.5,3.84.73.67,1.42,1.46,2.2,2.11-10.56,9.56-25.57,13.8-40.43,13.59.16-2.65-.01-5.42-.16-8.05-.04-.64-.94-.63-.98,0-.18,2.55-.76,5.57.22,8.03-7.4-.2-14.73-1.48-21.42-3.76.43-.82.87-1.64,1.24-2.5.42-.97.93-2.03.82-3.11-.03-.3-.39-.52-.64-.26-.65.69-.92,1.58-1.27,2.44-.42,1.02-.84,2.03-1.26,3.04-1.21-.44-2.41-.89-3.57-1.39-4.89-2.11-9.33-5.17-13.26-8.91,1.75-1.61,3.58-3.33,4.7-5.34.21-.39-.25-.97-.66-.66-1.84,1.41-3.44,3.27-5.03,5.03-5.04-5.06-9.16-11.27-12.19-18.05,0-.01,0-.02,0-.03.85-.24,1.7-.49,2.55-.75,1.25-.39,2.5-.69,3.51-1.55.25-.21.04-.61-.25-.61-1.26,0-2.42.49-3.61.87-.85.27-1.66.6-2.49.91-1.78-6.82-3.03-13.37-3.54-20.03.4-.1.8-.2,1.2-.31,1.51-.4,3.18-.52,4.6-1.15.28-.13.15-.49-.08-.58-1.22-.46-2.51-.14-3.75.15-.7.16-1.39.35-2.09.53-.1-1.7-.16-3.41-.16-5.14,1.22-5.38,2.37-10.59,3.89-15.76h.02c.09.17.3.25.48.18.63.23,1.27.45,1.89.68,1.3.49,2.57,1.07,3.97,1.13.47.02.66-.67.24-.9-1.22-.64-2.57-1.03-3.86-1.52-.51-.19-1.04-.38-1.57-.53,2.24-4.46,4.16-9.14,6.78-13.39.2-.33-.29-.59-.51-.3-3.07,4.17-5.3,8.55-7.05,13.37.92-3,1.97-6.01,3.27-9.04.17-.4-.34-.72-.59-.35-2.97,4.34-5.15,9.64-6.54,15.14-.23-.08-.52-.01-.59.26-.44,1.67-.79,3.37-1.06,5.09,1.03-8.41,3.96-16.39,9.19-22.95.41-.52-.32-1.26-.73-.73-1.59,2.01-2.95,4.15-4.13,6.36.94-2.14,1.97-4.24,3.12-6.29.18.02.38-.03.55-.2,13.39-13.2,25.3-23.1,44.7-24.92,14.91-1.4,29.82,3.65,41.95,12.08,27.62,19.19,33.03,59.56,12.39,85.68Z"></path><path class="cls-1" d="M641.88,62.89c3.62-5.28,7.95-9.68,12.35-14.26.19-.2-.06-.55-.3-.39-5.41,3.43-9.21,9.03-12.38,14.46-.13.21.19.39.33.19Z"></path><path class="cls-1" d="M750.08,133.29c-3.85,6.1-8.25,11.39-14.15,15.59-.37.27-.06.81.36.61,6.54-3.07,11.34-9.48,14.53-15.77.25-.49-.44-.9-.73-.43Z"></path><path class="cls-1" d="M626.25,32.96c-.13-.55-.77-.49-1.01-.12-.01,0-.03,0-.04,0-2.38.45-1.93,7.33-2.02,8.85-.4,6.4-.69,12.46-2.99,18.33-1.07-8.89-.5-18.03-2.08-26.69-.08-.46-.68-.34-.82,0-1.06,2.55-.79,21.66-2.44,24.83-.64-5.46.65-25.93-4.82-25.71-.43.02-.43.64,0,.66.09,0,.17.03.25.06-1.34,8.25.07,16.56.49,24.86.38,7.59,5.31,12.91,5.86,20.6.32,4.51.42,9.06.41,13.64-.15-.31-.27-.64-.35-.97-.2-.88-1.47-.49-1.34.37.18,1.15.68,2.15,1.66,2.81,0,0,0,0,.01,0,0,.54-.03,1.08-.04,1.61-.18-.12-.36-.24-.53-.39-.6-.52-1.45.3-.88.88.4.4.86.77,1.37,1.04-.19,7.99-.69,16-1.17,23.85-.62,10.29-1.01,20.62-.26,30.91.29,3.93.39,11.83,5,13.4.32.11.69-.12.77-.44,3.12-12.03,1.92-28,.32-40.19-1.14-8.62-2.04-17.84-2.3-27.05.88-.05,1.8-.34,2.12-1.19.07-.2-.08-.46-.29-.51-.63-.13-1.25.13-1.88.21-.01-.56-.05-1.12-.05-1.68.38-.07.71-.23.89-.57.1-.18.08-.42-.07-.57-.23-.23-.53-.3-.83-.35-.01-7.45.47-14.83,1.8-21.83.03-.15,0-.28-.05-.39,3.75-12.99,8.54-24.14,5.31-38.29ZM621.23,135.38c.2,5.28-.29,10.56-.17,15.84.04,1.89.35,17.29-2.51,10.43-2.67-6.4-2.05-14.83-2.05-21.63,0-14.01,1.12-28.02,1.44-42.03.08.02.15.03.23.05.67,12.54,2.6,25.18,3.06,37.34ZM624.81,56.26c-1.41,5.99-4.62,11.27-5.61,17.41-.01.07.03.11.04.17-.55,3.07-.91,6.17-1.11,9.29-.11-4.24-.49-8.46-1.54-12.48-1.43-5.49-4.36-10.03-4.64-16.2-.32-6.92-1.17-13.73-.88-20.66,2.74,3.79,1.13,22.49,2.73,25.67.2.4.63.36.92.13,3-.82,2.56-16.2,2.63-17.93.08-1.89.15-3.78.35-5.66.25,8.26-.88,17.31,1.4,25.3.07.23.21.34.36.39-.08.17-.14.34-.22.51-.23.47.24.97.72.72,3.73-1.94,3.8-9.17,4.17-12.74.33-3.19.47-6.4.66-9.59.1-1.64-.05-4.03.58-5.77,1.04,6.99,1.03,14.63-.57,21.45Z"></path><path class="cls-1" d="M779.82,106.38c.19-.17.36-.36.5-.59.27-.44-.12-.9-.57-.88-.01-.27-.03-.53-.04-.8.03-.07.09-.12.1-.2.03-.14-.03-.25-.13-.34-.17-3.73-.3-7.46-.33-11.2-.09-10.67.5-21.46.95-32.12.41-9.7-1.02-19.52.09-29.15.07-.66-1.03-.8-1.15-.16-.03.18-.05.36-.08.53-.03-.43-.5-.88-1.03-.63-3.46,1.62-4.36,5.28-5.28,8.75-2.22,8.34-4.06,17.25-5.83,25.71-.74,3.52-1.41,6.89-1.78,10.27-.31.15-.54.54-.3.87.07.09.13.19.19.28-.3,3.4-.25,6.84.42,10.45,1.17,6.27,7.07,9.75,10.09,15.1-.27.11-.49.37-.39.7.25.84.66,1.66,1.4,2.09-.03.22-.07.43-.11.65-.29-.04-.59-.11-.88-.2-.83-.27-1.12.96-.35,1.27.31.13.65.22,1.01.29-2.91,16.98-9.67,34.85-5.72,51.93,2.06,8.88,9.45,4.46,10.09-2.4,1.59-16.81,0-33.5-.85-50.24ZM775.23,98.52c-1.58-1.88-3.24-3.65-4.92-5.44-2.84-3.03-3.91-6.8-4.14-10.72.66.76,1.22,1.76,2.2,2.09.23.08.46-.17.39-.39-.29-1.03-1.17-1.92-1.9-2.66-.24-.24-.52-.2-.72-.05-.02-1-.01-2.01.04-3.01.07.11.15.22.22.34.45.72.81,1.63,1.54,2.1.18.12.47,0,.52-.21.3-1.48-1.09-3.11-2.11-4.32.15-1.48.35-2.94.55-4.34.11-.74.26-1.46.38-2.19.42,1.42.51,2.97.7,4.42.01.12.2.22.27.07.88-2.02.37-3.92-.76-5.69.35-1.83.74-3.66,1.19-5.46.16.75.39,1.47.84,2.01.19.24.58.09.65-.17.4-1.39-.39-3.11-.81-4.46.33-1.19.67-2.38,1.03-3.56.06,1.02.24,2.02.89,2.76.14.16.37.05.43-.11.58-1.58,0-3.62-.43-5.2,0-.03-.04-.05-.06-.07.17-.54.34-1.09.52-1.63.29-.89.51-1.99.7-3.21.08.26.14.52.22.78.36,1.07.54,2.26,1.25,3.16.16.2.46.06.53-.14.7-1.96-.84-4.54-1.63-6.45.16-1.24.32-2.53.52-3.82.25,1.07.67,2.07,1.57,2.58.37.21.75-.13.68-.52-.14-.73-.55-1.41-.82-2.11-.33-.84-.56-1.71-.8-2.57-.02-.07-.08-.1-.12-.15.8-3.66,2.15-6.9,4.97-8.13.17-.07.26-.19.31-.31-.84,5.13-.5,10.12-.16,15.33.49,7.67-.32,15.46-.55,23.13-.33,11.26-.2,22.33.21,33.45-.21.07-.41.13-.62.18,0-.22.02-.43.02-.65,0-.38-.28-.53-.55-.51-.39-1.43-1.03-2.71-2.22-4.12ZM779.77,143.33c0,3.63-.18,7.24-.41,10.85.96,5.48-1.47,6.96-7.29,4.42-.71-2.97-1.08-5.98-1.09-9.03-.7-14.51,5.69-28.15,6.82-42.4.32-.03.64-.08.93-.18.2,4.84.43,9.7.74,14.59.45,7.22.3,14.52.29,21.75Z"></path><path class="cls-1" d="M782.64,147.85c-.54,6.82-2.06,13.32-4.68,19.63-.08.19.23.31.32.14,3.44-6.13,5.64-12.67,5.35-19.77-.03-.65-.94-.63-.99,0Z"></path><path class="cls-1" d="M610.88,145.51c.26,3.37.36,6.76,1.82,9.87.2.41.76.1.69-.29-.55-3.19-1.16-6.36-1.55-9.57-.07-.6-1.01-.63-.96,0Z"></path><path class="cls-1" d="M609.23,151.52c-.08,2.33.61,4.84,2.22,6.58.26.28.64-.02.58-.34-.4-2.17-1.68-4.01-1.88-6.25-.05-.59-.9-.6-.92,0Z"></path><path class="cls-1" d="M627.98,31.89c.92,2.96,1.31,5.92,1.83,8.96.04.22.42.23.45,0,.43-3.1-.52-6.26-1.5-9.17-.17-.49-.94-.29-.78.21Z"></path><path class="cls-1" d="M769.46,39.98c.68-1.21.91-2.71,1.38-4.02.63-1.74,1.44-3.41,2.67-4.8.45-.51-.26-1.24-.75-.75-2.22,2.2-4.23,6.18-4.01,9.38.02.37.52.55.72.19Z"></path></g><g><g><path class="cls-2" d="M1018.71,110.04c.07,13.76-16.66,21.24-26.86,11.72-6.7-6-6.71-17.45,0-23.45,10.2-9.53,26.94-2.03,26.87,11.73h0ZM1018.71,110.04c-.07-13.09-16.07-19.21-24.84-9.69-5.02,5.3-5.03,14.09,0,19.39,8.77,9.53,24.77,3.4,24.84-9.7h0Z"></path><path class="cls-2" d="M1070.54,108.62c.08,13.75-16.65,21.24-26.85,11.73-6.71-5.98-6.74-17.43-.05-23.43,6.15-6.02,17.07-5.64,22.53.88,2.58,3,4.53,6.8,4.36,10.83h0ZM1070.54,108.62c.13-7.88-7.37-15.07-15.18-14.3-11.97.71-17.81,15.29-9.65,24.01,8.77,9.52,24.77,3.37,24.83-9.71h0Z"></path><path class="cls-2" d="M1010.86,96.77c-.82-16.91-1.23-33.84-1.45-50.76v-1.2s1.19-.23,1.19-.23c7.32-1.43,22.03-4.25,29.36-5.59,8.24-1.51,23.03-4.2,31.27-5.65-.07,9.44-.31,26.62-.51,36.07-.26,11.4-.58,22.8-1.08,34.19-.27-5.7-.43-11.4-.62-17.1-.52-15.78-.81-35.42-.95-51.29l1.85,1.54c-7.32,1.4-22.05,4.14-29.38,5.48-7.32,1.35-22.09,3.95-29.43,5.2l1.19-1.43c-.22,16.93-.64,33.85-1.45,50.76h0Z"></path><path class="cls-2" d="M1017.63,104.44c-.93-16.44-1.31-32.89-1.51-49.35,11.26-2.89,23.69-5.85,35.07-8.51,4.39-1.04,8.82-2.05,13.23-3.02l-.03,1.9c-.21,16.49-.58,32.97-1.52,49.44-.71-12.36-1.07-24.71-1.32-37.08-.11-4.12-.13-8.24-.19-12.36l1.87,1.48c-14.8,3.73-30.37,7.43-45.25,10.77l1.15-1.46c-.21,16.07-.59,32.13-1.5,48.19h0Z"></path></g><g><path class="cls-2" d="M938.2,76.75c2.8,9.6,4.59,19.82,6.17,29.7,1.47,10.02,2.68,20.04,2.87,30.19-2.81-9.75-4.61-19.7-6.17-29.7-1.41-9.91-2.71-20.18-2.87-30.19h0Z"></path><path class="cls-2" d="M957.4,147.16c-4.66-21.67-8.8-43.43-12.75-65.24l2.43.89c1.72.63,2.92,1.66,4.05,2.69,3.18,3.15,5.58,6.82,7.73,10.71l-1.7-.86,4.88-.7-1.36,1.84c-1.5-12.55-9.41-20.67-22.48-19.75,14.81-3.73,24.43,6.81,25.91,20.85-1.03.16-5.35.85-6.46,1.02l-1.12.18c-1.51-2.71-3.14-5.48-5.01-7.98-1.5-1.92-3.32-4.26-5.46-5.23,0,0,1.97-1.64,1.97-1.64,3.4,21.03,6.63,42.08,9.37,63.21h0Z"></path><path class="cls-2" d="M957.99,150.04c2.33,15-14.7,25.87-27.36,17.14-8.23-5.43-10.11-17.82-3.84-25.43,9.51-12.09,29.01-6.73,31.21,8.3h0ZM957.99,150.04c-2.24-14.35-20.79-18.46-28.89-6.59-4.7,6.67-3.24,16.43,3.23,21.42,11.24,8.96,27.76-.46,25.66-14.83h0Z"></path></g><g><g><path class="cls-2" d="M976.3,138.97c5.26-.67,10.65,1.07,14.49,4.74-5.26.69-10.64-1.09-14.49-4.74h0Z"></path><path class="cls-2" d="M985.91,134.09c.67,5.26-1.07,10.65-4.74,14.49-.69-5.26,1.09-10.64,4.74-14.49h0Z"></path></g><g><path class="cls-2" d="M901.13,109.41c5.26-.67,10.65,1.07,14.49,4.74-5.26.69-10.64-1.09-14.49-4.74h0Z"></path><path class="cls-2" d="M910.74,104.54c.67,5.26-1.07,10.65-4.74,14.49-.69-5.26,1.09-10.64,4.74-14.49h0Z"></path></g><g><path class="cls-2" d="M890.59,69.85c7.53.06,14.96,2.47,21.06,6.89-7.53-.04-14.95-2.49-21.06-6.89h0Z"></path><path class="cls-2" d="M904.57,62.77c-.06,7.53-2.47,14.96-6.89,21.06.04-7.53,2.49-14.95,6.89-21.06h0Z"></path></g><g><path class="cls-2" d="M1078.37,144.79c5.26-.67,10.65,1.07,14.49,4.74-5.26.69-10.64-1.09-14.49-4.74h0Z"></path><path class="cls-2" d="M1087.99,139.92c.67,5.26-1.07,10.65-4.74,14.49-.69-5.26,1.09-10.64,4.74-14.49h0Z"></path></g><g><path class="cls-2" d="M1085.46,92.53c5.26-.67,10.65,1.08,14.49,4.74-5.26.69-10.64-1.09-14.49-4.74h0Z"></path><path class="cls-2" d="M1095.07,87.65c.67,5.26-1.07,10.65-4.74,14.49-.69-5.26,1.09-10.64,4.74-14.49h0Z"></path></g><g><path class="cls-2" d="M973.01,73.3c7.53.06,14.96,2.47,21.06,6.89-7.53-.04-14.96-2.49-21.06-6.89h0Z"></path><path class="cls-2" d="M986.99,66.21c-.06,7.53-2.47,14.96-6.89,21.06.04-7.53,2.49-14.95,6.89-21.06h0Z"></path></g></g></g><g><path d="M23.91,262.49c-.32,1.34-1.09,3.9-1.54,4.86-.8.16-3.29.73-5.44.73-8.29,0-11.81-5.15-11.81-10.78,0-6.33,4.67-10.94,12.19-10.94,2.56,0,4.89.57,5.66.64.06,1.63.29,3.58.45,4.9l-.58.13c-.64-2.27-1.44-3.49-3.23-4.32-.86-.42-1.79-.58-3.1-.58-4.8,0-6.85,4.29-6.85,9.57,0,6.18,2.88,10.59,7.62,10.59,2.98,0,4.71-1.79,6.11-4.99l.51.19Z"></path><path d="M42.56,264.44c-1.92,2.72-4.35,3.55-5.5,3.55-4,0-6.37-3.17-6.37-6.65,0-2.3.93-4.26,2.27-5.63,1.44-1.5,3.04-2.02,4.54-2.02,3.04,0,4.99,2.21,5.02,4.74,0,.51-.03.7-.16.74-1.02.19-5.09.48-8.1.61.03,3.94,2.27,5.76,4.48,5.76,1.15,0,2.3-.29,3.52-1.47l.29.38ZM36.61,254.52c-1.18,0-2.11,1.28-2.27,4.32,1.28,0,2.53,0,3.81-.1.48-.03.77-.06.77-.45,0-1.92-.93-3.78-2.3-3.78Z"></path><path d="M56.19,267.61h-7.42v-.51c1.63-.29,1.73-.42,1.73-2.75v-6.82c0-1.66-.26-1.86-1.44-2.24v-.42c1.66-.19,3.55-.57,5.18-1.25-.03.51-.1,2.21-.1,3.36.8-1.47,2.11-3.3,3.68-3.3,1.05,0,1.82.64,1.82,1.63,0,.86-.83,2.14-1.6,2.4-.42.16-.58.1-.8-.13-.58-.54-.9-.96-1.47-.96-.48,0-1.09.26-1.63,1.38v6.34c0,2.34.26,2.4,2.05,2.75v.51Z"></path><path d="M77.06,264.44c-1.92,2.72-4.35,3.55-5.5,3.55-4,0-6.37-3.17-6.37-6.65,0-2.3.93-4.26,2.27-5.63,1.44-1.5,3.04-2.02,4.54-2.02,3.04,0,4.99,2.21,5.02,4.74,0,.51-.03.7-.16.74-1.03.19-5.09.48-8.1.61.03,3.94,2.27,5.76,4.48,5.76,1.15,0,2.3-.29,3.52-1.47l.29.38ZM71.11,254.52c-1.18,0-2.11,1.28-2.27,4.32,1.28,0,2.53,0,3.81-.1.48-.03.77-.06.77-.45,0-1.92-.93-3.78-2.3-3.78Z"></path><path d="M99.26,267.61v-.51c1.54-.29,1.6-.48,1.6-2.66v-5.5c0-2.56-.93-3.17-2.14-3.17-.61,0-1.41.16-2.34.93.06.45.13.93.13,1.5v6.53c0,1.89.29,2.11,1.54,2.37v.51h-6.69v-.51c1.54-.26,1.57-.45,1.57-2.37v-6.05c0-2.3-.89-2.91-2.14-2.91-.8,0-1.41.29-2.21.9v8.06c0,1.89.1,2.08,1.47,2.37v.51h-6.88v-.51c1.7-.32,1.82-.45,1.82-2.66v-6.59c0-1.86-.19-2.05-1.47-2.53v-.42c1.66-.16,3.71-.77,5.12-1.28-.03.48-.06,1.54-.06,2.3.61-.38,1.06-.77,1.66-1.18,1.12-.74,1.86-1.06,2.72-1.06,1.57,0,2.69.93,3.23,2.4.67-.51,1.31-1.02,2.08-1.54.77-.51,1.44-.87,2.4-.87,2.5,0,3.78,1.89,3.78,5.06v5.95c0,1.98.1,2.11,1.54,2.4v.51h-6.72Z"></path><path d="M119.55,253.69c4.16,0,6.88,3.3,6.88,6.94,0,4.9-3.49,7.36-6.78,7.36-5.18,0-7.26-3.78-7.26-7.04,0-4.48,3.62-7.26,7.17-7.26ZM119.1,254.43c-1.63,0-2.53,1.79-2.53,5.57,0,4.22,1.22,7.33,3.17,7.33,1.25,0,2.53-.86,2.53-5.89,0-4.45-1.28-7.01-3.17-7.01Z"></path><path d="M140.99,267.61v-.51c1.54-.22,1.6-.51,1.6-3.2v-5.15c0-2.3-1.02-2.98-2.14-2.98-.8,0-1.63.22-2.43.9v7.81c0,2.24.16,2.27,1.66,2.62v.51h-7.17v-.51c1.66-.38,1.86-.54,1.86-2.95v-6.62c0-1.6-.22-1.79-1.47-2.24v-.42c1.82-.22,3.81-.73,5.18-1.25-.03.77-.06,1.57-.06,2.34.77-.51,1.28-.93,1.89-1.31.99-.67,1.57-.96,2.43-.96,2.69,0,3.9,1.98,3.9,4.9v5.86c0,2.24.13,2.37,1.54,2.66v.51h-6.78Z"></path><path d="M153.73,267.61v-.51c1.7-.29,1.76-.45,1.76-2.91v-6.46c0-1.86-.1-1.98-1.41-2.43v-.45c1.89-.22,3.62-.61,5.12-1.15-.03.67-.06,2.5-.06,3.74v6.75c0,2.37.16,2.56,1.86,2.91v.51h-7.26ZM157.06,250.94c-1.06,0-1.92-.86-1.92-2.02s.86-2.02,1.95-2.02c1.18,0,2.02.83,2.02,2.02s-.83,2.02-2.05,2.02Z"></path><path d="M176.67,267.99c-.8,0-1.38-.22-1.79-.64-.35-.35-.61-.87-.74-1.41-1.02.8-2.65,2.05-3.23,2.05-2.27,0-3.81-1.92-3.81-3.81,0-1.5.71-2.27,2.14-2.79,1.73-.64,4.06-1.21,4.83-1.79v-1.89c0-1.98-1.22-2.91-2.14-2.91-.58,0-.99.26-1.31.7-.22.32-.45.9-.74,2.11-.16.64-.38.87-.83.87-1.02,0-1.66-.83-1.66-1.47,0-.35.29-.74.93-1.15,1.6-1.02,3.62-1.95,4.83-2.18,1.38,0,2.14.42,2.85.9,1.31,1.02,1.63,2.3,1.63,4.16v5.5c0,1.31.48,1.76,1.06,1.76.22,0,.51-.03.73-.13l.16.51-2.91,1.6ZM174.08,260.28c-.48.26-.99.42-1.66.77-1.19.64-1.73,1.22-1.73,2.34,0,1.76.96,2.5,1.89,2.5.45,0,.93-.06,1.47-.51,0-1.86.03-3.23.03-5.09Z"></path></g><g><path d="M4.59,320.49v-19.26l-4.35,2.04-.24-.48,6.03-3.72h.6v21.42h-2.04Z"></path><path d="M24.09,320.91c-1.46,0-2.72-.36-3.79-1.06s-1.89-1.72-2.47-3.04-.87-2.88-.87-4.68.27-3.43.81-4.95c.54-1.52,1.3-2.86,2.29-4.02s2.16-2.09,3.51-2.8c1.35-.71,2.83-1.13,4.43-1.28l.06.54c-1.7.2-3.22.83-4.56,1.9s-2.4,2.49-3.17,4.26-1.15,3.84-1.15,6.2c0,2.54.45,4.54,1.34,6.02.89,1.47,2.08,2.21,3.58,2.21,1.26,0,2.28-.5,3.06-1.5.78-1,1.17-2.32,1.17-3.96s-.39-3.05-1.17-4.05c-.78-1-1.83-1.5-3.15-1.5-.98,0-1.95.25-2.91.75l-.27-.48c1.3-.74,2.61-1.11,3.93-1.11,1.16,0,2.17.26,3.03.77.86.51,1.54,1.22,2.03,2.14s.73,2,.73,3.24-.27,2.4-.81,3.36c-.54.96-1.29,1.71-2.27,2.25-.97.54-2.1.81-3.38.81Z"></path><path d="M39,307.29c0-.46.15-.84.45-1.12s.67-.44,1.11-.44c.46,0,.84.15,1.12.44.29.29.44.66.44,1.12s-.14.81-.44,1.11c-.29.3-.66.45-1.12.45s-.81-.15-1.11-.45c-.3-.3-.45-.67-.45-1.11ZM39,319.23c0-.46.15-.83.45-1.12.3-.29.67-.44,1.11-.44.46,0,.84.15,1.12.44s.44.67.44,1.12-.14.81-.44,1.11c-.29.3-.66.45-1.12.45s-.81-.15-1.11-.45c-.3-.3-.45-.67-.45-1.11Z"></path><path d="M54.6,309.33h-.66v-.72h.54c1.5,0,2.69-.38,3.56-1.12.87-.75,1.3-1.86,1.3-3.32,0-1.34-.36-2.4-1.07-3.19-.71-.79-1.65-1.19-2.83-1.19-.78,0-1.59.17-2.43.51s-1.55.8-2.13,1.38h-.18l-.15-1.59c.64-.3,1.4-.54,2.28-.73.88-.19,1.75-.29,2.61-.29,1.84,0,3.31.46,4.41,1.37s1.65,2.11,1.65,3.59c0,1.2-.38,2.22-1.14,3.06s-1.86,1.43-3.3,1.77v.18c1.7.32,3.03.99,3.98,2.03.95,1.03,1.42,2.3,1.42,3.82,0,1.22-.29,2.28-.88,3.18s-1.41,1.6-2.46,2.1c-1.05.5-2.27.75-3.67.75-.86,0-1.74-.1-2.64-.3-.9-.2-1.7-.46-2.4-.78l-.18-1.8h.18c.74.7,1.54,1.23,2.42,1.6.87.37,1.74.56,2.62.56,1.46,0,2.62-.49,3.49-1.47.87-.98,1.3-2.29,1.3-3.93s-.51-2.98-1.53-3.97-2.39-1.49-4.11-1.49Z"></path><path d="M71.31,309.99c0-2.2.3-4.11.9-5.74s1.45-2.9,2.54-3.81,2.36-1.37,3.79-1.37,2.73.46,3.81,1.37c1.08.91,1.92,2.18,2.52,3.81s.9,3.54.9,5.74-.3,4.09-.9,5.73-1.44,2.92-2.52,3.82c-1.08.91-2.35,1.37-3.81,1.37s-2.71-.46-3.79-1.37c-1.09-.91-1.94-2.18-2.54-3.82s-.9-3.55-.9-5.73ZM73.53,309.99c0,3.26.44,5.78,1.32,7.54.88,1.77,2.11,2.66,3.69,2.66s2.83-.88,3.71-2.66c.87-1.77,1.3-4.29,1.3-7.54s-.44-5.78-1.32-7.54-2.11-2.65-3.69-2.65-2.81.88-3.69,2.65c-.88,1.77-1.32,4.29-1.32,7.54Z"></path><path d="M108.57,320.49v-21h2.04v9.72h12.6v-9.72h2.04v21h-2.04v-10.56h-12.6v10.56h-2.04Z"></path><path d="M137.25,299.49h4.02c2.12,0,3.77.45,4.94,1.34s1.76,2.13,1.76,3.73c0,1.24-.37,2.27-1.1,3.09s-1.79,1.37-3.17,1.65v.18c1.32.26,2.4.88,3.24,1.86.84.98,1.47,2.19,1.89,3.63.38,1.32.75,2.35,1.12,3.07.37.73.78,1.26,1.23,1.58.45.32.98.55,1.61.69v.18h-1.23c-.88,0-1.61-.16-2.18-.48-.57-.32-1.05-.86-1.46-1.62s-.78-1.81-1.14-3.15c-.58-2.06-1.35-3.52-2.31-4.38-.96-.86-2.13-1.29-3.51-1.29h-.18v-.54h.18c3.22,0,4.83-1.48,4.83-4.44s-1.51-4.38-4.53-4.38h-1.98v20.28h-2.04v-21Z"></path><path d="M158.88,319.83l.18-1.8h.18c.78.68,1.66,1.21,2.64,1.59.98.38,1.95.57,2.91.57,1.36,0,2.46-.38,3.3-1.12s1.26-1.76,1.26-3.02c0-.7-.15-1.35-.46-1.95-.31-.6-.82-1.21-1.53-1.83-.71-.62-1.69-1.29-2.93-2.01-.86-.5-1.68-1.02-2.46-1.57-.78-.55-1.42-1.19-1.92-1.92-.5-.73-.75-1.61-.75-2.62,0-1.52.55-2.74,1.65-3.68,1.1-.93,2.55-1.39,4.35-1.39.8,0,1.66.09,2.58.26.92.17,1.63.38,2.13.64l-.15,1.68h-.18c-1.14-1.24-2.6-1.86-4.38-1.86-1.28,0-2.31.32-3.09.97-.78.65-1.17,1.53-1.17,2.62,0,.82.21,1.53.64,2.12.43.59.98,1.12,1.66,1.59.68.47,1.41.93,2.19,1.37.9.52,1.77,1.07,2.62,1.65.85.58,1.55,1.27,2.1,2.08.55.81.82,1.83.82,3.04,0,1.12-.26,2.11-.78,2.96-.52.85-1.26,1.52-2.21,2-.95.48-2.05.72-3.31.72-.8,0-1.74-.1-2.82-.3-1.08-.2-2.11-.46-3.09-.78Z"></path><path d="M179.4,319.23c0-.46.15-.83.45-1.12.3-.29.67-.44,1.11-.44s.83.15,1.12.44c.29.29.43.67.43,1.12s-.14.81-.43,1.11c-.29.3-.67.45-1.12.45s-.81-.15-1.11-.45-.45-.67-.45-1.11Z"></path></g><g><path d="M306.79,320.49v-19.26l-4.35,2.04-.24-.48,6.03-3.72h.6v21.42h-2.04Z"></path><path d="M332.67,315.42c0,1.1-.28,2.06-.84,2.88-.56.82-1.35,1.46-2.36,1.92-1.01.46-2.2.69-3.55.69-2.04,0-3.67-.47-4.9-1.41-1.23-.94-1.85-2.18-1.85-3.72,0-1.36.48-2.59,1.44-3.69.96-1.1,2.26-1.92,3.9-2.46-1.6-.96-2.75-1.87-3.45-2.73-.7-.86-1.05-1.84-1.05-2.94,0-1.48.54-2.67,1.63-3.55s2.52-1.33,4.28-1.33c1.18,0,2.21.19,3.09.57.88.38,1.57.92,2.07,1.6.5.69.75,1.49.75,2.38,0,1.1-.37,2.11-1.11,3.03s-1.78,1.68-3.12,2.28c1.32.8,2.35,1.55,3.08,2.26.73.71,1.24,1.41,1.54,2.1.3.69.45,1.39.45,2.11ZM321.12,315.66c0,1.4.43,2.5,1.29,3.32.86.81,2.03,1.21,3.51,1.21s2.64-.38,3.54-1.12,1.35-1.75,1.35-3.02c0-.7-.17-1.35-.51-1.96-.34-.61-.92-1.23-1.74-1.88-.82-.64-1.94-1.37-3.36-2.19-1.3.54-2.31,1.29-3.02,2.26-.71.97-1.06,2.1-1.06,3.38ZM321.81,303.3c0,.7.18,1.32.54,1.86.36.54.92,1.08,1.68,1.61.76.53,1.74,1.13,2.94,1.81.92-.46,1.64-1.1,2.17-1.93.53-.83.79-1.79.79-2.9,0-1.26-.36-2.23-1.08-2.92-.72-.69-1.7-1.04-2.94-1.04s-2.21.32-2.97.96c-.76.64-1.14,1.49-1.14,2.55Z"></path><path d="M341.52,307.29c0-.46.15-.83.45-1.12.3-.29.67-.43,1.11-.43s.83.15,1.12.43c.29.29.43.67.43,1.12s-.14.81-.43,1.11c-.29.3-.67.45-1.12.45s-.81-.15-1.11-.45c-.3-.3-.45-.67-.45-1.11ZM341.52,319.23c0-.46.15-.83.45-1.12.3-.29.67-.44,1.11-.44s.83.15,1.12.44c.29.29.43.67.43,1.12s-.14.81-.43,1.11c-.29.3-.67.45-1.12.45s-.81-.15-1.11-.45c-.3-.3-.45-.67-.45-1.11Z"></path><path d="M357.12,309.33h-.66v-.72h.54c1.5,0,2.69-.38,3.55-1.12s1.3-1.85,1.3-3.32c0-1.34-.36-2.4-1.06-3.19-.71-.79-1.66-1.19-2.84-1.19-.78,0-1.59.17-2.43.51-.84.34-1.55.8-2.13,1.38h-.18l-.15-1.59c.64-.3,1.4-.54,2.28-.73s1.75-.29,2.61-.29c1.84,0,3.31.46,4.41,1.37s1.65,2.1,1.65,3.58c0,1.2-.38,2.22-1.14,3.06s-1.86,1.43-3.3,1.77v.18c1.7.32,3.03,1,3.97,2.03s1.43,2.3,1.43,3.82c0,1.22-.3,2.28-.88,3.18-.59.9-1.41,1.6-2.46,2.1s-2.28.75-3.68.75c-.86,0-1.74-.1-2.64-.3-.9-.2-1.7-.46-2.4-.78l-.18-1.8h.18c.74.7,1.54,1.24,2.41,1.6.87.37,1.75.56,2.62.56,1.46,0,2.62-.49,3.5-1.47.87-.98,1.3-2.29,1.3-3.93s-.51-2.98-1.53-3.97c-1.02-.99-2.39-1.49-4.11-1.49Z"></path><path d="M373.83,309.99c0-2.2.3-4.11.9-5.75.6-1.63,1.45-2.9,2.54-3.81s2.36-1.37,3.79-1.37,2.73.46,3.81,1.37,1.92,2.18,2.52,3.81c.6,1.63.9,3.54.9,5.75s-.3,4.09-.9,5.73c-.6,1.64-1.44,2.92-2.52,3.82-1.08.91-2.35,1.37-3.81,1.37s-2.71-.46-3.79-1.37c-1.09-.91-1.93-2.18-2.54-3.82-.6-1.64-.9-3.55-.9-5.73ZM376.05,309.99c0,3.26.44,5.78,1.32,7.54.88,1.77,2.11,2.66,3.69,2.66s2.84-.88,3.71-2.66c.87-1.77,1.3-4.29,1.3-7.54s-.44-5.78-1.32-7.54c-.88-1.77-2.11-2.66-3.69-2.66s-2.81.88-3.69,2.66c-.88,1.77-1.32,4.29-1.32,7.54Z"></path><path d="M411.09,320.49v-21h2.04v9.72h12.6v-9.72h2.04v21h-2.04v-10.56h-12.6v10.56h-2.04Z"></path><path d="M439.77,299.49h4.02c2.12,0,3.76.45,4.94,1.33,1.17.89,1.75,2.13,1.75,3.74,0,1.24-.37,2.27-1.1,3.09-.73.82-1.78,1.37-3.16,1.65v.18c1.32.26,2.4.88,3.24,1.86.84.98,1.47,2.19,1.89,3.63.38,1.32.75,2.34,1.12,3.07.37.73.78,1.26,1.23,1.58.45.32.99.55,1.61.69v.18h-1.23c-.88,0-1.6-.16-2.17-.48-.57-.32-1.06-.86-1.46-1.62-.4-.76-.78-1.81-1.14-3.15-.58-2.06-1.35-3.52-2.31-4.38-.96-.86-2.13-1.29-3.51-1.29h-.18v-.54h.18c3.22,0,4.83-1.48,4.83-4.44s-1.51-4.38-4.53-4.38h-1.98v20.28h-2.04v-21Z"></path><path d="M461.4,319.83l.18-1.8h.18c.78.68,1.66,1.21,2.64,1.59s1.95.57,2.91.57c1.36,0,2.46-.38,3.3-1.12s1.26-1.75,1.26-3.02c0-.7-.16-1.35-.46-1.95-.31-.6-.82-1.21-1.53-1.83-.71-.62-1.69-1.29-2.92-2.01-.86-.5-1.68-1.02-2.46-1.57-.78-.55-1.42-1.19-1.92-1.92-.5-.73-.75-1.61-.75-2.62,0-1.52.55-2.75,1.65-3.68,1.1-.93,2.55-1.39,4.35-1.39.8,0,1.66.08,2.58.25s1.63.39,2.13.65l-.15,1.68h-.18c-1.14-1.24-2.6-1.86-4.38-1.86-1.28,0-2.31.33-3.09.98-.78.65-1.17,1.53-1.17,2.62,0,.82.21,1.53.64,2.11.43.59.98,1.12,1.67,1.59.68.47,1.41.92,2.19,1.36.9.52,1.78,1.07,2.62,1.65s1.55,1.27,2.1,2.08c.55.81.83,1.83.83,3.04,0,1.12-.26,2.11-.78,2.96-.52.85-1.25,1.51-2.21,2-.95.48-2.05.72-3.31.72-.8,0-1.74-.1-2.82-.3-1.08-.2-2.11-.46-3.09-.78Z"></path><path d="M481.92,319.23c0-.46.15-.83.45-1.12s.67-.44,1.11-.44c.46,0,.84.15,1.12.44.29.29.44.67.44,1.12s-.14.81-.44,1.11c-.29.3-.66.45-1.12.45s-.81-.15-1.11-.45c-.3-.3-.45-.67-.45-1.11Z"></path></g><g><path d="M608.87,320.49v-19.26l-4.35,2.04-.24-.48,6.03-3.72h.6v21.42h-2.04Z"></path><path d="M623.92,320.91l-.06-.54c1.7-.22,3.17-.9,4.41-2.04,1.24-1.14,2.2-2.61,2.87-4.41.67-1.8,1-3.77,1-5.91,0-2.54-.44-4.54-1.32-6.01-.88-1.47-2.06-2.21-3.54-2.21-1.26,0-2.28.49-3.04,1.46-.77.97-1.16,2.25-1.16,3.86s.38,2.95,1.16,3.93c.77.98,1.8,1.47,3.1,1.47.96,0,1.92-.25,2.88-.75l.27.48c-1.3.74-2.6,1.11-3.9,1.11-1.14,0-2.14-.25-3-.75-.86-.5-1.53-1.2-2.01-2.1-.48-.9-.72-1.95-.72-3.15,0-1.26.27-2.36.81-3.3.54-.94,1.29-1.67,2.25-2.19.96-.52,2.08-.78,3.36-.78,1.46,0,2.72.36,3.78,1.06,1.06.71,1.88,1.72,2.45,3.03.57,1.31.86,2.88.86,4.7,0,1.62-.24,3.18-.72,4.68-.48,1.5-1.17,2.86-2.08,4.07s-2.01,2.2-3.3,2.96-2.74,1.21-4.33,1.35Z"></path><path d="M643.18,307.29c0-.46.15-.83.45-1.12.3-.29.67-.43,1.11-.43s.83.15,1.12.43c.29.29.43.67.43,1.12s-.14.81-.43,1.11-.67.45-1.12.45-.81-.15-1.11-.45c-.3-.3-.45-.67-.45-1.11ZM643.18,319.23c0-.46.15-.83.45-1.12.3-.29.67-.44,1.11-.44s.83.15,1.12.44.43.67.43,1.12-.14.81-.43,1.11c-.29.3-.67.45-1.12.45s-.81-.15-1.11-.45-.45-.67-.45-1.11Z"></path><path d="M658.78,309.33h-.66v-.72h.54c1.5,0,2.69-.38,3.56-1.12.87-.75,1.3-1.85,1.3-3.32,0-1.34-.36-2.4-1.07-3.19s-1.66-1.19-2.83-1.19c-.78,0-1.59.17-2.43.51-.84.34-1.55.8-2.13,1.38h-.18l-.15-1.59c.64-.3,1.4-.54,2.28-.73.88-.19,1.75-.29,2.61-.29,1.84,0,3.31.46,4.41,1.37s1.65,2.1,1.65,3.58c0,1.2-.38,2.22-1.14,3.06s-1.86,1.43-3.3,1.77v.18c1.7.32,3.03,1,3.98,2.03.95,1.03,1.42,2.3,1.42,3.82,0,1.22-.3,2.28-.88,3.18-.59.9-1.41,1.6-2.46,2.1-1.05.5-2.27.75-3.67.75-.86,0-1.74-.1-2.64-.3-.9-.2-1.7-.46-2.4-.78l-.18-1.8h.18c.74.7,1.54,1.24,2.42,1.6.87.37,1.75.56,2.62.56,1.46,0,2.62-.49,3.5-1.47.87-.98,1.3-2.29,1.3-3.93s-.51-2.98-1.53-3.97c-1.02-.99-2.39-1.49-4.11-1.49Z"></path><path d="M675.49,309.99c0-2.2.3-4.11.9-5.75.6-1.63,1.45-2.9,2.54-3.81s2.36-1.37,3.79-1.37,2.73.46,3.81,1.37c1.08.91,1.92,2.18,2.52,3.81.6,1.63.9,3.54.9,5.75s-.3,4.09-.9,5.73c-.6,1.64-1.44,2.92-2.52,3.82-1.08.91-2.35,1.37-3.81,1.37s-2.71-.46-3.79-1.37c-1.09-.91-1.93-2.18-2.54-3.82-.6-1.64-.9-3.55-.9-5.73ZM677.71,309.99c0,3.26.44,5.78,1.32,7.54.88,1.77,2.11,2.66,3.69,2.66s2.83-.88,3.71-2.66c.87-1.77,1.3-4.29,1.3-7.54s-.44-5.78-1.32-7.54c-.88-1.77-2.11-2.66-3.69-2.66s-2.81.88-3.69,2.66c-.88,1.77-1.32,4.29-1.32,7.54Z"></path><path d="M712.75,320.49v-21h2.04v9.72h12.6v-9.72h2.04v21h-2.04v-10.56h-12.6v10.56h-2.04Z"></path><path d="M741.43,299.49h4.02c2.12,0,3.76.45,4.94,1.33,1.17.89,1.75,2.13,1.75,3.74,0,1.24-.37,2.27-1.1,3.09-.73.82-1.78,1.37-3.17,1.65v.18c1.32.26,2.4.88,3.24,1.86.84.98,1.47,2.19,1.89,3.63.38,1.32.75,2.34,1.12,3.07.37.73.78,1.26,1.23,1.58.45.32.99.55,1.61.69v.18h-1.23c-.88,0-1.6-.16-2.17-.48-.57-.32-1.06-.86-1.46-1.62-.4-.76-.78-1.81-1.14-3.15-.58-2.06-1.35-3.52-2.31-4.38-.96-.86-2.13-1.29-3.51-1.29h-.18v-.54h.18c3.22,0,4.83-1.48,4.83-4.44s-1.51-4.38-4.53-4.38h-1.98v20.28h-2.04v-21Z"></path><path d="M763.06,319.83l.18-1.8h.18c.78.68,1.66,1.21,2.64,1.59.98.38,1.95.57,2.91.57,1.36,0,2.46-.38,3.3-1.12s1.26-1.75,1.26-3.02c0-.7-.16-1.35-.46-1.95-.31-.6-.82-1.21-1.53-1.83s-1.69-1.29-2.92-2.01c-.86-.5-1.68-1.02-2.46-1.57s-1.42-1.19-1.92-1.92c-.5-.73-.75-1.61-.75-2.62,0-1.52.55-2.75,1.65-3.68,1.1-.93,2.55-1.39,4.35-1.39.8,0,1.66.08,2.58.25.92.17,1.63.39,2.13.65l-.15,1.68h-.18c-1.14-1.24-2.6-1.86-4.38-1.86-1.28,0-2.31.33-3.09.98-.78.65-1.17,1.53-1.17,2.62,0,.82.21,1.53.64,2.11.43.59.98,1.12,1.67,1.59.68.47,1.41.92,2.19,1.36.9.52,1.77,1.07,2.62,1.65.85.58,1.55,1.27,2.1,2.08.55.81.83,1.83.83,3.04,0,1.12-.26,2.11-.78,2.96-.52.85-1.25,1.51-2.21,2-.95.48-2.05.72-3.31.72-.8,0-1.74-.1-2.82-.3-1.08-.2-2.11-.46-3.09-.78Z"></path><path d="M783.58,319.23c0-.46.15-.83.45-1.12.3-.29.67-.44,1.11-.44s.83.15,1.12.44.43.67.43,1.12-.14.81-.43,1.11c-.29.3-.67.45-1.12.45s-.81-.15-1.11-.45-.45-.67-.45-1.11Z"></path></g><g><path d="M903.84,320.49v-.54l7.53-9.72c1.72-2.22,2.58-4.25,2.58-6.09,0-1.34-.36-2.4-1.08-3.18-.72-.78-1.67-1.17-2.85-1.17-.82,0-1.66.2-2.52.58-.86.39-1.63.93-2.31,1.61h-.18l-.15-1.62c.7-.4,1.5-.71,2.42-.95.91-.23,1.82-.34,2.74-.34,1.84,0,3.32.45,4.46,1.33,1.13.89,1.7,2.08,1.7,3.55,0,.92-.28,1.94-.84,3.04-.56,1.11-1.53,2.46-2.91,4.04l-6.66,7.65h10.98v1.8h-12.9Z"></path><path d="M928.77,320.49v-19.26l-4.35,2.04-.24-.48,6.03-3.72h.6v21.42h-2.04Z"></path><path d="M941.31,307.29c0-.46.15-.83.45-1.12.3-.29.67-.43,1.11-.43s.83.15,1.12.43c.29.29.43.67.43,1.12s-.14.81-.43,1.11c-.29.3-.67.45-1.12.45s-.81-.15-1.11-.45c-.3-.3-.45-.67-.45-1.11ZM941.31,319.23c0-.46.15-.83.45-1.12.3-.29.67-.44,1.11-.44s.83.15,1.12.44c.29.29.43.67.43,1.12s-.14.81-.43,1.11c-.29.3-.67.45-1.12.45s-.81-.15-1.11-.45c-.3-.3-.45-.67-.45-1.11Z"></path><path d="M956.91,309.33h-.66v-.72h.54c1.5,0,2.69-.38,3.55-1.12s1.3-1.85,1.3-3.32c0-1.34-.36-2.4-1.06-3.19-.71-.79-1.66-1.19-2.84-1.19-.78,0-1.59.17-2.43.51-.84.34-1.55.8-2.13,1.38h-.18l-.15-1.59c.64-.3,1.4-.54,2.28-.73s1.75-.29,2.61-.29c1.84,0,3.31.46,4.41,1.37s1.65,2.1,1.65,3.58c0,1.2-.38,2.22-1.14,3.06s-1.86,1.43-3.3,1.77v.18c1.7.32,3.03,1,3.97,2.03s1.43,2.3,1.43,3.82c0,1.22-.3,2.28-.88,3.18-.59.9-1.41,1.6-2.46,2.1s-2.28.75-3.68.75c-.86,0-1.74-.1-2.64-.3-.9-.2-1.7-.46-2.4-.78l-.18-1.8h.18c.74.7,1.54,1.24,2.41,1.6.87.37,1.75.56,2.62.56,1.46,0,2.62-.49,3.5-1.47.87-.98,1.3-2.29,1.3-3.93s-.51-2.98-1.53-3.97c-1.02-.99-2.39-1.49-4.11-1.49Z"></path><path d="M973.62,309.99c0-2.2.3-4.11.9-5.75.6-1.63,1.45-2.9,2.54-3.81s2.36-1.37,3.79-1.37,2.73.46,3.81,1.37,1.92,2.18,2.52,3.81c.6,1.63.9,3.54.9,5.75s-.3,4.09-.9,5.73c-.6,1.64-1.44,2.92-2.52,3.82-1.08.91-2.35,1.37-3.81,1.37s-2.71-.46-3.79-1.37c-1.09-.91-1.93-2.18-2.54-3.82-.6-1.64-.9-3.55-.9-5.73ZM975.84,309.99c0,3.26.44,5.78,1.32,7.54.88,1.77,2.11,2.66,3.69,2.66s2.84-.88,3.71-2.66c.87-1.77,1.3-4.29,1.3-7.54s-.44-5.78-1.32-7.54c-.88-1.77-2.11-2.66-3.69-2.66s-2.81.88-3.69,2.66c-.88,1.77-1.32,4.29-1.32,7.54Z"></path><path d="M1010.88,320.49v-21h2.04v9.72h12.6v-9.72h2.04v21h-2.04v-10.56h-12.6v10.56h-2.04Z"></path><path d="M1039.56,299.49h4.02c2.12,0,3.76.45,4.94,1.33,1.17.89,1.75,2.13,1.75,3.74,0,1.24-.37,2.27-1.1,3.09-.73.82-1.78,1.37-3.16,1.65v.18c1.32.26,2.4.88,3.24,1.86.84.98,1.47,2.19,1.89,3.63.38,1.32.75,2.34,1.12,3.07.37.73.78,1.26,1.23,1.58.45.32.99.55,1.61.69v.18h-1.23c-.88,0-1.6-.16-2.17-.48-.57-.32-1.06-.86-1.46-1.62-.4-.76-.78-1.81-1.14-3.15-.58-2.06-1.35-3.52-2.31-4.38-.96-.86-2.13-1.29-3.51-1.29h-.18v-.54h.18c3.22,0,4.83-1.48,4.83-4.44s-1.51-4.38-4.53-4.38h-1.98v20.28h-2.04v-21Z"></path><path d="M1061.19,319.83l.18-1.8h.18c.78.68,1.66,1.21,2.64,1.59s1.95.57,2.91.57c1.36,0,2.46-.38,3.3-1.12s1.26-1.75,1.26-3.02c0-.7-.16-1.35-.46-1.95-.31-.6-.82-1.21-1.53-1.83-.71-.62-1.69-1.29-2.92-2.01-.86-.5-1.68-1.02-2.46-1.57-.78-.55-1.42-1.19-1.92-1.92-.5-.73-.75-1.61-.75-2.62,0-1.52.55-2.75,1.65-3.68,1.1-.93,2.55-1.39,4.35-1.39.8,0,1.66.08,2.58.25s1.63.39,2.13.65l-.15,1.68h-.18c-1.14-1.24-2.6-1.86-4.38-1.86-1.28,0-2.31.33-3.09.98-.78.65-1.17,1.53-1.17,2.62,0,.82.21,1.53.64,2.11.43.59.98,1.12,1.67,1.59.68.47,1.41.92,2.19,1.36.9.52,1.78,1.07,2.62,1.65s1.55,1.27,2.1,2.08c.55.81.83,1.83.83,3.04,0,1.12-.26,2.11-.78,2.96-.52.85-1.25,1.51-2.21,2-.95.48-2.05.72-3.31.72-.8,0-1.74-.1-2.82-.3-1.08-.2-2.11-.46-3.09-.78Z"></path><path d="M1081.71,319.23c0-.46.15-.83.45-1.12s.67-.44,1.11-.44c.46,0,.84.15,1.12.44.29.29.44.67.44,1.12s-.14.81-.44,1.11c-.29.3-.66.45-1.12.45s-.81-.15-1.11-.45c-.3-.3-.45-.67-.45-1.11Z"></path></g></g></svg>