<svg width="1920" height="1080" viewBox="0 0 1920 1080" fill="none" xmlns="http://www.w3.org/2000/svg">
  <defs>
    <linearGradient id="base" x1="120" y1="40" x2="1800" y2="980" gradientUnits="userSpaceOnUse">
      <stop offset="0" stop-color="#FCFBF9"/>
      <stop offset="0.55" stop-color="#F5F0EA"/>
      <stop offset="1" stop-color="#ECE3D9"/>
    </linearGradient>

    <radialGradient id="lightA" cx="0" cy="0" r="1" gradientUnits="userSpaceOnUse" gradientTransform="translate(380 220) rotate(20) scale(520 360)">
      <stop offset="0" stop-color="#FFFFFF" stop-opacity="0.75"/>
      <stop offset="1" stop-color="#FFFFFF" stop-opacity="0"/>
    </radialGradient>

    <radialGradient id="lightB" cx="0" cy="0" r="1" gradientUnits="userSpaceOnUse" gradientTransform="translate(1540 860) rotate(-15) scale(560 380)">
      <stop offset="0" stop-color="#FFFFFF" stop-opacity="0.5"/>
      <stop offset="1" stop-color="#FFFFFF" stop-opacity="0"/>
    </radialGradient>

    <pattern id="icons" width="360" height="360" patternUnits="userSpaceOnUse">
      <g opacity="0.28">
        <circle cx="78" cy="90" r="30" fill="#FFFFFF"/>
        <circle cx="78" cy="90" r="30" stroke="#A67E70" stroke-width="2"/>
        <polygon points="78,73 90,81 85,95 71,95 66,81" fill="#A67E70"/>
        <polygon points="61,83 68,87 66,95 58,95 55,87" fill="#A67E70"/>
        <polygon points="95,83 102,87 100,95 92,95 89,87" fill="#A67E70"/>
        <polygon points="70,99 77,104 75,112 67,112 64,104" fill="#A67E70"/>
        <polygon points="85,99 92,104 90,112 82,112 79,104" fill="#A67E70"/>
      </g>

      <g opacity="0.3">
        <path d="M256 82L294 103L256 124L265 103L256 82Z" fill="#B89387"/>
        <rect x="239" y="99" width="23" height="8" rx="4" fill="#B89387"/>
      </g>

      <g opacity="0.25">
        <rect x="228" y="236" width="42" height="32" rx="7" fill="#C4A89F"/>
        <rect x="239" y="226" width="20" height="11" rx="4" stroke="#A67E70" stroke-width="2"/>
      </g>

      <g opacity="0.3">
        <path d="M95 238C109 221 132 221 146 238" stroke="#B89387" stroke-width="4" stroke-linecap="round"/>
        <circle cx="120" cy="255" r="13" fill="#FFFFFF"/>
        <circle cx="120" cy="255" r="13" stroke="#C4A89F" stroke-width="2"/>
        <path d="M116 252C119 248 124 248 127 252" stroke="#A67E70" stroke-width="2" stroke-linecap="round"/>
        <path d="M116 258C119 262 124 262 127 258" stroke="#A67E70" stroke-width="2" stroke-linecap="round"/>
      </g>

      <g opacity="0.22" stroke="#C4A89F" stroke-width="2" stroke-linecap="round">
        <path d="M14 166C32 158 46 160 58 172"/>
        <path d="M302 170C286 160 270 162 258 176"/>
      </g>

      <g opacity="0.26">
        <circle cx="176" cy="166" r="2.6" fill="#B89387"/>
        <circle cx="190" cy="178" r="2.2" fill="#C4A89F"/>
        <circle cx="162" cy="181" r="2.2" fill="#C4A89F"/>
      </g>
    </pattern>
  </defs>

  <rect width="1920" height="1080" fill="url(#base)"/>
  <rect width="1920" height="1080" fill="url(#lightA)"/>
  <rect width="1920" height="1080" fill="url(#lightB)"/>
  <rect width="1920" height="1080" fill="url(#icons)"/>
</svg>
