<svg width="240" height="240" viewBox="0 0 240 240" fill="none" xmlns="http://www.w3.org/2000/svg">
  <g opacity="0.42" stroke="#A67E70" stroke-width="2">
    <path d="M46 54c8 0 14-6 14-14 0 8 6 14 14 14-8 0-14 6-14 14 0-8-6-14-14-14z"/>
    <path d="M156 72c9 0 16-7 16-16 0 9 7 16 16 16-9 0-16 7-16 16 0-9-7-16-16-16z"/>
    <path d="M86 170c8 0 14-6 14-14 0 8 6 14 14 14-8 0-14 6-14 14 0-8-6-14-14-14z"/>
    <path d="M184 186c7 0 12-5 12-12 0 7 5 12 12 12-7 0-12 5-12 12 0-7-5-12-12-12z"/>
  </g>
  <g opacity="0.28" fill="#B89387">
    <circle cx="60" cy="54" r="3.5"/>
    <circle cx="172" cy="72" r="4"/>
    <circle cx="100" cy="170" r="3.5"/>
    <circle cx="196" cy="186" r="3"/>
  </g>
  <g opacity="0.26" stroke="#C4A89F" stroke-width="1.6" stroke-linecap="round">
    <path d="M24 122c20-8 34-6 46 8"/>
    <path d="M128 22c6 16 6 30-4 42"/>
    <path d="M198 128c-14 10-22 22-24 38"/>
  </g>
</svg>
