<svg xmlns="http://www.w3.org/2000/svg" id="Capa_2" data-name="Capa 2" viewBox="0 0 81.96 72.34"><defs><style>      .cls-1 {        fill: #e6dcd3;      }    </style></defs><g id="Capa_1-2" data-name="Capa 1"><path d="M26.95.56v27.99h-2.72V2.88h-.24l-9.68,18.56h-1.24L2.08,5.08h-.24l.88,23.48H0L1,0h.8l12.6,18.72h.24L24.08.56h2.88Z"></path><path class="cls-1" d="M50.73,20.86c-1.85,1-10.32,9.16-8.55,10.09,2.08,1.23,12.47-6.39,14.32-7.78.69-.54,1.92-1.15,2.77-1.15.62,0,1,.39.69,1.54-2.31,2.31-6.62,10.09-9.24,13.47,14.55-2.77,23.71-11.01,28.95-13.94.46-.23.85.15.77.77-7.01,5.62-18.02,11.47-31.41,15.32-3.62,5.7-23.87,28.1-31.41,30.18-.92.15-2,.38-3.08.38-2.39,0-4.62-.85-4.62-3.85,0-14.01,25.49-26.02,35.8-27.33,3.23-.77,8.01-9.78,10.39-12.7-2.54,1.92-8.78,6.54-12.86,6.54-.54,0-1.08-.08-1.54-.23-5.31-1.92,6.85-13.24,9.01-13.24.46,0,.92,1.46,0,1.92ZM44.57,40.5c-8.85,0-32.88,15.55-32.88,25.1,0,1.39.85,2.23,3.23,2.23,5.54,0,29.64-26.18,29.64-27.33Z"></path><path d="M59.73,72.34v-27.99h2.72v12.96h16.8v-12.96h2.72v27.99h-2.72v-14.08h-16.8v14.08h-2.72Z"></path></g></svg>