<svg xmlns="http://www.w3.org/2000/svg" viewBox="0 0 550.95 515.97"><defs><style>.cls-1{fill:#957845;}</style></defs><title>Recurso 22</title><g id="Capa_2" data-name="Capa 2"><g id="Capa_1-2" data-name="Capa 1"><path class="cls-1" d="M90.65,86.09c.2-1.31.3-3.13,2-3,0,14.63-17.25,34-28.25,43.38-10.39,8.87-31.87,19.87-45.9,22.19-1.31,0-3.43.2-4.54-.5v-1l4-2c11.1-8.58,25.72-44.59,27.74-45.9-8.68-1.21-16-6.56-25.22-6.56a43.13,43.13,0,0,0-19.67,5c-1.21.1-1.11-2.22,0-2.52,6.46-2.63,12.61-4.54,19.67-4.54,11,0,19.47,7.06,27.24,7.06,2-2,7.36-3,10.09-3,5,0,5.85,6-2,6a36.11,36.11,0,0,1-7.37-.7C39.4,113.53,41,126.64,23.06,145.1,55.14,137.23,78.44,113.93,90.65,86.09ZM55.85,98.7c4.54,0,3.63-2.22-.51-1.82-1.21.2-3.33.4-4.23,1.31A14.7,14.7,0,0,0,55.85,98.7Z"></path><path class="cls-1" d="M91.15,128.76c.51,0,1.52-.61,3.64-2.12,3.63-2.62,3.73-2.52,4.54-2.52,1.71,0,1.71.5,1.71,2a2,2,0,0,1-.4.61C96.8,131.38,85.3,141,85.3,148.83c0,1,.71,1.31,1.72,1.31,8.47,0,28.14-18.86,39.44-20.27,1.21-.1,2,0,2,.7s-.81,1-7.57,3.13c-8.47,2.72-26.73,18.46-34.5,18.46a3.26,3.26,0,0,1-2.42-.91c-3.33-3.33.51-10.08,2.62-13.21,2.43-3.63,3.13-4.74,2.63-4.74a4.48,4.48,0,0,0-1.31.5c-1.82.91-7.17,3.94-8.78,3.94-8.68,0,.3-14,8-14a6,6,0,0,1,2.32.51C92.26,125.43,90,128.76,91.15,128.76Zm-2.22.3c-.3-1.51.61-2.93-1.51-2.93-4.94,0-11.7,9.49-8.17,9.49,2.62,0,11.2-6,10.49-6.26C89.44,129.26,89,129.36,88.93,129.06Z"></path><path class="cls-1" d="M139.07,118.06c2.52,0,3.43,1.62,3.23,3.13-.61,5.35-8.27,7.67-13,10.39-1.31.91-2,2.52-2.21,6.26,11.9,0,27.13-9,40.85-9.18.61.2,1.11.5,1.11,1.21,0,.9-1.21.8-1.72.8-9.78,0-28.24,8.17-40.95,9.28-1.41,5.86-6.76,8.88-12.21,8.88-6.15,0-12.3-3.93-12.91-12.2a1.85,1.85,0,0,1,2-1.21c7,2.32,12.31,2.82,19.77,2.82C125.55,130.77,129.18,118.06,139.07,118.06Zm-35.41,19.68h-.2c1,5.34,6.66,8,11.2,8a7.83,7.83,0,0,0,7.16-5.44C111.83,140.26,109.31,138.74,103.66,137.74Zm35.61-17.86c-2.12,0-10.09,7.77-9.68,9.89,3.83-1.11,10.49-5.45,10.49-9.08C140,120.18,139.67,119.88,139.27,119.88Z"></path><path class="cls-1" d="M202.82,130.57c-9.08,6.36-25.62,18.67-36.82,18.67-14.93,0,3.13-27.95,13.62-28.75,4.44,0,6,1.81,6.56,5a2,2,0,0,1-1,1.51c-1.11-.5-1-1.41-1-2.52a4,4,0,0,0-2.93-1.21c-7,0-18.25,13.82-18.25,20.68,0,1.11.5,2.22,4,2.72,6.56,0,21.39-8.27,26.83-12.1,3.74-2.62,4.44-3.33,8.07-5.25C202.92,129.06,203.53,129.87,202.82,130.57Zm18.26,11.3c0-.1.3-.2.4-.2a.39.39,0,0,1,.31.1c0-.1.1-.1.2-.1v.5c-.1,0-.2,0-.2-.1a.39.39,0,0,1-.31.1C221.38,142.17,221.08,142.07,221.08,141.87Z"></path><path class="cls-1" d="M209.08,134.1a27.12,27.12,0,0,0,5.65.61c15.33,0,27.33-13.72,39.94-13.72,7,0-.4,9.18-2.92,11.7l-2.93,3.13v.5c1.31,0,12.21-7.56,16.65-7.56,3.22,0,3.32,3.23,1.51,5-2.42,2.42-4.54,6.66-4.54,10.09a2,2,0,0,0,1.51.5c3.13,0,8.78-3.63,10.49-4.44,12.21-6.15,21-10.39,28.65-10.39.51.51.51.51.51,1-.51.51-1,1-1.52,1a30.44,30.44,0,0,0-10.59,2c-15.73,5.55-22,12.81-28.55,12.81a3,3,0,0,1-2-.5c-4-4,1.51-11.91,5-14.63v-.51a.79.79,0,0,0-.71-.3c-2.82,0-12.3,5.25-15.43,7.37l-10.09,7.56c-.5.51-1.51,1.52-2,1.52-1.32,0-1.52-1.52-1.52-2.53,1.52-2,7.57-8.07,8.58-9.08l3.63-3.83c.4-.5,1.31-1.41,2.32-2.42.91-.81,1.71-1.72,2.52-2.52,1.82-2,2.92-3.94.3-3.94-12.81,0-23.5,16-45.8,13.72-1.1,1-3.63,7.87-9.28,7.87-6.65,0-3-10.89,2.53-13.11,1-4.64,2.72-11.1,8.07-11.1C216.24,120,212.1,131.18,209.08,134.1Zm-3.64,1.32c-1.21-.61-2.21-2.22-3.63-2.22-4.74,4.54-4.74,8.87-2.62,8.87C201.61,142.07,204.94,137.33,205.44,135.42Zm3.13-12.92c-2.32,0-4.44,3.63-5.24,6.76,0,2.52,1.21,3,3.73,3.83C208,131.68,213.72,122.2,208.57,122.5Z"></path><path class="cls-1" d="M337.09,130.57c-9.08,6.36-25.62,18.67-36.82,18.67-14.93,0,3.13-27.95,13.62-28.75,4.44,0,6.05,1.81,6.55,5a2,2,0,0,1-1,1.51c-1.11-.5-1-1.41-1-2.52a4,4,0,0,0-2.93-1.21c-7,0-18.26,13.82-18.26,20.68,0,1.11.51,2.22,4,2.72,6.56,0,21.38-8.27,26.83-12.1,3.73-2.62,4.44-3.33,8.07-5.25C337.19,129.06,337.8,129.87,337.09,130.57Zm18.26,11.3c0-.1.3-.2.4-.2a.37.37,0,0,1,.3.1c0-.1.1-.1.21-.1v.5c-.11,0-.21,0-.21-.1a.37.37,0,0,1-.3.1C355.65,142.17,355.35,142.07,355.35,141.87Z"></path><path class="cls-1" d="M350.71,122.5c0,4.84-8.48,7.06-11.81,8.58-1.91,2.82-8.47,16.14-.3,16.14,8.88,0,28.65-13,37.93-17.66.61-.3,1.11.61.81,1-1.92,3.23-32.08,19.17-39.24,19.17-5.55,0-7.47-2.62-7.47-6.36,0-7.86,8.78-22.89,18.16-22.89C349.9,120.49,350.71,121,350.71,122.5Zm-2.53,0c-1.51,0-7.36,4.44-7.36,6.06C343,128.45,348.49,124,348.18,122.5Z"></path><path class="cls-1" d="M372.19,135.42c8.07-12.41,44.19-57.3,58-57.3,2.32,0,4,.91,4,3.33,0,14.42-35.91,44.89-50.44,44.89-3,3-16.84,25.21-16.84,29.86,0,1.71,1.31,2.42,2.82,2.42,11.4,0,43.18-25.53,59.22-37.43,15.23-19.37,41.05-48.52,51.54-48.52,2.32,0,4,.91,4,3.33,0,14.42-36.32,44.69-50.84,44.69-3,3-20.48,30.86-20.48,35.51,0,1.71,1.31,2.42,2.82,2.42,12.51,0,31.78-29.06,53.07-29.06.9,0,.8,1,.8,1.62-22,.6-40.85,30-54,30-3.63,0-6.05-1-6.05-5,0-5.54,5.55-15.93,8.58-20.67,1.31-2,3.53-5,6.25-8.78-17.25,13.21-44.18,34.5-55.08,34.5-3.63,0-6.05-1-6.05-5C363.62,150.55,369.17,140.16,372.19,135.42Zm13.12-10.6c18.56-6.86,37.93-22.59,46.2-39.64.91-1.92,1.41-5.25-.81-5.25-12.2,5.75-19.87,14.83-29.25,24.21a156,156,0,0,0-16.14,20.18Zm49.93-5.65c12.21-1.91,38.33-22.39,46.61-39.44.9-1.92,1.41-5.24-.81-5.24-10.9,5.14-36.42,31.47-45.8,44.18Z"></path><path class="cls-1" d="M476.6,133.9a35.5,35.5,0,0,0,9.38,1.31c10.19,0,17.66-4.64,22.4-5.54.5,0,.5.5.5,1s-.7.71-1,1c-6.66,1.52-12.3,5-23.7,5a75,75,0,0,1-8.88-.61c-1.11,1-3.63,7.87-9.28,7.87-6.66,0-3-10.9,2.52-13.11,1-4.64,2.72-11.1,8.07-11.1C483.76,119.78,479.63,131,476.6,133.9ZM473,135.21c-1.21-.6-2.22-2.22-3.63-2.22-4.74,4.54-4.74,8.88-2.62,8.88C469.14,141.87,472.47,137.13,473,135.21Zm3.13-12.91c-2.32,0-4.44,3.63-5.25,6.76,0,2.52,1.21,3,3.73,3.83C475.49,131.48,481.24,122,476.1,122.3Z"></path><path class="cls-1" d="M521,118.06c2.52,0,3.43,1.62,3.23,3.13-.61,5.35-8.28,7.67-13,10.39-1.31.91-2,2.52-2.22,6.26,11.91,0,27.14-9,40.86-9.18.6.2,1.11.5,1.11,1.21,0,.9-1.21.8-1.72.8-9.78,0-28.24,8.17-41,9.28-1.42,5.86-6.76,8.88-12.21,8.88-6.15,0-12.31-3.93-12.91-12.2a1.85,1.85,0,0,1,2-1.21c7,2.32,12.3,2.82,19.77,2.82C507.47,130.77,511.1,118.06,521,118.06Zm-35.41,19.68h-.2c1,5.34,6.66,8,11.19,8a7.84,7.84,0,0,0,7.17-5.44C493.75,140.26,491.23,138.74,485.58,137.74Zm35.61-17.86c-2.12,0-10.09,7.77-9.69,9.89,3.84-1.11,10.5-5.45,10.5-9.08C521.89,120.18,521.59,119.88,521.19,119.88Z"></path><path class="cls-1" d="M35.87,0c7.29,0,13.86.88,15.75,2.19l.37,8.6v1.39c0,.44.07,1,.07,1.38-1-2.33-2.41-5.68-3.43-8a3.94,3.94,0,0,0-1.75-2,40.87,40.87,0,0,0-11-1.45c-11.3,0-19.32,9.33-19.32,22.53,0,14.14,7.58,24.21,18.23,24.21a46.72,46.72,0,0,0,12.61-1.68,3.77,3.77,0,0,0,2-2c1-2,2.34-4.81,3.29-6.85l-.08,1.24c0,.36-.07.8-.07,1.16l-.44,7.73C49.51,50,42.29,51,34.78,51,19.9,51,9.33,41,9.33,27,9.33,11.23,20.34,0,35.87,0Z"></path><path class="cls-1" d="M78.3,48.42A6.31,6.31,0,0,0,80.7,46h.08c2.7-6.41,14.8-34.93,17.5-41.42L100.1.37h3.36l19.69,45.94a6.57,6.57,0,0,0,2.4,2.48l3.28,1.45H109.14l5.62-2.48a2.19,2.19,0,0,0,1.09-1.53c-.94-2.26-3.06-7.14-5.76-13.63v.14h-21c-2.55,6.13-4.67,11.3-5.54,13.35a2.14,2.14,0,0,0,1,1.67l5,2.48H73.92Zm30.84-18c-4.66-11.23-8.38-20-9.55-22.75-2.19,5.1-5,11.74-9.55,22.75Z"></path><path class="cls-1" d="M194,.73v13.2l-3.35-9.19a3.42,3.42,0,0,0-2.33-1.68h-13.5V45.79a3.41,3.41,0,0,0,1.68,2.34l5.91,2.11h-22.1l5.91-2.11a3.41,3.41,0,0,0,1.68-2.34V3.06H154.42a3.41,3.41,0,0,0-2.34,1.68l-3.35,9.19V.73Z"></path><path class="cls-1" d="M216.9,48.42A6.31,6.31,0,0,0,219.3,46h.08c2.7-6.41,14.8-34.93,17.5-41.42L238.7.37h3.36l19.68,45.94a6.67,6.67,0,0,0,2.41,2.48l3.28,1.45H247.74l5.62-2.48a2.19,2.19,0,0,0,1.09-1.53c-.95-2.26-3.06-7.14-5.76-13.63v.14h-21c-2.55,6.13-4.67,11.3-5.54,13.35a2.14,2.14,0,0,0,1,1.67l5,2.48H212.52Zm30.84-18c-4.66-11.23-8.38-20-9.55-22.75-2.19,5.1-5,11.74-9.55,22.75Z"></path><path class="cls-1" d="M309.93.73c10.29,0,17.58,5.76,17.58,13.78,0,6.49-4.74,11.52-12,13.49,1.38,1.75,10.28,12.69,14.65,18a12.42,12.42,0,0,0,3.14,2.48l4.23,1.75H324.66L307.75,29h-5.84V45.79a3.83,3.83,0,0,0,1.68,2.48l4.08,2H288.79l4.44-2a3.67,3.67,0,0,0,1.68-2.48V5.18a3.67,3.67,0,0,0-1.68-2.48l-4.44-2Zm-8,2.33V26.62H309c6.42,0,10.94-4.74,10.94-11.45,0-7.08-4.52-12.11-10.94-12.11Z"></path><path class="cls-1" d="M357.17.73h19.18l-4.45,2a3.66,3.66,0,0,0-1.67,2.48V45.79a3.66,3.66,0,0,0,1.67,2.48l4.45,2H357.17l4.45-2a3.67,3.67,0,0,0,1.68-2.48V5.18a3.67,3.67,0,0,0-1.68-2.48Z"></path><path class="cls-1" d="M405.8,48.27a3.67,3.67,0,0,0,1.68-2.48V5.18A5.8,5.8,0,0,0,405.8,3.5L401.72.73h8.67s29.17,33,34.2,38.79V5.18a3.42,3.42,0,0,0-1.67-2.34L437,.73h16.33l-4.08,2a3.83,3.83,0,0,0-1.68,2.48V50.61H445.4l-1.54-1.82S415.35,14.73,410.39,8.9V45.79c0,.37.95,1.32,1.68,1.68L418,50.24H401.35Z"></path><path class="cls-1" d="M477.76,48.42A6.41,6.41,0,0,0,480.17,46h.07c2.7-6.41,14.8-34.93,17.5-41.42L499.56.37h3.36l19.69,45.94a6.57,6.57,0,0,0,2.4,2.48l3.29,1.45H508.61l5.61-2.48a2.19,2.19,0,0,0,1.09-1.53c-.94-2.26-3.06-7.14-5.76-13.63v.14h-21C486,38.87,483.89,44,483,46.09a2.14,2.14,0,0,0,1,1.67l5,2.48h-15.6Zm30.85-18c-4.67-11.23-8.39-20-9.56-22.75-2.18,5.1-4.95,11.74-9.55,22.75Z"></path><path class="cls-1" d="M127.41,326.6c10.28,0,17.57,5.76,17.57,13.78,0,8.46-8,14.44-19.4,14.44h-6.12v16.85a3.4,3.4,0,0,0,1.68,2.33l5.54,2.12H106.33l4.45-2a3.67,3.67,0,0,0,1.68-2.48V331.05a3.67,3.67,0,0,0-1.68-2.48l-4.45-2Zm-1,25.89c6.49,0,11.08-4.74,11.08-11.45,0-7.07-4.59-12.1-11-12.1h-7.07v23.55Z"></path><path class="cls-1" d="M208.05,326.6v11l-3-7a3.68,3.68,0,0,0-2.48-1.67H182.52v21.87h8.9v-.07a4.12,4.12,0,0,0,2.62-1.68l2.34-4.45V359.2L194,354.75a4.31,4.31,0,0,0-2.33-1.68c-3.43.08-5.54.08-9.19.08v20.63H204.4a3.58,3.58,0,0,0,2.41-1.67l3.06-7.73v11.74H169.4l4.45-2a3.69,3.69,0,0,0,1.67-2.48V331.05a3.69,3.69,0,0,0-1.67-2.48l-4.45-2Z"></path><path class="cls-1" d="M255.58,326.6c16.55,0,28.36,8,28.36,22.54,0,16.77-11.3,27-27.12,27H234.29l4.44-2a3.67,3.67,0,0,0,1.68-2.48V331.05a3.67,3.67,0,0,0-1.68-2.48l-4.44-2Zm-8.17,47.18h9.34c11.66,0,19.9-8.31,19.9-22,0-14.66-9.19-22.82-22.17-22.82h-7.07Z"></path><path class="cls-1" d="M329.51,326.6c10.28,0,17.57,5.76,17.57,13.78,0,6.5-4.74,11.53-12,13.5,1.39,1.75,10.28,12.68,14.66,18a12.43,12.43,0,0,0,3.13,2.48l4.23,1.75H344.24l-16.92-21.3h-5.83v16.85a3.84,3.84,0,0,0,1.67,2.48l4.09,2H308.36l4.45-2a3.67,3.67,0,0,0,1.68-2.48V331.05a3.67,3.67,0,0,0-1.68-2.48l-4.45-2Zm-8,2.34v23.55h7.07c6.42,0,10.94-4.74,10.94-11.45,0-7.07-4.52-12.1-10.94-12.1Z"></path><path class="cls-1" d="M376.68,351.54c0-15,10.64-25.67,25.66-25.67s25.6,10.65,25.6,25.67c0,14.8-10.65,25.31-25.6,25.31S376.68,366.34,376.68,351.54Zm26.47,23.19c10.21,0,17.42-8.53,17.42-20.49,0-15.39-7.87-26.32-19-26.32-10.21,0-17.5,8.67-17.5,20.92C384,364,392,374.73,403.15,374.73Z"></path><path class="cls-1" d="M114.68,415.49c7-1.71,5.65,6.46-2.52,6.56h-5c-.81,0-14.33,13.22-14.63,14.63l1-.51c1.51-.1,23.1-14.12,35.81-14.12,4.54,0,6.66,2.42,6.66,5.85,0,8.88-15.84,23-40.25,21.29,6.15,22.69-4.14,57.5,35.61,57.5,4.74,0,6.86-.81,9.58-2.53,1.11-.7,1.41-1.51,3-1.51.7,0,1,.2,1,1,0,3.13-9,5-11.1,5-33.59,0-38.23-13.92-38.23-41.46,0-17.15-3.63-20-3.63-21a1.9,1.9,0,0,1,1-.5c.9,0,1.51,1.81,6.55,2,8.68.31,35.41-10,34.5-21.18-.91-2.22-2.22-2-4.24-2-11.8,0-30,10.39-39.84,16.14-6.56,7.77-27,40.86-42.37,40.86-2.12,0-2.12-3.13-1.51-4.54,3.93-6.56,9-11,14.62-16.14,4.34-3.94,15.54-13.12,20.89-15.84,1-.1,4.13-4.94,4.84-5.85,5-6.36,11-11.5,16.64-17.15A160.56,160.56,0,0,0,79,419.73c-10.69,0-16.24,2.12-21.79,4.84a4.52,4.52,0,0,1-2.52,2c-.4,0-1,0-1-.5s2.93-3.94,3.53-4c5.86-3.53,12.21-4.64,18.77-4.64,10.08,0,20.58,2.62,30.16,2.62C108.93,418.12,111.35,416.3,114.68,415.49ZM48.11,478.54a.55.55,0,0,0,.6.4c4.14,0,27.14-22.69,31.47-30.76C72,453.22,51.54,470,48.11,478.54Zm63-58.51c4.24-.2,8.78-3,4.54-3-2.22,0-5.34,2.62-6.25,3.12Z"></path><path class="cls-1" d="M127.6,465.53a35.39,35.39,0,0,0,9.38,1.31c10.18,0,17.65-4.64,22.39-5.55.51,0,.51.51.51,1s-.71.71-1,1c-6.66,1.51-12.31,5-23.71,5a75,75,0,0,1-8.88-.6c-1.11,1-3.63,7.87-9.28,7.87-6.65,0-3-10.9,2.52-13.12,1-4.64,2.73-11.09,8.08-11.09C134.76,451.41,130.62,462.6,127.6,465.53ZM124,466.84c-1.21-.61-2.22-2.22-3.63-2.22-4.74,4.54-4.74,8.88-2.62,8.88C120.13,473.5,123.46,468.76,124,466.84Zm3.13-12.91c-2.32,0-4.44,3.63-5.24,6.76,0,2.52,1.21,3,3.73,3.83C126.49,463.11,132.24,453.63,127.09,453.93Z"></path><path class="cls-1" d="M222.92,424.88c3.63.3,3.33,3.93,2.52,6.05-5.14,13.82-30.06,23.2-43.88,23.2-3.93,3.93-11.6,14.42-11.6,27.74,0,3.43.2,6.05,2.93,6.05a10,10,0,0,0,2.62-.5c8.07-3,18.66-10.9,26.23-15.64,7.16-4.54,15.43-10.59,24.21-10.59a1.78,1.78,0,0,1,1,1.51l-1,.51c-2-.3-10.8,2.52-13.12,4-8,4.74-31.17,21.09-35.81,21.69a6.2,6.2,0,0,1-4,1c-11.5,0-5.15-20.58-3-24.61-1.91,1.91-6.76,4.94-8.57,4.94-2.52,0-3.53-1.61-3.53-4a11.8,11.8,0,0,1,11.6-11.6,5.23,5.23,0,0,1,5,3C174.7,457.86,204,424.88,222.92,424.88ZM172,461.7c.71-1.22.91-3.13,0-4a3.21,3.21,0,0,0-2.32-1c-6.15,0-12.41,11.1-7.26,11.1C165.62,467.75,169.76,463.51,172,461.7ZM221.91,433c2.22-2.93,3.64-5.55-1-5.55-10.89,0-28,15.43-36.31,23.7.2.61,1.11.51,1.51.51C197.8,451.61,215.15,442,221.91,433Z"></path><path class="cls-1" d="M247.44,438.7c2.52,0,4.33,1.21,4.33,3.73,0,4.84-11.09,12.91-17.85,14.83,0,0-1.51,0-2,1a18.31,18.31,0,0,1,1.51,6.05c0,3.53-11.6,12.2-14.22,14.83-3.33,2.72-4.24,7.36,0,7.56,19,0,42.37-25.72,63.55-25.72.51,0,1,.5,1,1.51,0,.51-.5.51-1,.51-19.67,0-47.31,26.12-63.55,26.12a5.2,5.2,0,0,1-5-5.44c0-10.09,16.94-15.84,16.24-21.39,0-2.52-1.11-4.54-1.11-6.56C229.28,446.06,240.88,438.7,247.44,438.7Zm2.62,3.43c0-1-1-1-1.51-1-5.35,0-16.14,9.88-16.14,14.62C236.34,455.74,250.06,445,250.06,442.13Z"></path><path class="cls-1" d="M283.55,459.27c2-2,4.64-5.85,7.06-7.06a2,2,0,0,1,1.31-.6c.71,0,1.21.5,1.21,1.61a3.06,3.06,0,0,1-.5,2c-7.06,5.85-20.08,21.18-13.22,21.18,10.29,0,27-15.33,40.45-15.33,1.52,0,2.53.3,2.63,1.11-.31.1-.31.3-.81.3-16.54.81-31.57,15.33-42.77,15.33-2.32,0-3.43-1-3.43-3.42C275.48,470.47,281.13,462.2,283.55,459.27Zm19.67-22.09c1,.2.91.61.81,1.31-.31,1.82-2.42,3-3.64,3.94-.9.6-3.22,2.62-3.22,2.62a9.09,9.09,0,0,1-3.13,2.12.78.78,0,0,1-.71-1c.21-1,2.73-2.93,3.53-3.73C298.28,441.22,301,436.88,303.22,437.18Zm16.64,36.22c.51,0,.51.5,0,.5Z"></path><path class="cls-1" d="M333.79,461.09h.5c4.64-2.32,11.1-6.15,16.44-6.15.71,0,1.21.3,1.21,1.11s-.8,1.21-1.51,1.51c-5.95.2-24.11,27.74-26.53,32.08,19.47,4.44,41.76,13.41,58,13.41a27.41,27.41,0,0,0,11.4-2.11c0,2.82-6.35,5-13.11,5-22.4,0-45.3-13.52-57.9-14.22-8.18,12.1-25.83,24.21-42.07,24.21-3.53,0-11.5,0-11.5-5.85,0-14.83,29-21.49,45.6-21.49a47.13,47.13,0,0,1,5.65.3c3.22-5.55,20.27-27.94,22.89-29.35-5.44,1.81-15.93,9.58-19.67,9.58-8,0-1.81-15.13,10.09-15.13C337.22,454,335.7,459,333.79,461.09Zm-18.67,29.25c-28.85,0-44.08,12.41-44.08,19.07,0,3.33,2.42,4.64,5.95,4.64,16.14,0,30.06-8,41.56-23.2A20.3,20.3,0,0,0,315.12,490.34Zm18.67-28.75a1.34,1.34,0,0,1-1.52-1.51c0-1.11,1.92-4-.5-4-3.33,0-11.91,8.27-8.07,10.59C325.61,466.64,331.77,462.6,333.79,461.59Z"></path><path class="cls-1" d="M368.18,457.46c-2.32,2-11.6,9.78-11.6,12.71,0,.4,0,.91,1.31,1.11,8.07,0,22.4-13.82,25.42-13.82a1.58,1.58,0,0,1,1,2.52c-3.23,3.23-21.38,17-21.38,24.51,0,.81.1,2.22,1.71,2.22,11.4,0,36.42-25.52,54.58-25.52,1.41,0,2.62-.4,2.52,1.51l-.51,1c-17.25-2.62-47.41,25-56.29,25-1.51,0-4-1.72-4-3.53,0-6.56,7.56-12.21,10.39-18-3.33,2.63-12.61,6.36-14.22,6.36s-2.73-.4-2.73-2.32c0-4.74,11.4-15.54,11.81-15.84C368.38,454.94,368.69,457.46,368.18,457.46Z"></path><path class="cls-1" d="M435.26,454.13c0,4.84-8.47,7.06-11.8,8.57-1.91,2.83-8.47,16.14-.3,16.14,8.88,0,28.65-13,37.93-17.65.6-.3,1.11.61.81,1-1.92,3.23-32.08,19.17-39.25,19.17-5.54,0-7.46-2.63-7.46-6.36,0-7.87,8.78-22.9,18.16-22.9C434.46,452.11,435.26,452.62,435.26,454.13Zm-2.52,0c-1.51,0-7.36,4.44-7.36,6.05C427.6,460.08,433.05,455.64,432.74,454.13Z"></path><path class="cls-1" d="M460.59,461.7a1.1,1.1,0,0,1,.5-1.12c2.32-2.31,9.78-8.57,12.81-8.57,2.32,0,4.34.3,4.34,3,1.31,8.37-7.37,12.3-14.12,17.15-.41,2.32-1.42,4.84-2,7.06,15.73-1.62,33.08-17.45,43.58-18.36a.55.55,0,0,1,.4,1c-8.78,2.12-27.94,15.83-45,20.27-3,12.51-22.5,32.38-35.31,32.38-5.65,0-8.07-2.92-8.07-7.46,0-12.41,30.57-26.83,40.35-26.83,1.42-.61,3.74-8.88,4.54-10.6,5.55-1,16.65-9,13.32-15.43l-.2-.2c-4.44,0-10.6,5.14-13.92,8.47Zm-3.54,20.57c-9.68.71-37.52,13.62-37.52,25.12,0,3.73,2.12,4.74,5.55,4.74C433.25,512.13,454.23,493.07,457.05,482.27Z"></path><path class="cls-1" d="M276.63,210.47c-2.72,1.48-15.19,13.49-12.58,14.85,3.06,1.81,18.36-9.41,21.08-11.45a8.08,8.08,0,0,1,4.08-1.7c.9,0,1.47.57,1,2.27-3.4,3.4-9.75,14.85-13.6,19.83,21.41-4.08,34.9-16.2,42.61-20.51.68-.34,1.24.23,1.13,1.13-10.31,8.28-26.52,16.89-46.24,22.56-5.32,8.38-35.13,41.36-46.24,44.42a26.93,26.93,0,0,1-4.53.57c-3.51,0-6.8-1.25-6.8-5.67,0-20.62,37.51-38.3,52.7-40.23,4.76-1.13,11.79-14.39,15.3-18.7-3.74,2.83-12.92,9.63-18.93,9.63a7.18,7.18,0,0,1-2.26-.34c-7.82-2.83,10.08-19.49,13.26-19.49C277.31,207.64,278,209.79,276.63,210.47Zm-9.07,28.9c-13,0-48.39,22.89-48.39,36.95,0,2,1.25,3.28,4.76,3.28C232.09,279.6,267.56,241.07,267.56,239.37Z"></path></g></g></svg>