<svg xmlns="http://www.w3.org/2000/svg" id="Capa_2" viewBox="0 0 545.08 69.08"><defs><style>      .cls-1 {        fill: #957845;      }    </style></defs><g id="Capa_1-2" data-name="Capa_1"><g><g><path class="cls-1" d="M80.84.47c3.25,0,5.98,1.96,5.98,5.55,0,8.89-27.17,32.72-32.89,39.73,7.52-5.04,14.87-9.91,22.64-14.52,6.49-3.84,19.74-11.53,27.34-11.53,2.48,0,3.84.77,3.84,2.99,0,10.25-23.49,29.82-23.49,37.59,0,1.71,1.28,2.31,2.9,2.31,2.82,0,6.83-1.62,8.2-2.31,11.11-5.64,26.14-16.92,37.16-20.08,2.39-.6,4.87-.85,7.26-.85l.43.85c-1.79.94-3.25,1.02-5.13,1.28-15.12,2.31-37.16,23.07-48.27,23.07-9.91,0-1.2-14.69,1.28-18.37,2.48-3.84,17.94-20.08,17.94-23.49,0-1.88-1.2-1.79-2.56-1.71-8.97.85-50.32,25.54-54.68,29.9l-2.99,2.99c-.34.26-.85.43-1.28.43-.85,0-1.71-.51-1.71-1.71,0-.34-.09-1.11.43-1.28l33.49-33.49c2.56-2.56,13.84-15.63,3.76-15.63-8.8,0-29.47,9.48-37.33,9.48-1.79,0-10.17-.09-10.17-3.08l.43-.43,1.28.43c.17,0,.26.09.43.09l.85.26c1.88.51,4.02.51,5.98.51C54.78,9.44,68.8.47,80.84.47Z"></path><path class="cls-1" d="M145.52,43.1c2.82.77,5.47,1.11,7.95,1.11,8.63,0,14.95-3.93,18.97-4.7.43,0,.43.43.43.85,0,.34-.6.6-.85.85-5.64,1.28-10.42,4.27-20.08,4.27-2.22,0-4.7-.17-7.52-.51-.94.85-3.08,6.66-7.86,6.66-5.64,0-2.56-9.23,2.14-11.11.85-3.93,2.31-9.4,6.83-9.4,6.07,0,2.56,9.48,0,11.96ZM142.45,44.21c-1.03-.51-1.88-1.88-3.08-1.88-4.02,3.84-4.02,7.52-2.22,7.52,2.05,0,4.87-4.02,5.3-5.64ZM145.1,33.28c-1.96,0-3.76,3.08-4.44,5.72,0,2.14,1.03,2.56,3.16,3.25.77-1.2,5.64-9.23,1.28-8.97Z"></path><path class="cls-1" d="M183.12,29.69c2.14,0,2.9,1.37,2.73,2.65-.51,4.53-7.01,6.49-11.02,8.8-1.11.77-1.71,2.14-1.88,5.3,10.08,0,22.98-7.6,34.6-7.77.51.17.94.43.94,1.03,0,.77-1.03.68-1.45.68-8.29,0-23.92,6.92-34.69,7.86-1.2,4.96-5.72,7.52-10.34,7.52-5.21,0-10.42-3.33-10.94-10.34.26-.85,1.02-1.03,1.71-1.03,5.9,1.96,10.42,2.39,16.75,2.39,2.14-6.32,5.21-17.09,13.58-17.09ZM153.13,46.35h-.17c.85,4.53,5.64,6.75,9.48,6.75,2.65,0,5.47-2.14,6.07-4.61-8.46,0-10.59-1.28-15.38-2.14ZM183.29,31.23c-1.79,0-8.54,6.58-8.2,8.37,3.25-.94,8.89-4.61,8.89-7.69-.09-.43-.34-.68-.68-.68Z"></path><path class="cls-1" d="M259.33,40.28c-7.69,5.38-21.7,15.81-31.18,15.81-12.64,0,2.65-23.67,11.53-24.35,3.76,0,5.13,1.54,5.55,4.27,0,.51-.43,1.03-.85,1.28-.94-.43-.85-1.2-.85-2.14-.68-.68-1.54-1.02-2.48-1.02-5.9,0-15.46,11.7-15.46,17.51,0,.94.43,1.88,3.42,2.31,5.55,0,18.11-7.01,22.73-10.25,3.16-2.22,3.76-2.82,6.83-4.44.85-.26,1.37.43.77,1.03ZM274.79,49.85c0-.09.26-.17.34-.17s.17,0,.26.09c0-.09.08-.09.17-.09v.43c-.09,0-.17,0-.17-.09-.08.09-.17.09-.26.09s-.34-.09-.34-.26Z"></path><path class="cls-1" d="M269.5,38.75c.43,0,1.28-.51,3.08-1.79,3.08-2.22,3.16-2.14,3.84-2.14,1.45,0,1.45.43,1.45,1.71-.09.17-.17.34-.34.51-3.25,3.93-12.99,12.05-12.99,18.71,0,.85.6,1.11,1.45,1.11,7.18,0,23.84-15.98,33.4-17.17,1.03-.09,1.71,0,1.71.6,0,.68-.68.85-6.41,2.65-7.18,2.31-22.64,15.63-29.22,15.63-.85,0-1.54-.26-2.05-.77-2.82-2.82.43-8.54,2.22-11.19,2.05-3.08,2.65-4.02,2.22-4.02-.17,0-.6.17-1.11.43-1.54.77-6.07,3.33-7.43,3.33-7.35,0,.26-11.88,6.75-11.88.68,0,1.37.17,1.96.43,2.39,1.02.51,3.84,1.45,3.84ZM267.62,39c-.26-1.28.51-2.48-1.28-2.48-4.19,0-9.91,8.03-6.92,8.03,2.22,0,9.48-5.04,8.88-5.3-.26-.09-.6,0-.68-.26Z"></path><path class="cls-1" d="M310.08,29.69c2.14,0,2.9,1.37,2.73,2.65-.51,4.53-7.01,6.49-11.02,8.8-1.11.77-1.71,2.14-1.88,5.3,10.08,0,22.98-7.6,34.6-7.77.51.17.94.43.94,1.03,0,.77-1.02.68-1.45.68-8.29,0-23.92,6.92-34.69,7.86-1.2,4.96-5.72,7.52-10.34,7.52-5.21,0-10.42-3.33-10.94-10.34.26-.85,1.03-1.03,1.71-1.03,5.89,1.96,10.42,2.39,16.75,2.39,2.14-6.32,5.21-17.09,13.58-17.09ZM280.09,46.35h-.17c.85,4.53,5.64,6.75,9.48,6.75,2.65,0,5.47-2.14,6.07-4.61-8.46,0-10.59-1.28-15.38-2.14ZM310.25,31.23c-1.79,0-8.54,6.58-8.2,8.37,3.25-.94,8.88-4.61,8.88-7.69-.08-.43-.34-.68-.68-.68Z"></path><path class="cls-1" d="M345.02,38.75c.43,0,1.28-.51,3.08-1.79,3.08-2.22,3.16-2.14,3.84-2.14,1.45,0,1.45.43,1.45,1.71-.09.17-.17.34-.34.51-3.25,3.93-12.99,12.05-12.99,18.71,0,.85.6,1.11,1.45,1.11,7.18,0,23.84-15.98,33.4-17.17,1.03-.09,1.71,0,1.71.6,0,.68-.68.85-6.41,2.65-7.18,2.31-22.64,15.63-29.22,15.63-.85,0-1.54-.26-2.05-.77-2.82-2.82.43-8.54,2.22-11.19,2.05-3.08,2.65-4.02,2.22-4.02-.17,0-.6.17-1.11.43-1.54.77-6.07,3.33-7.43,3.33-7.35,0,.26-11.88,6.75-11.88.68,0,1.37.17,1.96.43,2.39,1.02.51,3.84,1.45,3.84ZM343.14,39c-.26-1.28.51-2.48-1.28-2.48-4.19,0-9.91,8.03-6.92,8.03,2.22,0,9.48-5.04,8.89-5.3-.26-.09-.6,0-.68-.26Z"></path><path class="cls-1" d="M379.46,36.18c.43,0,.85.34.85.77,0,1.88-4.19,6.32-5.55,7.77,6.49-5.38,31.01-18.88,20.08.43,6.58-3.25,12.64-9.4,19.22-9.4,8.29,0-9.57,15.46-2.73,15.46,7.18,0,20.42-11.96,28.45-11.96,1.45,0,1.11,1.37-1.62,1.62-5.55.6-20.59,12.13-27.59,12.13-10.68,0,7.43-15.98,3.16-15.98-5.9,0-13.84,7.18-19.31,10.25-.26,1.28-5.38,5.13-6.41,5.13-.68,0-1.28-.6-1.28-1.28,0-2.99,6.49-6.83,8.63-11.7.94-2.22.6-3.16-.68-3.16-5.04,0-23.75,14.1-25.03,14.87-.94.6-1.79.94-2.48.94-.85,0-1.37-.6-1.37-2.22,1.62-2.22,11.71-13.67,13.67-13.67Z"></path><path class="cls-1" d="M445.24,43.1c2.82.77,5.47,1.11,7.95,1.11,8.63,0,14.95-3.93,18.97-4.7.43,0,.43.43.43.85,0,.34-.6.6-.85.85-5.64,1.28-10.42,4.27-20.08,4.27-2.22,0-4.7-.17-7.52-.51-.94.85-3.08,6.66-7.86,6.66-5.64,0-2.56-9.23,2.14-11.11.85-3.93,2.31-9.4,6.83-9.4,6.07,0,2.56,9.48,0,11.96ZM442.17,44.21c-1.02-.51-1.88-1.88-3.08-1.88-4.02,3.84-4.02,7.52-2.22,7.52,2.05,0,4.87-4.02,5.3-5.64ZM444.82,33.28c-1.96,0-3.76,3.08-4.44,5.72,0,2.14,1.03,2.56,3.16,3.25.77-1.2,5.64-9.23,1.28-8.97Z"></path><path class="cls-1" d="M482.84,29.69c2.14,0,2.9,1.37,2.73,2.65-.51,4.53-7.01,6.49-11.02,8.8-1.11.77-1.71,2.14-1.88,5.3,10.08,0,22.98-7.6,34.6-7.77.51.17.94.43.94,1.03,0,.77-1.02.68-1.45.68-8.29,0-23.92,6.92-34.69,7.86-1.2,4.96-5.72,7.52-10.34,7.52-5.21,0-10.42-3.33-10.94-10.34.26-.85,1.03-1.03,1.71-1.03,5.89,1.96,10.42,2.39,16.75,2.39,2.14-6.32,5.21-17.09,13.58-17.09ZM452.85,46.35h-.17c.85,4.53,5.64,6.75,9.48,6.75,2.65,0,5.47-2.14,6.07-4.61-8.46,0-10.59-1.28-15.38-2.14ZM483.01,31.23c-1.79,0-8.54,6.58-8.2,8.37,3.25-.94,8.88-4.61,8.88-7.69-.08-.43-.34-.68-.68-.68Z"></path></g><path class="cls-1" d="M515,59.9c.65-.2,1.05.22,1.25.87.2.65-.06,1.27-.8,1.49-.65.2-1.22.1-1.42-.55-.27-.9.23-1.59.97-1.81ZM538.97,5.3c1.12-1.32,2.83-4.52,4.95-5.16.65-.2.9-.27,1.1.38.22.74-.12.48-.55,1.42l-1.21,1.89-1.41,2.12c-.26.61-1.47,2.5-1.47,2.5-.46.85-2.47,4.23-2.55,4.53-7.34,13.75-13.91,27.71-19.44,42.42-.37.56-.04.46-.53.61s-.74.22-.86-.19c-1.12-3.68,16.2-42.24,21.99-50.51Z"></path><path class="cls-1" d="M15.62,8.46c.36-.23.5-.02.78.41.28.43.09.14.02.81-5.16,14.85-9.04,29.78-12.19,45.04-.12.28-.74,4.17-.93,5.11,0,0-.27,2.23-.47,2.86l-.28,2.53-.27,2.23c-.27.99.16,1.02-.48,1.44-.57.38-.71.16-1.09-.41-1.22-1.86-.49-5.41-.5-7.14C1.05,51.28,12.41,10.57,15.62,8.46ZM17.13,2.05c.57-.38,1.07-.09,1.44.48.42.64.23,1.28-.34,1.66-.57.38-1.14.44-1.52-.13-.42-.64-.37-1.49.42-2.01Z"></path></g></g></svg>